%TF.GenerationSoftware,KiCad,Pcbnew,8.0.4*%
%TF.CreationDate,2024-08-13T15:07:55-04:00*%
%TF.ProjectId,Opta-breakout,4f707461-2d62-4726-9561-6b6f75742e6b,rev?*%
%TF.SameCoordinates,Original*%
%TF.FileFunction,Legend,Bot*%
%TF.FilePolarity,Positive*%
%FSLAX46Y46*%
G04 Gerber Fmt 4.6, Leading zero omitted, Abs format (unit mm)*
G04 Created by KiCad (PCBNEW 8.0.4) date 2024-08-13 15:07:55*
%MOMM*%
%LPD*%
G01*
G04 APERTURE LIST*
%ADD10C,0.150000*%
G04 APERTURE END LIST*
D10*
X160111839Y-71294216D02*
X159635649Y-71294216D01*
X160207077Y-71579931D02*
X159873744Y-70579931D01*
X159873744Y-70579931D02*
X159540411Y-71579931D01*
X158635649Y-71579931D02*
X158968982Y-71103740D01*
X159207077Y-71579931D02*
X159207077Y-70579931D01*
X159207077Y-70579931D02*
X158826125Y-70579931D01*
X158826125Y-70579931D02*
X158730887Y-70627550D01*
X158730887Y-70627550D02*
X158683268Y-70675169D01*
X158683268Y-70675169D02*
X158635649Y-70770407D01*
X158635649Y-70770407D02*
X158635649Y-70913264D01*
X158635649Y-70913264D02*
X158683268Y-71008502D01*
X158683268Y-71008502D02*
X158730887Y-71056121D01*
X158730887Y-71056121D02*
X158826125Y-71103740D01*
X158826125Y-71103740D02*
X159207077Y-71103740D01*
X158207077Y-71579931D02*
X158207077Y-70579931D01*
X158207077Y-70579931D02*
X157968982Y-70579931D01*
X157968982Y-70579931D02*
X157826125Y-70627550D01*
X157826125Y-70627550D02*
X157730887Y-70722788D01*
X157730887Y-70722788D02*
X157683268Y-70818026D01*
X157683268Y-70818026D02*
X157635649Y-71008502D01*
X157635649Y-71008502D02*
X157635649Y-71151359D01*
X157635649Y-71151359D02*
X157683268Y-71341835D01*
X157683268Y-71341835D02*
X157730887Y-71437073D01*
X157730887Y-71437073D02*
X157826125Y-71532312D01*
X157826125Y-71532312D02*
X157968982Y-71579931D01*
X157968982Y-71579931D02*
X158207077Y-71579931D01*
X157207077Y-70579931D02*
X157207077Y-71389454D01*
X157207077Y-71389454D02*
X157159458Y-71484692D01*
X157159458Y-71484692D02*
X157111839Y-71532312D01*
X157111839Y-71532312D02*
X157016601Y-71579931D01*
X157016601Y-71579931D02*
X156826125Y-71579931D01*
X156826125Y-71579931D02*
X156730887Y-71532312D01*
X156730887Y-71532312D02*
X156683268Y-71484692D01*
X156683268Y-71484692D02*
X156635649Y-71389454D01*
X156635649Y-71389454D02*
X156635649Y-70579931D01*
X156159458Y-71579931D02*
X156159458Y-70579931D01*
X155683268Y-71579931D02*
X155683268Y-70579931D01*
X155683268Y-70579931D02*
X155111840Y-71579931D01*
X155111840Y-71579931D02*
X155111840Y-70579931D01*
X154445173Y-70579931D02*
X154254697Y-70579931D01*
X154254697Y-70579931D02*
X154159459Y-70627550D01*
X154159459Y-70627550D02*
X154064221Y-70722788D01*
X154064221Y-70722788D02*
X154016602Y-70913264D01*
X154016602Y-70913264D02*
X154016602Y-71246597D01*
X154016602Y-71246597D02*
X154064221Y-71437073D01*
X154064221Y-71437073D02*
X154159459Y-71532312D01*
X154159459Y-71532312D02*
X154254697Y-71579931D01*
X154254697Y-71579931D02*
X154445173Y-71579931D01*
X154445173Y-71579931D02*
X154540411Y-71532312D01*
X154540411Y-71532312D02*
X154635649Y-71437073D01*
X154635649Y-71437073D02*
X154683268Y-71246597D01*
X154683268Y-71246597D02*
X154683268Y-70913264D01*
X154683268Y-70913264D02*
X154635649Y-70722788D01*
X154635649Y-70722788D02*
X154540411Y-70627550D01*
X154540411Y-70627550D02*
X154445173Y-70579931D01*
X152635649Y-70579931D02*
X152445173Y-70579931D01*
X152445173Y-70579931D02*
X152349935Y-70627550D01*
X152349935Y-70627550D02*
X152254697Y-70722788D01*
X152254697Y-70722788D02*
X152207078Y-70913264D01*
X152207078Y-70913264D02*
X152207078Y-71246597D01*
X152207078Y-71246597D02*
X152254697Y-71437073D01*
X152254697Y-71437073D02*
X152349935Y-71532312D01*
X152349935Y-71532312D02*
X152445173Y-71579931D01*
X152445173Y-71579931D02*
X152635649Y-71579931D01*
X152635649Y-71579931D02*
X152730887Y-71532312D01*
X152730887Y-71532312D02*
X152826125Y-71437073D01*
X152826125Y-71437073D02*
X152873744Y-71246597D01*
X152873744Y-71246597D02*
X152873744Y-70913264D01*
X152873744Y-70913264D02*
X152826125Y-70722788D01*
X152826125Y-70722788D02*
X152730887Y-70627550D01*
X152730887Y-70627550D02*
X152635649Y-70579931D01*
X151778506Y-71579931D02*
X151778506Y-70579931D01*
X151778506Y-70579931D02*
X151397554Y-70579931D01*
X151397554Y-70579931D02*
X151302316Y-70627550D01*
X151302316Y-70627550D02*
X151254697Y-70675169D01*
X151254697Y-70675169D02*
X151207078Y-70770407D01*
X151207078Y-70770407D02*
X151207078Y-70913264D01*
X151207078Y-70913264D02*
X151254697Y-71008502D01*
X151254697Y-71008502D02*
X151302316Y-71056121D01*
X151302316Y-71056121D02*
X151397554Y-71103740D01*
X151397554Y-71103740D02*
X151778506Y-71103740D01*
X150921363Y-70579931D02*
X150349935Y-70579931D01*
X150635649Y-71579931D02*
X150635649Y-70579931D01*
X150064220Y-71294216D02*
X149588030Y-71294216D01*
X150159458Y-71579931D02*
X149826125Y-70579931D01*
X149826125Y-70579931D02*
X149492792Y-71579931D01*
X148445172Y-71294216D02*
X147968982Y-71294216D01*
X148540410Y-71579931D02*
X148207077Y-70579931D01*
X148207077Y-70579931D02*
X147873744Y-71579931D01*
X147540410Y-70579931D02*
X147540410Y-71389454D01*
X147540410Y-71389454D02*
X147492791Y-71484692D01*
X147492791Y-71484692D02*
X147445172Y-71532312D01*
X147445172Y-71532312D02*
X147349934Y-71579931D01*
X147349934Y-71579931D02*
X147159458Y-71579931D01*
X147159458Y-71579931D02*
X147064220Y-71532312D01*
X147064220Y-71532312D02*
X147016601Y-71484692D01*
X147016601Y-71484692D02*
X146968982Y-71389454D01*
X146968982Y-71389454D02*
X146968982Y-70579931D01*
X146588029Y-70579931D02*
X145921363Y-71579931D01*
X145921363Y-70579931D02*
X146588029Y-71579931D01*
X144445172Y-71056121D02*
X144302315Y-71103740D01*
X144302315Y-71103740D02*
X144254696Y-71151359D01*
X144254696Y-71151359D02*
X144207077Y-71246597D01*
X144207077Y-71246597D02*
X144207077Y-71389454D01*
X144207077Y-71389454D02*
X144254696Y-71484692D01*
X144254696Y-71484692D02*
X144302315Y-71532312D01*
X144302315Y-71532312D02*
X144397553Y-71579931D01*
X144397553Y-71579931D02*
X144778505Y-71579931D01*
X144778505Y-71579931D02*
X144778505Y-70579931D01*
X144778505Y-70579931D02*
X144445172Y-70579931D01*
X144445172Y-70579931D02*
X144349934Y-70627550D01*
X144349934Y-70627550D02*
X144302315Y-70675169D01*
X144302315Y-70675169D02*
X144254696Y-70770407D01*
X144254696Y-70770407D02*
X144254696Y-70865645D01*
X144254696Y-70865645D02*
X144302315Y-70960883D01*
X144302315Y-70960883D02*
X144349934Y-71008502D01*
X144349934Y-71008502D02*
X144445172Y-71056121D01*
X144445172Y-71056121D02*
X144778505Y-71056121D01*
X143207077Y-71579931D02*
X143540410Y-71103740D01*
X143778505Y-71579931D02*
X143778505Y-70579931D01*
X143778505Y-70579931D02*
X143397553Y-70579931D01*
X143397553Y-70579931D02*
X143302315Y-70627550D01*
X143302315Y-70627550D02*
X143254696Y-70675169D01*
X143254696Y-70675169D02*
X143207077Y-70770407D01*
X143207077Y-70770407D02*
X143207077Y-70913264D01*
X143207077Y-70913264D02*
X143254696Y-71008502D01*
X143254696Y-71008502D02*
X143302315Y-71056121D01*
X143302315Y-71056121D02*
X143397553Y-71103740D01*
X143397553Y-71103740D02*
X143778505Y-71103740D01*
X142778505Y-71056121D02*
X142445172Y-71056121D01*
X142302315Y-71579931D02*
X142778505Y-71579931D01*
X142778505Y-71579931D02*
X142778505Y-70579931D01*
X142778505Y-70579931D02*
X142302315Y-70579931D01*
X141921362Y-71294216D02*
X141445172Y-71294216D01*
X142016600Y-71579931D02*
X141683267Y-70579931D01*
X141683267Y-70579931D02*
X141349934Y-71579931D01*
X141016600Y-71579931D02*
X141016600Y-70579931D01*
X140445172Y-71579931D02*
X140873743Y-71008502D01*
X140445172Y-70579931D02*
X141016600Y-71151359D01*
X139826124Y-70579931D02*
X139635648Y-70579931D01*
X139635648Y-70579931D02*
X139540410Y-70627550D01*
X139540410Y-70627550D02*
X139445172Y-70722788D01*
X139445172Y-70722788D02*
X139397553Y-70913264D01*
X139397553Y-70913264D02*
X139397553Y-71246597D01*
X139397553Y-71246597D02*
X139445172Y-71437073D01*
X139445172Y-71437073D02*
X139540410Y-71532312D01*
X139540410Y-71532312D02*
X139635648Y-71579931D01*
X139635648Y-71579931D02*
X139826124Y-71579931D01*
X139826124Y-71579931D02*
X139921362Y-71532312D01*
X139921362Y-71532312D02*
X140016600Y-71437073D01*
X140016600Y-71437073D02*
X140064219Y-71246597D01*
X140064219Y-71246597D02*
X140064219Y-70913264D01*
X140064219Y-70913264D02*
X140016600Y-70722788D01*
X140016600Y-70722788D02*
X139921362Y-70627550D01*
X139921362Y-70627550D02*
X139826124Y-70579931D01*
X138968981Y-70579931D02*
X138968981Y-71389454D01*
X138968981Y-71389454D02*
X138921362Y-71484692D01*
X138921362Y-71484692D02*
X138873743Y-71532312D01*
X138873743Y-71532312D02*
X138778505Y-71579931D01*
X138778505Y-71579931D02*
X138588029Y-71579931D01*
X138588029Y-71579931D02*
X138492791Y-71532312D01*
X138492791Y-71532312D02*
X138445172Y-71484692D01*
X138445172Y-71484692D02*
X138397553Y-71389454D01*
X138397553Y-71389454D02*
X138397553Y-70579931D01*
X138064219Y-70579931D02*
X137492791Y-70579931D01*
X137778505Y-71579931D02*
X137778505Y-70579931D01*
X159730887Y-72666065D02*
X160064220Y-72666065D01*
X160064220Y-73189875D02*
X160064220Y-72189875D01*
X160064220Y-72189875D02*
X159588030Y-72189875D01*
X159016601Y-72189875D02*
X158826125Y-72189875D01*
X158826125Y-72189875D02*
X158730887Y-72237494D01*
X158730887Y-72237494D02*
X158635649Y-72332732D01*
X158635649Y-72332732D02*
X158588030Y-72523208D01*
X158588030Y-72523208D02*
X158588030Y-72856541D01*
X158588030Y-72856541D02*
X158635649Y-73047017D01*
X158635649Y-73047017D02*
X158730887Y-73142256D01*
X158730887Y-73142256D02*
X158826125Y-73189875D01*
X158826125Y-73189875D02*
X159016601Y-73189875D01*
X159016601Y-73189875D02*
X159111839Y-73142256D01*
X159111839Y-73142256D02*
X159207077Y-73047017D01*
X159207077Y-73047017D02*
X159254696Y-72856541D01*
X159254696Y-72856541D02*
X159254696Y-72523208D01*
X159254696Y-72523208D02*
X159207077Y-72332732D01*
X159207077Y-72332732D02*
X159111839Y-72237494D01*
X159111839Y-72237494D02*
X159016601Y-72189875D01*
X157588030Y-73189875D02*
X157921363Y-72713684D01*
X158159458Y-73189875D02*
X158159458Y-72189875D01*
X158159458Y-72189875D02*
X157778506Y-72189875D01*
X157778506Y-72189875D02*
X157683268Y-72237494D01*
X157683268Y-72237494D02*
X157635649Y-72285113D01*
X157635649Y-72285113D02*
X157588030Y-72380351D01*
X157588030Y-72380351D02*
X157588030Y-72523208D01*
X157588030Y-72523208D02*
X157635649Y-72618446D01*
X157635649Y-72618446D02*
X157683268Y-72666065D01*
X157683268Y-72666065D02*
X157778506Y-72713684D01*
X157778506Y-72713684D02*
X158159458Y-72713684D01*
X156397553Y-72666065D02*
X156064220Y-72666065D01*
X155921363Y-73189875D02*
X156397553Y-73189875D01*
X156397553Y-73189875D02*
X156397553Y-72189875D01*
X156397553Y-72189875D02*
X155921363Y-72189875D01*
X155588029Y-72189875D02*
X154921363Y-73189875D01*
X154921363Y-72189875D02*
X155588029Y-73189875D01*
X154540410Y-73189875D02*
X154540410Y-72189875D01*
X154540410Y-72189875D02*
X154159458Y-72189875D01*
X154159458Y-72189875D02*
X154064220Y-72237494D01*
X154064220Y-72237494D02*
X154016601Y-72285113D01*
X154016601Y-72285113D02*
X153968982Y-72380351D01*
X153968982Y-72380351D02*
X153968982Y-72523208D01*
X153968982Y-72523208D02*
X154016601Y-72618446D01*
X154016601Y-72618446D02*
X154064220Y-72666065D01*
X154064220Y-72666065D02*
X154159458Y-72713684D01*
X154159458Y-72713684D02*
X154540410Y-72713684D01*
X153540410Y-72666065D02*
X153207077Y-72666065D01*
X153064220Y-73189875D02*
X153540410Y-73189875D01*
X153540410Y-73189875D02*
X153540410Y-72189875D01*
X153540410Y-72189875D02*
X153064220Y-72189875D01*
X152064220Y-73189875D02*
X152397553Y-72713684D01*
X152635648Y-73189875D02*
X152635648Y-72189875D01*
X152635648Y-72189875D02*
X152254696Y-72189875D01*
X152254696Y-72189875D02*
X152159458Y-72237494D01*
X152159458Y-72237494D02*
X152111839Y-72285113D01*
X152111839Y-72285113D02*
X152064220Y-72380351D01*
X152064220Y-72380351D02*
X152064220Y-72523208D01*
X152064220Y-72523208D02*
X152111839Y-72618446D01*
X152111839Y-72618446D02*
X152159458Y-72666065D01*
X152159458Y-72666065D02*
X152254696Y-72713684D01*
X152254696Y-72713684D02*
X152635648Y-72713684D01*
X151635648Y-73189875D02*
X151635648Y-72189875D01*
X151159458Y-73189875D02*
X151159458Y-72189875D01*
X151159458Y-72189875D02*
X150826125Y-72904160D01*
X150826125Y-72904160D02*
X150492792Y-72189875D01*
X150492792Y-72189875D02*
X150492792Y-73189875D01*
X150016601Y-72666065D02*
X149683268Y-72666065D01*
X149540411Y-73189875D02*
X150016601Y-73189875D01*
X150016601Y-73189875D02*
X150016601Y-72189875D01*
X150016601Y-72189875D02*
X149540411Y-72189875D01*
X149111839Y-73189875D02*
X149111839Y-72189875D01*
X149111839Y-72189875D02*
X148540411Y-73189875D01*
X148540411Y-73189875D02*
X148540411Y-72189875D01*
X148207077Y-72189875D02*
X147635649Y-72189875D01*
X147921363Y-73189875D02*
X147921363Y-72189875D01*
X147349934Y-72904160D02*
X146873744Y-72904160D01*
X147445172Y-73189875D02*
X147111839Y-72189875D01*
X147111839Y-72189875D02*
X146778506Y-73189875D01*
X145968982Y-73189875D02*
X146445172Y-73189875D01*
X146445172Y-73189875D02*
X146445172Y-72189875D01*
X144873743Y-72189875D02*
X144873743Y-72999398D01*
X144873743Y-72999398D02*
X144826124Y-73094636D01*
X144826124Y-73094636D02*
X144778505Y-73142256D01*
X144778505Y-73142256D02*
X144683267Y-73189875D01*
X144683267Y-73189875D02*
X144492791Y-73189875D01*
X144492791Y-73189875D02*
X144397553Y-73142256D01*
X144397553Y-73142256D02*
X144349934Y-73094636D01*
X144349934Y-73094636D02*
X144302315Y-72999398D01*
X144302315Y-72999398D02*
X144302315Y-72189875D01*
X143873743Y-73142256D02*
X143730886Y-73189875D01*
X143730886Y-73189875D02*
X143492791Y-73189875D01*
X143492791Y-73189875D02*
X143397553Y-73142256D01*
X143397553Y-73142256D02*
X143349934Y-73094636D01*
X143349934Y-73094636D02*
X143302315Y-72999398D01*
X143302315Y-72999398D02*
X143302315Y-72904160D01*
X143302315Y-72904160D02*
X143349934Y-72808922D01*
X143349934Y-72808922D02*
X143397553Y-72761303D01*
X143397553Y-72761303D02*
X143492791Y-72713684D01*
X143492791Y-72713684D02*
X143683267Y-72666065D01*
X143683267Y-72666065D02*
X143778505Y-72618446D01*
X143778505Y-72618446D02*
X143826124Y-72570827D01*
X143826124Y-72570827D02*
X143873743Y-72475589D01*
X143873743Y-72475589D02*
X143873743Y-72380351D01*
X143873743Y-72380351D02*
X143826124Y-72285113D01*
X143826124Y-72285113D02*
X143778505Y-72237494D01*
X143778505Y-72237494D02*
X143683267Y-72189875D01*
X143683267Y-72189875D02*
X143445172Y-72189875D01*
X143445172Y-72189875D02*
X143302315Y-72237494D01*
X142873743Y-72666065D02*
X142540410Y-72666065D01*
X142397553Y-73189875D02*
X142873743Y-73189875D01*
X142873743Y-73189875D02*
X142873743Y-72189875D01*
X142873743Y-72189875D02*
X142397553Y-72189875D01*
X159778506Y-73799819D02*
X159778506Y-74514104D01*
X159778506Y-74514104D02*
X159826125Y-74656961D01*
X159826125Y-74656961D02*
X159921363Y-74752200D01*
X159921363Y-74752200D02*
X160064220Y-74799819D01*
X160064220Y-74799819D02*
X160159458Y-74799819D01*
X158730887Y-74704580D02*
X158778506Y-74752200D01*
X158778506Y-74752200D02*
X158921363Y-74799819D01*
X158921363Y-74799819D02*
X159016601Y-74799819D01*
X159016601Y-74799819D02*
X159159458Y-74752200D01*
X159159458Y-74752200D02*
X159254696Y-74656961D01*
X159254696Y-74656961D02*
X159302315Y-74561723D01*
X159302315Y-74561723D02*
X159349934Y-74371247D01*
X159349934Y-74371247D02*
X159349934Y-74228390D01*
X159349934Y-74228390D02*
X159302315Y-74037914D01*
X159302315Y-74037914D02*
X159254696Y-73942676D01*
X159254696Y-73942676D02*
X159159458Y-73847438D01*
X159159458Y-73847438D02*
X159016601Y-73799819D01*
X159016601Y-73799819D02*
X158921363Y-73799819D01*
X158921363Y-73799819D02*
X158778506Y-73847438D01*
X158778506Y-73847438D02*
X158730887Y-73895057D01*
X158302315Y-74799819D02*
X158302315Y-73799819D01*
X158302315Y-73799819D02*
X158064220Y-73799819D01*
X158064220Y-73799819D02*
X157921363Y-73847438D01*
X157921363Y-73847438D02*
X157826125Y-73942676D01*
X157826125Y-73942676D02*
X157778506Y-74037914D01*
X157778506Y-74037914D02*
X157730887Y-74228390D01*
X157730887Y-74228390D02*
X157730887Y-74371247D01*
X157730887Y-74371247D02*
X157778506Y-74561723D01*
X157778506Y-74561723D02*
X157826125Y-74656961D01*
X157826125Y-74656961D02*
X157921363Y-74752200D01*
X157921363Y-74752200D02*
X158064220Y-74799819D01*
X158064220Y-74799819D02*
X158302315Y-74799819D01*
X157302315Y-74276009D02*
X156968982Y-74276009D01*
X156826125Y-74799819D02*
X157302315Y-74799819D01*
X157302315Y-74799819D02*
X157302315Y-73799819D01*
X157302315Y-73799819D02*
X156826125Y-73799819D01*
X156540410Y-73799819D02*
X156207077Y-74799819D01*
X156207077Y-74799819D02*
X155873744Y-73799819D01*
X155540410Y-74799819D02*
X155540410Y-73799819D01*
X154492792Y-74704580D02*
X154540411Y-74752200D01*
X154540411Y-74752200D02*
X154683268Y-74799819D01*
X154683268Y-74799819D02*
X154778506Y-74799819D01*
X154778506Y-74799819D02*
X154921363Y-74752200D01*
X154921363Y-74752200D02*
X155016601Y-74656961D01*
X155016601Y-74656961D02*
X155064220Y-74561723D01*
X155064220Y-74561723D02*
X155111839Y-74371247D01*
X155111839Y-74371247D02*
X155111839Y-74228390D01*
X155111839Y-74228390D02*
X155064220Y-74037914D01*
X155064220Y-74037914D02*
X155016601Y-73942676D01*
X155016601Y-73942676D02*
X154921363Y-73847438D01*
X154921363Y-73847438D02*
X154778506Y-73799819D01*
X154778506Y-73799819D02*
X154683268Y-73799819D01*
X154683268Y-73799819D02*
X154540411Y-73847438D01*
X154540411Y-73847438D02*
X154492792Y-73895057D01*
X154064220Y-74276009D02*
X153730887Y-74276009D01*
X153588030Y-74799819D02*
X154064220Y-74799819D01*
X154064220Y-74799819D02*
X154064220Y-73799819D01*
X154064220Y-73799819D02*
X153588030Y-73799819D01*
X153207077Y-74752200D02*
X153064220Y-74799819D01*
X153064220Y-74799819D02*
X152826125Y-74799819D01*
X152826125Y-74799819D02*
X152730887Y-74752200D01*
X152730887Y-74752200D02*
X152683268Y-74704580D01*
X152683268Y-74704580D02*
X152635649Y-74609342D01*
X152635649Y-74609342D02*
X152635649Y-74514104D01*
X152635649Y-74514104D02*
X152683268Y-74418866D01*
X152683268Y-74418866D02*
X152730887Y-74371247D01*
X152730887Y-74371247D02*
X152826125Y-74323628D01*
X152826125Y-74323628D02*
X153016601Y-74276009D01*
X153016601Y-74276009D02*
X153111839Y-74228390D01*
X153111839Y-74228390D02*
X153159458Y-74180771D01*
X153159458Y-74180771D02*
X153207077Y-74085533D01*
X153207077Y-74085533D02*
X153207077Y-73990295D01*
X153207077Y-73990295D02*
X153159458Y-73895057D01*
X153159458Y-73895057D02*
X153111839Y-73847438D01*
X153111839Y-73847438D02*
X153016601Y-73799819D01*
X153016601Y-73799819D02*
X152778506Y-73799819D01*
X152778506Y-73799819D02*
X152635649Y-73847438D01*
X152207077Y-74704580D02*
X152159458Y-74752200D01*
X152159458Y-74752200D02*
X152207077Y-74799819D01*
X152207077Y-74799819D02*
X152254696Y-74752200D01*
X152254696Y-74752200D02*
X152207077Y-74704580D01*
X152207077Y-74704580D02*
X152207077Y-74799819D01*
X151159459Y-74704580D02*
X151207078Y-74752200D01*
X151207078Y-74752200D02*
X151349935Y-74799819D01*
X151349935Y-74799819D02*
X151445173Y-74799819D01*
X151445173Y-74799819D02*
X151588030Y-74752200D01*
X151588030Y-74752200D02*
X151683268Y-74656961D01*
X151683268Y-74656961D02*
X151730887Y-74561723D01*
X151730887Y-74561723D02*
X151778506Y-74371247D01*
X151778506Y-74371247D02*
X151778506Y-74228390D01*
X151778506Y-74228390D02*
X151730887Y-74037914D01*
X151730887Y-74037914D02*
X151683268Y-73942676D01*
X151683268Y-73942676D02*
X151588030Y-73847438D01*
X151588030Y-73847438D02*
X151445173Y-73799819D01*
X151445173Y-73799819D02*
X151349935Y-73799819D01*
X151349935Y-73799819D02*
X151207078Y-73847438D01*
X151207078Y-73847438D02*
X151159459Y-73895057D01*
X150540411Y-73799819D02*
X150349935Y-73799819D01*
X150349935Y-73799819D02*
X150254697Y-73847438D01*
X150254697Y-73847438D02*
X150159459Y-73942676D01*
X150159459Y-73942676D02*
X150111840Y-74133152D01*
X150111840Y-74133152D02*
X150111840Y-74466485D01*
X150111840Y-74466485D02*
X150159459Y-74656961D01*
X150159459Y-74656961D02*
X150254697Y-74752200D01*
X150254697Y-74752200D02*
X150349935Y-74799819D01*
X150349935Y-74799819D02*
X150540411Y-74799819D01*
X150540411Y-74799819D02*
X150635649Y-74752200D01*
X150635649Y-74752200D02*
X150730887Y-74656961D01*
X150730887Y-74656961D02*
X150778506Y-74466485D01*
X150778506Y-74466485D02*
X150778506Y-74133152D01*
X150778506Y-74133152D02*
X150730887Y-73942676D01*
X150730887Y-73942676D02*
X150635649Y-73847438D01*
X150635649Y-73847438D02*
X150540411Y-73799819D01*
X149683268Y-74799819D02*
X149683268Y-73799819D01*
X149683268Y-73799819D02*
X149349935Y-74514104D01*
X149349935Y-74514104D02*
X149016602Y-73799819D01*
X149016602Y-73799819D02*
X149016602Y-74799819D01*
M02*
