%TF.GenerationSoftware,KiCad,Pcbnew,8.0.4*%
%TF.CreationDate,2024-08-13T15:07:55-04:00*%
%TF.ProjectId,Opta-breakout,4f707461-2d62-4726-9561-6b6f75742e6b,rev?*%
%TF.SameCoordinates,Original*%
%TF.FileFunction,Legend,Top*%
%TF.FilePolarity,Positive*%
%FSLAX46Y46*%
G04 Gerber Fmt 4.6, Leading zero omitted, Abs format (unit mm)*
G04 Created by KiCad (PCBNEW 8.0.4) date 2024-08-13 15:07:55*
%MOMM*%
%LPD*%
G01*
G04 APERTURE LIST*
%ADD10C,0.150000*%
%ADD11C,0.120000*%
G04 APERTURE END LIST*
D10*
X144537800Y-70789160D02*
X144490180Y-70932017D01*
X144490180Y-70932017D02*
X144490180Y-71170112D01*
X144490180Y-71170112D02*
X144537800Y-71265350D01*
X144537800Y-71265350D02*
X144585419Y-71312969D01*
X144585419Y-71312969D02*
X144680657Y-71360588D01*
X144680657Y-71360588D02*
X144775895Y-71360588D01*
X144775895Y-71360588D02*
X144871133Y-71312969D01*
X144871133Y-71312969D02*
X144918752Y-71265350D01*
X144918752Y-71265350D02*
X144966371Y-71170112D01*
X144966371Y-71170112D02*
X145013990Y-70979636D01*
X145013990Y-70979636D02*
X145061609Y-70884398D01*
X145061609Y-70884398D02*
X145109228Y-70836779D01*
X145109228Y-70836779D02*
X145204466Y-70789160D01*
X145204466Y-70789160D02*
X145299704Y-70789160D01*
X145299704Y-70789160D02*
X145394942Y-70836779D01*
X145394942Y-70836779D02*
X145442561Y-70884398D01*
X145442561Y-70884398D02*
X145490180Y-70979636D01*
X145490180Y-70979636D02*
X145490180Y-71217731D01*
X145490180Y-71217731D02*
X145442561Y-71360588D01*
X144585419Y-72360588D02*
X144537800Y-72312969D01*
X144537800Y-72312969D02*
X144490180Y-72170112D01*
X144490180Y-72170112D02*
X144490180Y-72074874D01*
X144490180Y-72074874D02*
X144537800Y-71932017D01*
X144537800Y-71932017D02*
X144633038Y-71836779D01*
X144633038Y-71836779D02*
X144728276Y-71789160D01*
X144728276Y-71789160D02*
X144918752Y-71741541D01*
X144918752Y-71741541D02*
X145061609Y-71741541D01*
X145061609Y-71741541D02*
X145252085Y-71789160D01*
X145252085Y-71789160D02*
X145347323Y-71836779D01*
X145347323Y-71836779D02*
X145442561Y-71932017D01*
X145442561Y-71932017D02*
X145490180Y-72074874D01*
X145490180Y-72074874D02*
X145490180Y-72170112D01*
X145490180Y-72170112D02*
X145442561Y-72312969D01*
X145442561Y-72312969D02*
X145394942Y-72360588D01*
X144490180Y-73265350D02*
X144490180Y-72789160D01*
X144490180Y-72789160D02*
X145490180Y-72789160D01*
X145490180Y-74265351D02*
X145490180Y-74932017D01*
X145490180Y-74932017D02*
X144490180Y-74503446D01*
X160730180Y-70841541D02*
X160730180Y-71460588D01*
X160730180Y-71460588D02*
X160349228Y-71127255D01*
X160349228Y-71127255D02*
X160349228Y-71270112D01*
X160349228Y-71270112D02*
X160301609Y-71365350D01*
X160301609Y-71365350D02*
X160253990Y-71412969D01*
X160253990Y-71412969D02*
X160158752Y-71460588D01*
X160158752Y-71460588D02*
X159920657Y-71460588D01*
X159920657Y-71460588D02*
X159825419Y-71412969D01*
X159825419Y-71412969D02*
X159777800Y-71365350D01*
X159777800Y-71365350D02*
X159730180Y-71270112D01*
X159730180Y-71270112D02*
X159730180Y-70984398D01*
X159730180Y-70984398D02*
X159777800Y-70889160D01*
X159777800Y-70889160D02*
X159825419Y-70841541D01*
X160730180Y-71746303D02*
X159730180Y-72079636D01*
X159730180Y-72079636D02*
X160730180Y-72412969D01*
X160730180Y-72651065D02*
X160730180Y-73270112D01*
X160730180Y-73270112D02*
X160349228Y-72936779D01*
X160349228Y-72936779D02*
X160349228Y-73079636D01*
X160349228Y-73079636D02*
X160301609Y-73174874D01*
X160301609Y-73174874D02*
X160253990Y-73222493D01*
X160253990Y-73222493D02*
X160158752Y-73270112D01*
X160158752Y-73270112D02*
X159920657Y-73270112D01*
X159920657Y-73270112D02*
X159825419Y-73222493D01*
X159825419Y-73222493D02*
X159777800Y-73174874D01*
X159777800Y-73174874D02*
X159730180Y-73079636D01*
X159730180Y-73079636D02*
X159730180Y-72793922D01*
X159730180Y-72793922D02*
X159777800Y-72698684D01*
X159777800Y-72698684D02*
X159825419Y-72651065D01*
X159730180Y-74984398D02*
X159730180Y-74412970D01*
X159730180Y-74698684D02*
X160730180Y-74698684D01*
X160730180Y-74698684D02*
X160587323Y-74603446D01*
X160587323Y-74603446D02*
X160492085Y-74508208D01*
X160492085Y-74508208D02*
X160444466Y-74412970D01*
X149570180Y-71036779D02*
X150570180Y-71036779D01*
X150570180Y-71036779D02*
X150570180Y-71274874D01*
X150570180Y-71274874D02*
X150522561Y-71417731D01*
X150522561Y-71417731D02*
X150427323Y-71512969D01*
X150427323Y-71512969D02*
X150332085Y-71560588D01*
X150332085Y-71560588D02*
X150141609Y-71608207D01*
X150141609Y-71608207D02*
X149998752Y-71608207D01*
X149998752Y-71608207D02*
X149808276Y-71560588D01*
X149808276Y-71560588D02*
X149713038Y-71512969D01*
X149713038Y-71512969D02*
X149617800Y-71417731D01*
X149617800Y-71417731D02*
X149570180Y-71274874D01*
X149570180Y-71274874D02*
X149570180Y-71036779D01*
X150093990Y-72036779D02*
X150093990Y-72370112D01*
X149570180Y-72512969D02*
X149570180Y-72036779D01*
X149570180Y-72036779D02*
X150570180Y-72036779D01*
X150570180Y-72036779D02*
X150570180Y-72512969D01*
X150570180Y-72798684D02*
X150570180Y-73370112D01*
X149570180Y-73084398D02*
X150570180Y-73084398D01*
X150570180Y-74941541D02*
X150570180Y-74465351D01*
X150570180Y-74465351D02*
X150093990Y-74417732D01*
X150093990Y-74417732D02*
X150141609Y-74465351D01*
X150141609Y-74465351D02*
X150189228Y-74560589D01*
X150189228Y-74560589D02*
X150189228Y-74798684D01*
X150189228Y-74798684D02*
X150141609Y-74893922D01*
X150141609Y-74893922D02*
X150093990Y-74941541D01*
X150093990Y-74941541D02*
X149998752Y-74989160D01*
X149998752Y-74989160D02*
X149760657Y-74989160D01*
X149760657Y-74989160D02*
X149665419Y-74941541D01*
X149665419Y-74941541D02*
X149617800Y-74893922D01*
X149617800Y-74893922D02*
X149570180Y-74798684D01*
X149570180Y-74798684D02*
X149570180Y-74560589D01*
X149570180Y-74560589D02*
X149617800Y-74465351D01*
X149617800Y-74465351D02*
X149665419Y-74417732D01*
X140489561Y-71160588D02*
X140537180Y-71065350D01*
X140537180Y-71065350D02*
X140537180Y-70922493D01*
X140537180Y-70922493D02*
X140489561Y-70779636D01*
X140489561Y-70779636D02*
X140394323Y-70684398D01*
X140394323Y-70684398D02*
X140299085Y-70636779D01*
X140299085Y-70636779D02*
X140108609Y-70589160D01*
X140108609Y-70589160D02*
X139965752Y-70589160D01*
X139965752Y-70589160D02*
X139775276Y-70636779D01*
X139775276Y-70636779D02*
X139680038Y-70684398D01*
X139680038Y-70684398D02*
X139584800Y-70779636D01*
X139584800Y-70779636D02*
X139537180Y-70922493D01*
X139537180Y-70922493D02*
X139537180Y-71017731D01*
X139537180Y-71017731D02*
X139584800Y-71160588D01*
X139584800Y-71160588D02*
X139632419Y-71208207D01*
X139632419Y-71208207D02*
X139965752Y-71208207D01*
X139965752Y-71208207D02*
X139965752Y-71017731D01*
X139537180Y-71636779D02*
X140537180Y-71636779D01*
X140537180Y-71636779D02*
X139537180Y-72208207D01*
X139537180Y-72208207D02*
X140537180Y-72208207D01*
X139537180Y-72684398D02*
X140537180Y-72684398D01*
X140537180Y-72684398D02*
X140537180Y-72922493D01*
X140537180Y-72922493D02*
X140489561Y-73065350D01*
X140489561Y-73065350D02*
X140394323Y-73160588D01*
X140394323Y-73160588D02*
X140299085Y-73208207D01*
X140299085Y-73208207D02*
X140108609Y-73255826D01*
X140108609Y-73255826D02*
X139965752Y-73255826D01*
X139965752Y-73255826D02*
X139775276Y-73208207D01*
X139775276Y-73208207D02*
X139680038Y-73160588D01*
X139680038Y-73160588D02*
X139584800Y-73065350D01*
X139584800Y-73065350D02*
X139537180Y-72922493D01*
X139537180Y-72922493D02*
X139537180Y-72684398D01*
X139537180Y-74493922D02*
X139537180Y-74684398D01*
X139537180Y-74684398D02*
X139584800Y-74779636D01*
X139584800Y-74779636D02*
X139632419Y-74827255D01*
X139632419Y-74827255D02*
X139775276Y-74922493D01*
X139775276Y-74922493D02*
X139965752Y-74970112D01*
X139965752Y-74970112D02*
X140346704Y-74970112D01*
X140346704Y-74970112D02*
X140441942Y-74922493D01*
X140441942Y-74922493D02*
X140489561Y-74874874D01*
X140489561Y-74874874D02*
X140537180Y-74779636D01*
X140537180Y-74779636D02*
X140537180Y-74589160D01*
X140537180Y-74589160D02*
X140489561Y-74493922D01*
X140489561Y-74493922D02*
X140441942Y-74446303D01*
X140441942Y-74446303D02*
X140346704Y-74398684D01*
X140346704Y-74398684D02*
X140108609Y-74398684D01*
X140108609Y-74398684D02*
X140013371Y-74446303D01*
X140013371Y-74446303D02*
X139965752Y-74493922D01*
X139965752Y-74493922D02*
X139918133Y-74589160D01*
X139918133Y-74589160D02*
X139918133Y-74779636D01*
X139918133Y-74779636D02*
X139965752Y-74874874D01*
X139965752Y-74874874D02*
X140013371Y-74922493D01*
X140013371Y-74922493D02*
X140108609Y-74970112D01*
X137822561Y-70960588D02*
X137870180Y-70865350D01*
X137870180Y-70865350D02*
X137870180Y-70722493D01*
X137870180Y-70722493D02*
X137822561Y-70579636D01*
X137822561Y-70579636D02*
X137727323Y-70484398D01*
X137727323Y-70484398D02*
X137632085Y-70436779D01*
X137632085Y-70436779D02*
X137441609Y-70389160D01*
X137441609Y-70389160D02*
X137298752Y-70389160D01*
X137298752Y-70389160D02*
X137108276Y-70436779D01*
X137108276Y-70436779D02*
X137013038Y-70484398D01*
X137013038Y-70484398D02*
X136917800Y-70579636D01*
X136917800Y-70579636D02*
X136870180Y-70722493D01*
X136870180Y-70722493D02*
X136870180Y-70817731D01*
X136870180Y-70817731D02*
X136917800Y-70960588D01*
X136917800Y-70960588D02*
X136965419Y-71008207D01*
X136965419Y-71008207D02*
X137298752Y-71008207D01*
X137298752Y-71008207D02*
X137298752Y-70817731D01*
X136870180Y-71436779D02*
X137870180Y-71436779D01*
X137870180Y-71436779D02*
X136870180Y-72008207D01*
X136870180Y-72008207D02*
X137870180Y-72008207D01*
X136870180Y-72484398D02*
X137870180Y-72484398D01*
X137870180Y-72484398D02*
X137870180Y-72722493D01*
X137870180Y-72722493D02*
X137822561Y-72865350D01*
X137822561Y-72865350D02*
X137727323Y-72960588D01*
X137727323Y-72960588D02*
X137632085Y-73008207D01*
X137632085Y-73008207D02*
X137441609Y-73055826D01*
X137441609Y-73055826D02*
X137298752Y-73055826D01*
X137298752Y-73055826D02*
X137108276Y-73008207D01*
X137108276Y-73008207D02*
X137013038Y-72960588D01*
X137013038Y-72960588D02*
X136917800Y-72865350D01*
X136917800Y-72865350D02*
X136870180Y-72722493D01*
X136870180Y-72722493D02*
X136870180Y-72484398D01*
X136870180Y-74008207D02*
X136870180Y-73436779D01*
X136870180Y-73722493D02*
X137870180Y-73722493D01*
X137870180Y-73722493D02*
X137727323Y-73627255D01*
X137727323Y-73627255D02*
X137632085Y-73532017D01*
X137632085Y-73532017D02*
X137584466Y-73436779D01*
X137870180Y-74627255D02*
X137870180Y-74722493D01*
X137870180Y-74722493D02*
X137822561Y-74817731D01*
X137822561Y-74817731D02*
X137774942Y-74865350D01*
X137774942Y-74865350D02*
X137679704Y-74912969D01*
X137679704Y-74912969D02*
X137489228Y-74960588D01*
X137489228Y-74960588D02*
X137251133Y-74960588D01*
X137251133Y-74960588D02*
X137060657Y-74912969D01*
X137060657Y-74912969D02*
X136965419Y-74865350D01*
X136965419Y-74865350D02*
X136917800Y-74817731D01*
X136917800Y-74817731D02*
X136870180Y-74722493D01*
X136870180Y-74722493D02*
X136870180Y-74627255D01*
X136870180Y-74627255D02*
X136917800Y-74532017D01*
X136917800Y-74532017D02*
X136965419Y-74484398D01*
X136965419Y-74484398D02*
X137060657Y-74436779D01*
X137060657Y-74436779D02*
X137251133Y-74389160D01*
X137251133Y-74389160D02*
X137489228Y-74389160D01*
X137489228Y-74389160D02*
X137679704Y-74436779D01*
X137679704Y-74436779D02*
X137774942Y-74484398D01*
X137774942Y-74484398D02*
X137822561Y-74532017D01*
X137822561Y-74532017D02*
X137870180Y-74627255D01*
X154777180Y-72308207D02*
X155253371Y-71974874D01*
X154777180Y-71736779D02*
X155777180Y-71736779D01*
X155777180Y-71736779D02*
X155777180Y-72117731D01*
X155777180Y-72117731D02*
X155729561Y-72212969D01*
X155729561Y-72212969D02*
X155681942Y-72260588D01*
X155681942Y-72260588D02*
X155586704Y-72308207D01*
X155586704Y-72308207D02*
X155443847Y-72308207D01*
X155443847Y-72308207D02*
X155348609Y-72260588D01*
X155348609Y-72260588D02*
X155300990Y-72212969D01*
X155300990Y-72212969D02*
X155253371Y-72117731D01*
X155253371Y-72117731D02*
X155253371Y-71736779D01*
X155777180Y-72641541D02*
X154777180Y-73308207D01*
X155777180Y-73308207D02*
X154777180Y-72641541D01*
X155777180Y-74355827D02*
X155777180Y-74974874D01*
X155777180Y-74974874D02*
X155396228Y-74641541D01*
X155396228Y-74641541D02*
X155396228Y-74784398D01*
X155396228Y-74784398D02*
X155348609Y-74879636D01*
X155348609Y-74879636D02*
X155300990Y-74927255D01*
X155300990Y-74927255D02*
X155205752Y-74974874D01*
X155205752Y-74974874D02*
X154967657Y-74974874D01*
X154967657Y-74974874D02*
X154872419Y-74927255D01*
X154872419Y-74927255D02*
X154824800Y-74879636D01*
X154824800Y-74879636D02*
X154777180Y-74784398D01*
X154777180Y-74784398D02*
X154777180Y-74498684D01*
X154777180Y-74498684D02*
X154824800Y-74403446D01*
X154824800Y-74403446D02*
X154872419Y-74355827D01*
X147077800Y-70789160D02*
X147030180Y-70932017D01*
X147030180Y-70932017D02*
X147030180Y-71170112D01*
X147030180Y-71170112D02*
X147077800Y-71265350D01*
X147077800Y-71265350D02*
X147125419Y-71312969D01*
X147125419Y-71312969D02*
X147220657Y-71360588D01*
X147220657Y-71360588D02*
X147315895Y-71360588D01*
X147315895Y-71360588D02*
X147411133Y-71312969D01*
X147411133Y-71312969D02*
X147458752Y-71265350D01*
X147458752Y-71265350D02*
X147506371Y-71170112D01*
X147506371Y-71170112D02*
X147553990Y-70979636D01*
X147553990Y-70979636D02*
X147601609Y-70884398D01*
X147601609Y-70884398D02*
X147649228Y-70836779D01*
X147649228Y-70836779D02*
X147744466Y-70789160D01*
X147744466Y-70789160D02*
X147839704Y-70789160D01*
X147839704Y-70789160D02*
X147934942Y-70836779D01*
X147934942Y-70836779D02*
X147982561Y-70884398D01*
X147982561Y-70884398D02*
X148030180Y-70979636D01*
X148030180Y-70979636D02*
X148030180Y-71217731D01*
X148030180Y-71217731D02*
X147982561Y-71360588D01*
X147030180Y-71789160D02*
X148030180Y-71789160D01*
X148030180Y-71789160D02*
X148030180Y-72027255D01*
X148030180Y-72027255D02*
X147982561Y-72170112D01*
X147982561Y-72170112D02*
X147887323Y-72265350D01*
X147887323Y-72265350D02*
X147792085Y-72312969D01*
X147792085Y-72312969D02*
X147601609Y-72360588D01*
X147601609Y-72360588D02*
X147458752Y-72360588D01*
X147458752Y-72360588D02*
X147268276Y-72312969D01*
X147268276Y-72312969D02*
X147173038Y-72265350D01*
X147173038Y-72265350D02*
X147077800Y-72170112D01*
X147077800Y-72170112D02*
X147030180Y-72027255D01*
X147030180Y-72027255D02*
X147030180Y-71789160D01*
X147315895Y-72741541D02*
X147315895Y-73217731D01*
X147030180Y-72646303D02*
X148030180Y-72979636D01*
X148030180Y-72979636D02*
X147030180Y-73312969D01*
X148030180Y-74836779D02*
X148030180Y-74646303D01*
X148030180Y-74646303D02*
X147982561Y-74551065D01*
X147982561Y-74551065D02*
X147934942Y-74503446D01*
X147934942Y-74503446D02*
X147792085Y-74408208D01*
X147792085Y-74408208D02*
X147601609Y-74360589D01*
X147601609Y-74360589D02*
X147220657Y-74360589D01*
X147220657Y-74360589D02*
X147125419Y-74408208D01*
X147125419Y-74408208D02*
X147077800Y-74455827D01*
X147077800Y-74455827D02*
X147030180Y-74551065D01*
X147030180Y-74551065D02*
X147030180Y-74741541D01*
X147030180Y-74741541D02*
X147077800Y-74836779D01*
X147077800Y-74836779D02*
X147125419Y-74884398D01*
X147125419Y-74884398D02*
X147220657Y-74932017D01*
X147220657Y-74932017D02*
X147458752Y-74932017D01*
X147458752Y-74932017D02*
X147553990Y-74884398D01*
X147553990Y-74884398D02*
X147601609Y-74836779D01*
X147601609Y-74836779D02*
X147649228Y-74741541D01*
X147649228Y-74741541D02*
X147649228Y-74551065D01*
X147649228Y-74551065D02*
X147601609Y-74455827D01*
X147601609Y-74455827D02*
X147553990Y-74408208D01*
X147553990Y-74408208D02*
X147458752Y-74360589D01*
X153110180Y-71693922D02*
X153110180Y-72265350D01*
X152110180Y-71979636D02*
X153110180Y-71979636D01*
X153110180Y-72503446D02*
X152110180Y-73170112D01*
X153110180Y-73170112D02*
X152110180Y-72503446D01*
X152776847Y-74741541D02*
X152110180Y-74741541D01*
X153157800Y-74503446D02*
X152443514Y-74265351D01*
X152443514Y-74265351D02*
X152443514Y-74884398D01*
X142950180Y-72312969D02*
X142950180Y-71836779D01*
X142950180Y-71836779D02*
X142473990Y-71789160D01*
X142473990Y-71789160D02*
X142521609Y-71836779D01*
X142521609Y-71836779D02*
X142569228Y-71932017D01*
X142569228Y-71932017D02*
X142569228Y-72170112D01*
X142569228Y-72170112D02*
X142521609Y-72265350D01*
X142521609Y-72265350D02*
X142473990Y-72312969D01*
X142473990Y-72312969D02*
X142378752Y-72360588D01*
X142378752Y-72360588D02*
X142140657Y-72360588D01*
X142140657Y-72360588D02*
X142045419Y-72312969D01*
X142045419Y-72312969D02*
X141997800Y-72265350D01*
X141997800Y-72265350D02*
X141950180Y-72170112D01*
X141950180Y-72170112D02*
X141950180Y-71932017D01*
X141950180Y-71932017D02*
X141997800Y-71836779D01*
X141997800Y-71836779D02*
X142045419Y-71789160D01*
X142950180Y-72646303D02*
X141950180Y-72979636D01*
X141950180Y-72979636D02*
X142950180Y-73312969D01*
X142521609Y-74551065D02*
X142569228Y-74455827D01*
X142569228Y-74455827D02*
X142616847Y-74408208D01*
X142616847Y-74408208D02*
X142712085Y-74360589D01*
X142712085Y-74360589D02*
X142759704Y-74360589D01*
X142759704Y-74360589D02*
X142854942Y-74408208D01*
X142854942Y-74408208D02*
X142902561Y-74455827D01*
X142902561Y-74455827D02*
X142950180Y-74551065D01*
X142950180Y-74551065D02*
X142950180Y-74741541D01*
X142950180Y-74741541D02*
X142902561Y-74836779D01*
X142902561Y-74836779D02*
X142854942Y-74884398D01*
X142854942Y-74884398D02*
X142759704Y-74932017D01*
X142759704Y-74932017D02*
X142712085Y-74932017D01*
X142712085Y-74932017D02*
X142616847Y-74884398D01*
X142616847Y-74884398D02*
X142569228Y-74836779D01*
X142569228Y-74836779D02*
X142521609Y-74741541D01*
X142521609Y-74741541D02*
X142521609Y-74551065D01*
X142521609Y-74551065D02*
X142473990Y-74455827D01*
X142473990Y-74455827D02*
X142426371Y-74408208D01*
X142426371Y-74408208D02*
X142331133Y-74360589D01*
X142331133Y-74360589D02*
X142140657Y-74360589D01*
X142140657Y-74360589D02*
X142045419Y-74408208D01*
X142045419Y-74408208D02*
X141997800Y-74455827D01*
X141997800Y-74455827D02*
X141950180Y-74551065D01*
X141950180Y-74551065D02*
X141950180Y-74741541D01*
X141950180Y-74741541D02*
X141997800Y-74836779D01*
X141997800Y-74836779D02*
X142045419Y-74884398D01*
X142045419Y-74884398D02*
X142140657Y-74932017D01*
X142140657Y-74932017D02*
X142331133Y-74932017D01*
X142331133Y-74932017D02*
X142426371Y-74884398D01*
X142426371Y-74884398D02*
X142473990Y-74836779D01*
X142473990Y-74836779D02*
X142521609Y-74741541D01*
X158094942Y-74389160D02*
X158142561Y-74436779D01*
X158142561Y-74436779D02*
X158190180Y-74532017D01*
X158190180Y-74532017D02*
X158190180Y-74770112D01*
X158190180Y-74770112D02*
X158142561Y-74865350D01*
X158142561Y-74865350D02*
X158094942Y-74912969D01*
X158094942Y-74912969D02*
X157999704Y-74960588D01*
X157999704Y-74960588D02*
X157904466Y-74960588D01*
X157904466Y-74960588D02*
X157761609Y-74912969D01*
X157761609Y-74912969D02*
X157190180Y-74341541D01*
X157190180Y-74341541D02*
X157190180Y-74960588D01*
X162185819Y-76914333D02*
X162900104Y-76914333D01*
X162900104Y-76914333D02*
X163042961Y-76961952D01*
X163042961Y-76961952D02*
X163138200Y-77057190D01*
X163138200Y-77057190D02*
X163185819Y-77200047D01*
X163185819Y-77200047D02*
X163185819Y-77295285D01*
X162281057Y-76485761D02*
X162233438Y-76438142D01*
X162233438Y-76438142D02*
X162185819Y-76342904D01*
X162185819Y-76342904D02*
X162185819Y-76104809D01*
X162185819Y-76104809D02*
X162233438Y-76009571D01*
X162233438Y-76009571D02*
X162281057Y-75961952D01*
X162281057Y-75961952D02*
X162376295Y-75914333D01*
X162376295Y-75914333D02*
X162471533Y-75914333D01*
X162471533Y-75914333D02*
X162614390Y-75961952D01*
X162614390Y-75961952D02*
X163185819Y-76533380D01*
X163185819Y-76533380D02*
X163185819Y-75914333D01*
X141666666Y-64954819D02*
X141666666Y-65669104D01*
X141666666Y-65669104D02*
X141619047Y-65811961D01*
X141619047Y-65811961D02*
X141523809Y-65907200D01*
X141523809Y-65907200D02*
X141380952Y-65954819D01*
X141380952Y-65954819D02*
X141285714Y-65954819D01*
X142666666Y-65954819D02*
X142095238Y-65954819D01*
X142380952Y-65954819D02*
X142380952Y-64954819D01*
X142380952Y-64954819D02*
X142285714Y-65097676D01*
X142285714Y-65097676D02*
X142190476Y-65192914D01*
X142190476Y-65192914D02*
X142095238Y-65240533D01*
D11*
%TO.C,J2*%
X136211000Y-75251000D02*
X136211000Y-77911000D01*
X159130999Y-75251000D02*
X136211000Y-75251000D01*
X159130999Y-75251000D02*
X159130999Y-77911000D01*
X159130999Y-77911000D02*
X136211000Y-77911000D01*
X160401000Y-75251000D02*
X161731000Y-75251000D01*
X161731000Y-75251000D02*
X161731000Y-76581000D01*
%TD*%
M02*
