G04 #@! TF.GenerationSoftware,KiCad,Pcbnew,(6.0.0-0)*
G04 #@! TF.CreationDate,2022-06-16T08:42:26-04:00*
G04 #@! TF.ProjectId,attiny-ezfan2,61747469-6e79-42d6-957a-66616e322e6b,rev?*
G04 #@! TF.SameCoordinates,Original*
G04 #@! TF.FileFunction,Copper,L2,Bot*
G04 #@! TF.FilePolarity,Positive*
%FSLAX46Y46*%
G04 Gerber Fmt 4.6, Leading zero omitted, Abs format (unit mm)*
G04 Created by KiCad (PCBNEW (6.0.0-0)) date 2022-06-16 08:42:26*
%MOMM*%
%LPD*%
G01*
G04 APERTURE LIST*
G04 #@! TA.AperFunction,ComponentPad*
%ADD10C,1.700000*%
G04 #@! TD*
G04 #@! TA.AperFunction,ComponentPad*
%ADD11R,1.700000X1.700000*%
G04 #@! TD*
G04 #@! TA.AperFunction,ComponentPad*
%ADD12O,1.700000X1.700000*%
G04 #@! TD*
G04 #@! TA.AperFunction,ComponentPad*
%ADD13O,1.600000X1.600000*%
G04 #@! TD*
G04 #@! TA.AperFunction,ComponentPad*
%ADD14R,1.600000X1.600000*%
G04 #@! TD*
G04 #@! TA.AperFunction,Conductor*
%ADD15C,0.350000*%
G04 #@! TD*
G04 APERTURE END LIST*
D10*
G04 #@! TO.P,J1,1,Pin_1*
G04 #@! TO.N,+5V*
X143906000Y-107803000D03*
D11*
G04 #@! TO.P,J1,2,Pin_2*
G04 #@! TO.N,Net-(J1-Pad2)*
X143906000Y-110343000D03*
D12*
G04 #@! TO.P,J1,3,Pin_3*
G04 #@! TO.N,Net-(J1-Pad3)*
X146446000Y-107803000D03*
G04 #@! TO.P,J1,4,Pin_4*
G04 #@! TO.N,Net-(J1-Pad4)*
X146446000Y-110343000D03*
G04 #@! TO.P,J1,5,Pin_5*
G04 #@! TO.N,GND*
X148986000Y-107803000D03*
G04 #@! TO.P,J1,6,Pin_6*
G04 #@! TO.N,Net-(J1-Pad6)*
X148986000Y-110343000D03*
G04 #@! TD*
G04 #@! TO.P,J2,7,Pin_7*
G04 #@! TO.N,Net-(J1-Pad3)*
X152527000Y-110744000D03*
G04 #@! TO.P,J2,6,Pin_6*
G04 #@! TO.N,Net-(J1-Pad2)*
X152527000Y-108204000D03*
G04 #@! TO.P,J2,5,Pin_5*
G04 #@! TO.N,Net-(J1-Pad4)*
X152527000Y-105664000D03*
G04 #@! TO.P,J2,4,Pin_4*
G04 #@! TO.N,+5V*
X152527000Y-103124000D03*
G04 #@! TO.P,J2,3,Pin_3*
G04 #@! TO.N,GND*
X152527000Y-100584000D03*
G04 #@! TO.P,J2,2,Pin_2*
X152527000Y-98044000D03*
D11*
G04 #@! TO.P,J2,1,Pin_1*
G04 #@! TO.N,+5V*
X152527000Y-95504000D03*
G04 #@! TD*
D13*
G04 #@! TO.P,U1,8,VCC*
G04 #@! TO.N,+5V*
X149352000Y-96393000D03*
G04 #@! TO.P,U1,7,PB2*
G04 #@! TO.N,Net-(J1-Pad4)*
X149352000Y-98933000D03*
G04 #@! TO.P,U1,6,PB1*
G04 #@! TO.N,Net-(J1-Pad2)*
X149352000Y-101473000D03*
G04 #@! TO.P,U1,5,AREF/PB0*
G04 #@! TO.N,Net-(J1-Pad3)*
X149352000Y-104013000D03*
G04 #@! TO.P,U1,4,GND*
G04 #@! TO.N,GND*
X141732000Y-104013000D03*
G04 #@! TO.P,U1,3,XTAL2/PB4*
G04 #@! TO.N,Net-(J5-Pad1)*
X141732000Y-101473000D03*
G04 #@! TO.P,U1,2,XTAL1/PB3*
G04 #@! TO.N,Net-(J4-Pad1)*
X141732000Y-98933000D03*
D14*
G04 #@! TO.P,U1,1,~{RESET}/PB5*
G04 #@! TO.N,Net-(J1-Pad6)*
X141732000Y-96393000D03*
G04 #@! TD*
D11*
G04 #@! TO.P,J3,1,Pin_1*
G04 #@! TO.N,Net-(J1-Pad6)*
X138557000Y-96139000D03*
D12*
G04 #@! TO.P,J3,2,Pin_2*
G04 #@! TO.N,GND*
X138557000Y-98679000D03*
G04 #@! TO.P,J3,3,Pin_3*
G04 #@! TO.N,+5V*
X138557000Y-101219000D03*
G04 #@! TD*
D11*
G04 #@! TO.P,J5,1,Pin_1*
G04 #@! TO.N,Net-(J5-Pad1)*
X135001000Y-104790000D03*
D12*
G04 #@! TO.P,J5,2,Pin_2*
G04 #@! TO.N,GND*
X135001000Y-107330000D03*
G04 #@! TO.P,J5,3,Pin_3*
G04 #@! TO.N,+5V*
X135001000Y-109870000D03*
G04 #@! TD*
D11*
G04 #@! TO.P,J4,1,Pin_1*
G04 #@! TO.N,Net-(J4-Pad1)*
X135001000Y-96139000D03*
D12*
G04 #@! TO.P,J4,2,Pin_2*
G04 #@! TO.N,GND*
X135001000Y-98679000D03*
G04 #@! TO.P,J4,3,Pin_3*
G04 #@! TO.N,+5V*
X135001000Y-101219000D03*
G04 #@! TD*
D15*
G04 #@! TO.N,Net-(J1-Pad6)*
X148177721Y-110343000D02*
X146862232Y-109027511D01*
X146862232Y-109027511D02*
X145938790Y-109027511D01*
X145938790Y-109027511D02*
X145161000Y-108249721D01*
X145161000Y-108249721D02*
X145161000Y-99822000D01*
X148986000Y-110343000D02*
X148177721Y-110343000D01*
X145161000Y-99822000D02*
X141732000Y-96393000D01*
G04 #@! TO.N,Net-(J1-Pad3)*
X146319000Y-107803000D02*
X147046000Y-107803000D01*
X148270511Y-109027511D02*
X150810511Y-109027511D01*
X150810511Y-109027511D02*
X152527000Y-110744000D01*
X147046000Y-107803000D02*
X148270511Y-109027511D01*
G04 #@! TO.N,GND*
X135001000Y-107330000D02*
X136225511Y-106105489D01*
X136225511Y-106105489D02*
X136225511Y-99903511D01*
X136225511Y-99903511D02*
X135001000Y-98679000D01*
G04 #@! TO.N,+5V*
X149352000Y-96393000D02*
X148177489Y-97567511D01*
X148177489Y-97567511D02*
X148177489Y-99663489D01*
X148177489Y-99663489D02*
X148717000Y-100203000D01*
X149743010Y-100203000D02*
X152527000Y-102986990D01*
X148717000Y-100203000D02*
X149743010Y-100203000D01*
X152527000Y-102986990D02*
X152527000Y-103124000D01*
G04 #@! TO.N,Net-(J1-Pad2)*
X149352000Y-101473000D02*
X151302489Y-103423489D01*
X151302489Y-103423489D02*
X151302489Y-106979489D01*
X151302489Y-106979489D02*
X152527000Y-108204000D01*
G04 #@! TD*
G04 #@! TA.AperFunction,Conductor*
G04 #@! TO.N,GND*
G36*
X151110621Y-94508002D02*
G01*
X151157114Y-94561658D01*
X151168500Y-94614000D01*
X151168500Y-96402134D01*
X151175255Y-96464316D01*
X151226385Y-96600705D01*
X151313739Y-96717261D01*
X151430295Y-96804615D01*
X151438704Y-96807767D01*
X151438705Y-96807768D01*
X151547960Y-96848726D01*
X151604725Y-96891367D01*
X151629425Y-96957929D01*
X151614218Y-97027278D01*
X151594825Y-97053759D01*
X151471590Y-97182717D01*
X151465104Y-97190727D01*
X151345098Y-97366649D01*
X151340000Y-97375623D01*
X151250338Y-97568783D01*
X151246775Y-97578470D01*
X151191389Y-97778183D01*
X151192912Y-97786607D01*
X151205292Y-97790000D01*
X152655000Y-97790000D01*
X152723121Y-97810002D01*
X152769614Y-97863658D01*
X152781000Y-97916000D01*
X152781000Y-100712000D01*
X152760998Y-100780121D01*
X152707342Y-100826614D01*
X152655000Y-100838000D01*
X152399000Y-100838000D01*
X152330879Y-100817998D01*
X152284386Y-100764342D01*
X152273000Y-100712000D01*
X152273000Y-98316115D01*
X152268525Y-98300876D01*
X152267135Y-98299671D01*
X152259452Y-98298000D01*
X151210225Y-98298000D01*
X151196694Y-98301973D01*
X151195257Y-98311966D01*
X151225565Y-98446446D01*
X151228645Y-98456275D01*
X151308770Y-98653603D01*
X151313413Y-98662794D01*
X151424694Y-98844388D01*
X151430777Y-98852699D01*
X151570213Y-99013667D01*
X151577580Y-99020883D01*
X151741434Y-99156916D01*
X151749881Y-99162831D01*
X151819479Y-99203501D01*
X151868203Y-99255140D01*
X151881274Y-99324923D01*
X151854543Y-99390694D01*
X151814087Y-99424053D01*
X151805462Y-99428542D01*
X151796738Y-99434036D01*
X151626433Y-99561905D01*
X151618726Y-99568748D01*
X151471590Y-99722717D01*
X151465104Y-99730727D01*
X151345098Y-99906649D01*
X151340000Y-99915623D01*
X151250338Y-100108783D01*
X151246775Y-100118470D01*
X151189864Y-100323681D01*
X151187933Y-100333801D01*
X151182389Y-100385677D01*
X151155261Y-100451287D01*
X151096968Y-100491815D01*
X151026019Y-100494394D01*
X150968007Y-100461383D01*
X150402369Y-99895745D01*
X150368343Y-99833433D01*
X150373408Y-99762618D01*
X150388249Y-99734383D01*
X150489523Y-99589749D01*
X150491846Y-99584767D01*
X150491849Y-99584762D01*
X150583961Y-99387225D01*
X150583961Y-99387224D01*
X150586284Y-99382243D01*
X150601793Y-99324365D01*
X150644119Y-99166402D01*
X150644119Y-99166400D01*
X150645543Y-99161087D01*
X150665498Y-98933000D01*
X150645543Y-98704913D01*
X150634257Y-98662794D01*
X150587707Y-98489067D01*
X150587706Y-98489065D01*
X150586284Y-98483757D01*
X150564195Y-98436386D01*
X150491849Y-98281238D01*
X150491846Y-98281233D01*
X150489523Y-98276251D01*
X150358198Y-98088700D01*
X150196300Y-97926802D01*
X150191792Y-97923645D01*
X150191789Y-97923643D01*
X150106121Y-97863658D01*
X150008749Y-97795477D01*
X150003767Y-97793154D01*
X150003762Y-97793151D01*
X149969543Y-97777195D01*
X149916258Y-97730278D01*
X149896797Y-97662001D01*
X149917339Y-97594041D01*
X149969543Y-97548805D01*
X150003762Y-97532849D01*
X150003767Y-97532846D01*
X150008749Y-97530523D01*
X150150458Y-97431297D01*
X150191789Y-97402357D01*
X150191792Y-97402355D01*
X150196300Y-97399198D01*
X150358198Y-97237300D01*
X150362269Y-97231487D01*
X150445224Y-97113014D01*
X150489523Y-97049749D01*
X150491846Y-97044767D01*
X150491849Y-97044762D01*
X150583961Y-96847225D01*
X150583961Y-96847224D01*
X150586284Y-96842243D01*
X150596367Y-96804615D01*
X150644119Y-96626402D01*
X150644120Y-96626396D01*
X150645543Y-96621087D01*
X150665498Y-96393000D01*
X150645543Y-96164913D01*
X150586284Y-95943757D01*
X150583961Y-95938775D01*
X150491849Y-95741238D01*
X150491846Y-95741233D01*
X150489523Y-95736251D01*
X150358198Y-95548700D01*
X150196300Y-95386802D01*
X150191792Y-95383645D01*
X150191789Y-95383643D01*
X150113611Y-95328902D01*
X150008749Y-95255477D01*
X150003767Y-95253154D01*
X150003762Y-95253151D01*
X149806225Y-95161039D01*
X149806224Y-95161039D01*
X149801243Y-95158716D01*
X149795935Y-95157294D01*
X149795933Y-95157293D01*
X149585402Y-95100881D01*
X149585400Y-95100881D01*
X149580087Y-95099457D01*
X149352000Y-95079502D01*
X149123913Y-95099457D01*
X149118600Y-95100881D01*
X149118598Y-95100881D01*
X148908067Y-95157293D01*
X148908065Y-95157294D01*
X148902757Y-95158716D01*
X148897776Y-95161039D01*
X148897775Y-95161039D01*
X148700238Y-95253151D01*
X148700233Y-95253154D01*
X148695251Y-95255477D01*
X148590389Y-95328902D01*
X148512211Y-95383643D01*
X148512208Y-95383645D01*
X148507700Y-95386802D01*
X148345802Y-95548700D01*
X148214477Y-95736251D01*
X148212154Y-95741233D01*
X148212151Y-95741238D01*
X148120039Y-95938775D01*
X148117716Y-95943757D01*
X148058457Y-96164913D01*
X148038502Y-96393000D01*
X148058457Y-96621087D01*
X148060515Y-96628766D01*
X148060489Y-96629852D01*
X148060836Y-96631819D01*
X148060441Y-96631889D01*
X148058830Y-96699742D01*
X148027905Y-96750481D01*
X147820456Y-96957929D01*
X147714023Y-97064362D01*
X147707758Y-97070215D01*
X147665819Y-97106801D01*
X147630423Y-97157166D01*
X147626511Y-97162431D01*
X147588554Y-97210839D01*
X147585428Y-97217763D01*
X147582818Y-97222072D01*
X147577447Y-97231487D01*
X147575062Y-97235935D01*
X147570694Y-97242150D01*
X147567935Y-97249227D01*
X147548347Y-97299468D01*
X147545795Y-97305540D01*
X147520475Y-97361616D01*
X147519089Y-97369093D01*
X147517579Y-97373913D01*
X147514607Y-97384346D01*
X147513359Y-97389207D01*
X147510600Y-97396283D01*
X147509609Y-97403813D01*
X147502571Y-97457273D01*
X147501539Y-97463789D01*
X147490328Y-97524278D01*
X147490765Y-97531858D01*
X147490765Y-97531859D01*
X147493780Y-97584153D01*
X147493989Y-97591405D01*
X147493989Y-99635444D01*
X147493697Y-99644013D01*
X147492760Y-99657765D01*
X147489913Y-99699523D01*
X147491218Y-99707000D01*
X147491218Y-99707003D01*
X147500491Y-99760136D01*
X147501454Y-99766660D01*
X147504707Y-99793542D01*
X147508844Y-99827724D01*
X147511531Y-99834834D01*
X147512735Y-99839737D01*
X147515603Y-99850223D01*
X147517050Y-99855015D01*
X147518355Y-99862493D01*
X147521407Y-99869445D01*
X147521407Y-99869446D01*
X147543084Y-99918830D01*
X147545575Y-99924935D01*
X147564634Y-99975371D01*
X147567320Y-99982478D01*
X147571620Y-99988735D01*
X147573956Y-99993203D01*
X147579214Y-100002649D01*
X147581796Y-100007015D01*
X147584851Y-100013974D01*
X147622312Y-100062793D01*
X147626175Y-100068112D01*
X147652772Y-100106810D01*
X147661023Y-100118815D01*
X147666692Y-100123866D01*
X147705812Y-100158721D01*
X147711087Y-100163702D01*
X148201146Y-100653761D01*
X148235172Y-100716073D01*
X148230107Y-100786888D01*
X148219741Y-100806610D01*
X148220383Y-100806981D01*
X148217633Y-100811744D01*
X148214477Y-100816251D01*
X148212154Y-100821233D01*
X148212151Y-100821238D01*
X148145781Y-100963570D01*
X148117716Y-101023757D01*
X148116294Y-101029065D01*
X148116293Y-101029067D01*
X148072943Y-101190851D01*
X148058457Y-101244913D01*
X148038502Y-101473000D01*
X148058457Y-101701087D01*
X148059881Y-101706400D01*
X148059881Y-101706402D01*
X148116161Y-101916438D01*
X148117716Y-101922243D01*
X148120039Y-101927224D01*
X148120039Y-101927225D01*
X148212151Y-102124762D01*
X148212154Y-102124767D01*
X148214477Y-102129749D01*
X148217634Y-102134257D01*
X148303250Y-102256529D01*
X148345802Y-102317300D01*
X148507700Y-102479198D01*
X148512208Y-102482355D01*
X148512211Y-102482357D01*
X148531770Y-102496052D01*
X148695251Y-102610523D01*
X148700233Y-102612846D01*
X148700238Y-102612849D01*
X148734457Y-102628805D01*
X148787742Y-102675722D01*
X148807203Y-102743999D01*
X148786661Y-102811959D01*
X148734457Y-102857195D01*
X148700238Y-102873151D01*
X148700233Y-102873154D01*
X148695251Y-102875477D01*
X148590389Y-102948902D01*
X148512211Y-103003643D01*
X148512208Y-103003645D01*
X148507700Y-103006802D01*
X148345802Y-103168700D01*
X148214477Y-103356251D01*
X148212154Y-103361233D01*
X148212151Y-103361238D01*
X148153866Y-103486233D01*
X148117716Y-103563757D01*
X148116294Y-103569065D01*
X148116293Y-103569067D01*
X148083006Y-103693295D01*
X148058457Y-103784913D01*
X148038502Y-104013000D01*
X148058457Y-104241087D01*
X148059881Y-104246400D01*
X148059881Y-104246402D01*
X148069031Y-104280548D01*
X148117716Y-104462243D01*
X148120039Y-104467224D01*
X148120039Y-104467225D01*
X148212151Y-104664762D01*
X148212154Y-104664767D01*
X148214477Y-104669749D01*
X148345802Y-104857300D01*
X148507700Y-105019198D01*
X148512208Y-105022355D01*
X148512211Y-105022357D01*
X148590389Y-105077098D01*
X148695251Y-105150523D01*
X148700233Y-105152846D01*
X148700238Y-105152849D01*
X148896765Y-105244490D01*
X148902757Y-105247284D01*
X148908065Y-105248706D01*
X148908067Y-105248707D01*
X149118598Y-105305119D01*
X149118600Y-105305119D01*
X149123913Y-105306543D01*
X149352000Y-105326498D01*
X149580087Y-105306543D01*
X149585400Y-105305119D01*
X149585402Y-105305119D01*
X149795933Y-105248707D01*
X149795935Y-105248706D01*
X149801243Y-105247284D01*
X149807235Y-105244490D01*
X150003762Y-105152849D01*
X150003767Y-105152846D01*
X150008749Y-105150523D01*
X150113611Y-105077098D01*
X150191789Y-105022357D01*
X150191792Y-105022355D01*
X150196300Y-105019198D01*
X150358198Y-104857300D01*
X150389776Y-104812202D01*
X150445233Y-104767874D01*
X150515852Y-104760565D01*
X150579213Y-104792596D01*
X150615198Y-104853797D01*
X150618989Y-104884473D01*
X150618989Y-106951444D01*
X150618697Y-106960013D01*
X150618190Y-106967457D01*
X150614913Y-107015523D01*
X150616218Y-107023000D01*
X150616218Y-107023003D01*
X150625491Y-107076136D01*
X150626454Y-107082660D01*
X150633844Y-107143724D01*
X150636531Y-107150834D01*
X150637735Y-107155737D01*
X150640603Y-107166223D01*
X150642050Y-107171015D01*
X150643355Y-107178493D01*
X150646407Y-107185445D01*
X150646407Y-107185446D01*
X150668084Y-107234830D01*
X150670575Y-107240935D01*
X150689634Y-107291371D01*
X150692320Y-107298478D01*
X150696620Y-107304735D01*
X150698956Y-107309203D01*
X150704214Y-107318649D01*
X150706796Y-107323015D01*
X150709851Y-107329974D01*
X150747312Y-107378793D01*
X150751175Y-107384112D01*
X150777772Y-107422810D01*
X150786023Y-107434815D01*
X150791692Y-107439866D01*
X150830812Y-107474721D01*
X150836087Y-107479702D01*
X151161425Y-107805040D01*
X151195451Y-107867352D01*
X151193748Y-107927803D01*
X151187989Y-107948570D01*
X151164251Y-108170695D01*
X151164548Y-108175848D01*
X151164548Y-108175851D01*
X151168266Y-108240328D01*
X151152218Y-108309487D01*
X151101328Y-108358992D01*
X151031752Y-108373124D01*
X151016468Y-108370115D01*
X151016397Y-108370495D01*
X151010311Y-108369367D01*
X151005031Y-108367863D01*
X151004806Y-108367819D01*
X151004110Y-108367601D01*
X150993676Y-108364629D01*
X150988815Y-108363381D01*
X150981739Y-108360622D01*
X150920749Y-108352593D01*
X150914233Y-108351561D01*
X150861211Y-108341734D01*
X150853744Y-108340350D01*
X150846164Y-108340787D01*
X150846163Y-108340787D01*
X150793869Y-108343802D01*
X150786617Y-108344011D01*
X150410967Y-108344011D01*
X150342846Y-108324009D01*
X150296353Y-108270353D01*
X150286249Y-108200079D01*
X150290408Y-108181383D01*
X150316379Y-108095903D01*
X150318555Y-108085837D01*
X150319986Y-108074962D01*
X150317775Y-108060778D01*
X150304617Y-108057000D01*
X148858000Y-108057000D01*
X148789879Y-108036998D01*
X148743386Y-107983342D01*
X148732000Y-107931000D01*
X148732000Y-107530885D01*
X149240000Y-107530885D01*
X149244475Y-107546124D01*
X149245865Y-107547329D01*
X149253548Y-107549000D01*
X150304344Y-107549000D01*
X150317875Y-107545027D01*
X150319180Y-107535947D01*
X150277214Y-107368875D01*
X150273894Y-107359124D01*
X150188972Y-107163814D01*
X150184105Y-107154739D01*
X150068426Y-106975926D01*
X150062136Y-106967757D01*
X149918806Y-106810240D01*
X149911273Y-106803215D01*
X149744139Y-106671222D01*
X149735552Y-106665517D01*
X149549117Y-106562599D01*
X149539705Y-106558369D01*
X149338959Y-106487280D01*
X149328988Y-106484646D01*
X149257837Y-106471972D01*
X149244540Y-106473432D01*
X149240000Y-106487989D01*
X149240000Y-107530885D01*
X148732000Y-107530885D01*
X148732000Y-106486102D01*
X148728082Y-106472758D01*
X148713806Y-106470771D01*
X148675324Y-106476660D01*
X148665288Y-106479051D01*
X148462868Y-106545212D01*
X148453359Y-106549209D01*
X148264463Y-106647542D01*
X148255738Y-106653036D01*
X148085433Y-106780905D01*
X148077726Y-106787748D01*
X147930590Y-106941717D01*
X147924109Y-106949722D01*
X147819498Y-107103074D01*
X147764587Y-107148076D01*
X147694062Y-107156247D01*
X147630315Y-107124993D01*
X147609618Y-107100509D01*
X147528822Y-106975617D01*
X147528820Y-106975614D01*
X147526014Y-106971277D01*
X147375670Y-106806051D01*
X147371619Y-106802852D01*
X147371615Y-106802848D01*
X147204414Y-106670800D01*
X147204410Y-106670798D01*
X147200359Y-106667598D01*
X147164028Y-106647542D01*
X147148136Y-106638769D01*
X147004789Y-106559638D01*
X146999920Y-106557914D01*
X146999916Y-106557912D01*
X146799087Y-106486795D01*
X146799083Y-106486794D01*
X146794212Y-106485069D01*
X146789119Y-106484162D01*
X146789116Y-106484161D01*
X146579373Y-106446800D01*
X146579367Y-106446799D01*
X146574284Y-106445894D01*
X146500452Y-106444992D01*
X146356081Y-106443228D01*
X146356079Y-106443228D01*
X146350911Y-106443165D01*
X146130091Y-106476955D01*
X146027243Y-106510571D01*
X146009645Y-106516323D01*
X145938681Y-106518474D01*
X145877820Y-106481918D01*
X145846383Y-106418261D01*
X145844500Y-106396558D01*
X145844500Y-99850045D01*
X145844792Y-99841476D01*
X145848060Y-99793542D01*
X145848060Y-99793538D01*
X145848576Y-99785966D01*
X145846277Y-99772789D01*
X145837998Y-99725353D01*
X145837035Y-99718829D01*
X145830558Y-99665309D01*
X145829645Y-99657765D01*
X145826958Y-99650655D01*
X145825754Y-99645752D01*
X145822886Y-99635266D01*
X145821439Y-99630474D01*
X145820134Y-99622996D01*
X145803351Y-99584762D01*
X145795405Y-99566659D01*
X145792914Y-99560554D01*
X145773855Y-99510118D01*
X145773853Y-99510115D01*
X145771169Y-99503011D01*
X145766869Y-99496754D01*
X145764533Y-99492286D01*
X145759275Y-99482840D01*
X145756693Y-99478474D01*
X145753638Y-99471515D01*
X145716177Y-99422696D01*
X145712314Y-99417377D01*
X145681769Y-99372935D01*
X145677466Y-99366674D01*
X145632676Y-99326767D01*
X145627402Y-99321787D01*
X143077405Y-96771790D01*
X143043379Y-96709478D01*
X143040500Y-96682695D01*
X143040500Y-95544866D01*
X143033745Y-95482684D01*
X142982615Y-95346295D01*
X142895261Y-95229739D01*
X142778705Y-95142385D01*
X142642316Y-95091255D01*
X142580134Y-95084500D01*
X140883866Y-95084500D01*
X140821684Y-95091255D01*
X140685295Y-95142385D01*
X140568739Y-95229739D01*
X140481385Y-95346295D01*
X140430255Y-95482684D01*
X140423500Y-95544866D01*
X140423500Y-97241134D01*
X140430255Y-97303316D01*
X140481385Y-97439705D01*
X140568739Y-97556261D01*
X140685295Y-97643615D01*
X140821684Y-97694745D01*
X140832474Y-97695917D01*
X140834606Y-97696803D01*
X140837222Y-97697425D01*
X140837121Y-97697848D01*
X140898035Y-97723155D01*
X140938463Y-97781517D01*
X140940922Y-97852471D01*
X140904629Y-97913490D01*
X140895969Y-97920489D01*
X140892207Y-97923646D01*
X140887700Y-97926802D01*
X140725802Y-98088700D01*
X140594477Y-98276251D01*
X140592154Y-98281233D01*
X140592151Y-98281238D01*
X140519805Y-98436386D01*
X140497716Y-98483757D01*
X140496294Y-98489065D01*
X140496293Y-98489067D01*
X140449743Y-98662794D01*
X140438457Y-98704913D01*
X140418502Y-98933000D01*
X140438457Y-99161087D01*
X140439881Y-99166400D01*
X140439881Y-99166402D01*
X140482208Y-99324365D01*
X140497716Y-99382243D01*
X140500039Y-99387224D01*
X140500039Y-99387225D01*
X140592151Y-99584762D01*
X140592154Y-99584767D01*
X140594477Y-99589749D01*
X140647385Y-99665309D01*
X140718352Y-99766660D01*
X140725802Y-99777300D01*
X140887700Y-99939198D01*
X140892208Y-99942355D01*
X140892211Y-99942357D01*
X140949510Y-99982478D01*
X141075251Y-100070523D01*
X141080233Y-100072846D01*
X141080238Y-100072849D01*
X141114457Y-100088805D01*
X141167742Y-100135722D01*
X141187203Y-100203999D01*
X141166661Y-100271959D01*
X141114457Y-100317195D01*
X141080238Y-100333151D01*
X141080233Y-100333154D01*
X141075251Y-100335477D01*
X141032501Y-100365411D01*
X140892211Y-100463643D01*
X140892208Y-100463645D01*
X140887700Y-100466802D01*
X140725802Y-100628700D01*
X140722645Y-100633208D01*
X140722643Y-100633211D01*
X140667902Y-100711389D01*
X140594477Y-100816251D01*
X140592154Y-100821233D01*
X140592151Y-100821238D01*
X140525781Y-100963570D01*
X140497716Y-101023757D01*
X140496294Y-101029065D01*
X140496293Y-101029067D01*
X140452943Y-101190851D01*
X140438457Y-101244913D01*
X140418502Y-101473000D01*
X140438457Y-101701087D01*
X140439881Y-101706400D01*
X140439881Y-101706402D01*
X140496161Y-101916438D01*
X140497716Y-101922243D01*
X140500039Y-101927224D01*
X140500039Y-101927225D01*
X140592151Y-102124762D01*
X140592154Y-102124767D01*
X140594477Y-102129749D01*
X140597634Y-102134257D01*
X140683250Y-102256529D01*
X140725802Y-102317300D01*
X140887700Y-102479198D01*
X140892208Y-102482355D01*
X140892211Y-102482357D01*
X140911770Y-102496052D01*
X141075251Y-102610523D01*
X141080233Y-102612846D01*
X141080238Y-102612849D01*
X141115049Y-102629081D01*
X141168334Y-102675998D01*
X141187795Y-102744275D01*
X141167253Y-102812235D01*
X141115049Y-102857471D01*
X141080489Y-102873586D01*
X141070993Y-102879069D01*
X140892533Y-103004028D01*
X140884125Y-103011084D01*
X140730084Y-103165125D01*
X140723028Y-103173533D01*
X140598069Y-103351993D01*
X140592586Y-103361489D01*
X140500510Y-103558947D01*
X140496764Y-103569239D01*
X140450606Y-103741503D01*
X140450942Y-103755599D01*
X140458884Y-103759000D01*
X142999967Y-103759000D01*
X143013498Y-103755027D01*
X143014727Y-103746478D01*
X142967236Y-103569239D01*
X142963490Y-103558947D01*
X142871414Y-103361489D01*
X142865931Y-103351993D01*
X142740972Y-103173533D01*
X142733916Y-103165125D01*
X142579875Y-103011084D01*
X142571467Y-103004028D01*
X142393007Y-102879069D01*
X142383511Y-102873586D01*
X142348951Y-102857471D01*
X142295666Y-102810554D01*
X142276205Y-102742277D01*
X142296747Y-102674317D01*
X142348951Y-102629081D01*
X142383762Y-102612849D01*
X142383767Y-102612846D01*
X142388749Y-102610523D01*
X142552230Y-102496052D01*
X142571789Y-102482357D01*
X142571792Y-102482355D01*
X142576300Y-102479198D01*
X142738198Y-102317300D01*
X142780751Y-102256529D01*
X142866366Y-102134257D01*
X142869523Y-102129749D01*
X142871846Y-102124767D01*
X142871849Y-102124762D01*
X142963961Y-101927225D01*
X142963961Y-101927224D01*
X142966284Y-101922243D01*
X142967840Y-101916438D01*
X143024119Y-101706402D01*
X143024119Y-101706400D01*
X143025543Y-101701087D01*
X143045498Y-101473000D01*
X143025543Y-101244913D01*
X143011057Y-101190851D01*
X142967707Y-101029067D01*
X142967706Y-101029065D01*
X142966284Y-101023757D01*
X142938219Y-100963570D01*
X142871849Y-100821238D01*
X142871846Y-100821233D01*
X142869523Y-100816251D01*
X142796098Y-100711389D01*
X142741357Y-100633211D01*
X142741355Y-100633208D01*
X142738198Y-100628700D01*
X142576300Y-100466802D01*
X142571792Y-100463645D01*
X142571789Y-100463643D01*
X142431499Y-100365411D01*
X142388749Y-100335477D01*
X142383767Y-100333154D01*
X142383762Y-100333151D01*
X142349543Y-100317195D01*
X142296258Y-100270278D01*
X142276797Y-100202001D01*
X142297339Y-100134041D01*
X142349543Y-100088805D01*
X142383762Y-100072849D01*
X142383767Y-100072846D01*
X142388749Y-100070523D01*
X142514490Y-99982478D01*
X142571789Y-99942357D01*
X142571792Y-99942355D01*
X142576300Y-99939198D01*
X142738198Y-99777300D01*
X142745649Y-99766660D01*
X142816615Y-99665309D01*
X142869523Y-99589749D01*
X142871846Y-99584767D01*
X142871849Y-99584762D01*
X142963961Y-99387225D01*
X142963961Y-99387224D01*
X142966284Y-99382243D01*
X142981793Y-99324365D01*
X143024119Y-99166402D01*
X143024119Y-99166400D01*
X143025543Y-99161087D01*
X143042856Y-98963199D01*
X143068720Y-98897081D01*
X143126223Y-98855442D01*
X143197110Y-98851501D01*
X143257472Y-98885086D01*
X144440595Y-100068209D01*
X144474621Y-100130521D01*
X144477500Y-100157304D01*
X144477500Y-106385853D01*
X144457498Y-106453974D01*
X144403842Y-106500467D01*
X144333568Y-106510571D01*
X144309441Y-106504626D01*
X144259091Y-106486796D01*
X144259083Y-106486794D01*
X144254212Y-106485069D01*
X144249119Y-106484162D01*
X144249116Y-106484161D01*
X144039373Y-106446800D01*
X144039367Y-106446799D01*
X144034284Y-106445894D01*
X143960452Y-106444992D01*
X143816081Y-106443228D01*
X143816079Y-106443228D01*
X143810911Y-106443165D01*
X143590091Y-106476955D01*
X143377756Y-106546357D01*
X143179607Y-106649507D01*
X143175474Y-106652610D01*
X143175471Y-106652612D01*
X143018021Y-106770829D01*
X143000965Y-106783635D01*
X142846629Y-106945138D01*
X142843715Y-106949410D01*
X142843714Y-106949411D01*
X142831404Y-106967457D01*
X142720743Y-107129680D01*
X142692023Y-107191552D01*
X142637412Y-107309203D01*
X142626688Y-107332305D01*
X142566989Y-107547570D01*
X142543251Y-107769695D01*
X142543548Y-107774848D01*
X142543548Y-107774851D01*
X142552552Y-107931000D01*
X142556110Y-107992715D01*
X142557247Y-107997761D01*
X142557248Y-107997767D01*
X142570597Y-108057000D01*
X142605222Y-108210639D01*
X142689266Y-108417616D01*
X142738918Y-108498641D01*
X142771659Y-108552069D01*
X142805987Y-108608088D01*
X142952250Y-108776938D01*
X142956230Y-108780242D01*
X142960981Y-108784187D01*
X143000616Y-108843090D01*
X143002113Y-108914071D01*
X142964997Y-108974593D01*
X142924725Y-108999112D01*
X142869196Y-109019929D01*
X142809295Y-109042385D01*
X142692739Y-109129739D01*
X142605385Y-109246295D01*
X142554255Y-109382684D01*
X142547500Y-109444866D01*
X142547500Y-111241134D01*
X142554255Y-111303316D01*
X142605385Y-111439705D01*
X142692739Y-111556261D01*
X142740212Y-111591840D01*
X142769328Y-111613661D01*
X142809295Y-111643615D01*
X142817700Y-111646766D01*
X142824484Y-111650480D01*
X142874630Y-111700738D01*
X142889644Y-111770129D01*
X142864759Y-111836622D01*
X142807875Y-111879105D01*
X142763975Y-111887000D01*
X134882612Y-111887000D01*
X134814491Y-111866998D01*
X134793517Y-111850096D01*
X134402905Y-111459485D01*
X134368880Y-111397172D01*
X134366000Y-111370389D01*
X134366000Y-111264762D01*
X134386002Y-111196641D01*
X134439658Y-111150148D01*
X134509932Y-111140044D01*
X134536949Y-111147052D01*
X134590503Y-111167502D01*
X134620692Y-111179030D01*
X134625760Y-111180061D01*
X134625763Y-111180062D01*
X134707252Y-111196641D01*
X134839597Y-111223567D01*
X134844772Y-111223757D01*
X134844774Y-111223757D01*
X135057673Y-111231564D01*
X135057677Y-111231564D01*
X135062837Y-111231753D01*
X135067957Y-111231097D01*
X135067959Y-111231097D01*
X135279288Y-111204025D01*
X135279289Y-111204025D01*
X135284416Y-111203368D01*
X135306838Y-111196641D01*
X135493429Y-111140661D01*
X135493434Y-111140659D01*
X135498384Y-111139174D01*
X135698994Y-111040896D01*
X135880860Y-110911173D01*
X135943769Y-110848484D01*
X136035435Y-110757137D01*
X136039096Y-110753489D01*
X136066142Y-110715851D01*
X136166435Y-110576277D01*
X136169453Y-110572077D01*
X136210725Y-110488570D01*
X136266136Y-110376453D01*
X136266137Y-110376451D01*
X136268430Y-110371811D01*
X136333370Y-110158069D01*
X136338335Y-110120361D01*
X136351933Y-110017070D01*
X136380655Y-109952143D01*
X136439921Y-109913051D01*
X136510912Y-109912206D01*
X136571091Y-109949876D01*
X136590580Y-109979271D01*
X136614616Y-110029663D01*
X136614625Y-110029680D01*
X136616186Y-110032952D01*
X136800064Y-110326079D01*
X136802334Y-110328913D01*
X136802338Y-110328918D01*
X136864285Y-110406240D01*
X137016415Y-110596129D01*
X137262371Y-110839523D01*
X137265229Y-110841764D01*
X137529881Y-111049277D01*
X137534672Y-111053034D01*
X137829709Y-111233832D01*
X137832999Y-111235359D01*
X137833008Y-111235364D01*
X138088219Y-111353829D01*
X138143570Y-111379522D01*
X138147017Y-111380662D01*
X138468652Y-111487033D01*
X138468657Y-111487034D01*
X138472097Y-111488172D01*
X138475652Y-111488908D01*
X138475655Y-111488909D01*
X138807385Y-111557607D01*
X138807388Y-111557607D01*
X138810935Y-111558342D01*
X138938546Y-111569731D01*
X139112440Y-111585251D01*
X139112446Y-111585251D01*
X139115233Y-111585500D01*
X139338189Y-111585500D01*
X139340008Y-111585395D01*
X139340012Y-111585395D01*
X139591833Y-111570875D01*
X139591838Y-111570874D01*
X139595453Y-111570666D01*
X139599023Y-111570043D01*
X139932755Y-111511798D01*
X139932762Y-111511796D01*
X139936328Y-111511174D01*
X139939803Y-111510145D01*
X139939810Y-111510143D01*
X140110827Y-111459485D01*
X140268106Y-111412897D01*
X140346353Y-111379522D01*
X140583051Y-111278562D01*
X140583054Y-111278560D01*
X140586389Y-111277138D01*
X140589536Y-111275343D01*
X140589540Y-111275341D01*
X140883819Y-111107487D01*
X140886959Y-111105696D01*
X140895615Y-111099338D01*
X141006146Y-111018144D01*
X141165832Y-110900843D01*
X141204457Y-110864951D01*
X141370456Y-110710695D01*
X141419312Y-110665295D01*
X141495341Y-110576277D01*
X141637704Y-110409590D01*
X141644038Y-110402174D01*
X141647516Y-110396999D01*
X141697245Y-110322994D01*
X141837033Y-110114967D01*
X141995739Y-109807482D01*
X142118050Y-109483793D01*
X142202348Y-109148190D01*
X142238067Y-108876876D01*
X142247039Y-108808728D01*
X142247040Y-108808720D01*
X142247513Y-108805124D01*
X142250526Y-108613357D01*
X142252892Y-108462780D01*
X142252892Y-108462776D01*
X142252949Y-108459139D01*
X142250897Y-108438576D01*
X142231108Y-108240328D01*
X142218581Y-108114823D01*
X142209890Y-108074962D01*
X142145640Y-107780283D01*
X142145639Y-107780278D01*
X142144867Y-107776739D01*
X142032783Y-107449367D01*
X141883814Y-107137048D01*
X141699936Y-106843921D01*
X141672953Y-106810240D01*
X141485856Y-106576706D01*
X141483585Y-106573871D01*
X141237629Y-106330477D01*
X140996930Y-106141745D01*
X140968185Y-106119206D01*
X140968183Y-106119205D01*
X140965328Y-106116966D01*
X140670291Y-105936168D01*
X140667001Y-105934641D01*
X140666992Y-105934636D01*
X140359728Y-105792009D01*
X140356430Y-105790478D01*
X140257364Y-105757715D01*
X140031348Y-105682967D01*
X140031343Y-105682966D01*
X140027903Y-105681828D01*
X140024348Y-105681092D01*
X140024345Y-105681091D01*
X139692615Y-105612393D01*
X139692612Y-105612393D01*
X139689065Y-105611658D01*
X139535167Y-105597923D01*
X139387560Y-105584749D01*
X139387554Y-105584749D01*
X139384767Y-105584500D01*
X139161811Y-105584500D01*
X139159992Y-105584605D01*
X139159988Y-105584605D01*
X138908167Y-105599125D01*
X138908162Y-105599126D01*
X138904547Y-105599334D01*
X138900978Y-105599957D01*
X138900977Y-105599957D01*
X138567245Y-105658202D01*
X138567238Y-105658204D01*
X138563672Y-105658826D01*
X138560197Y-105659855D01*
X138560190Y-105659857D01*
X138427418Y-105699186D01*
X138231894Y-105757103D01*
X138228558Y-105758526D01*
X138228555Y-105758527D01*
X137916949Y-105891438D01*
X137916946Y-105891440D01*
X137913611Y-105892862D01*
X137910464Y-105894657D01*
X137910460Y-105894659D01*
X137840373Y-105934636D01*
X137613041Y-106064304D01*
X137610129Y-106066443D01*
X137610126Y-106066445D01*
X137509578Y-106140305D01*
X137334168Y-106269157D01*
X137331515Y-106271623D01*
X137331513Y-106271624D01*
X137261508Y-106336677D01*
X137080688Y-106504705D01*
X137078336Y-106507459D01*
X137078333Y-106507462D01*
X136959056Y-106647118D01*
X136855962Y-106767826D01*
X136662967Y-107055033D01*
X136661309Y-107058246D01*
X136661298Y-107058264D01*
X136586816Y-107202569D01*
X136537798Y-107253929D01*
X136468795Y-107270633D01*
X136401714Y-107247380D01*
X136357854Y-107191552D01*
X136349275Y-107155102D01*
X136345781Y-107112604D01*
X136344096Y-107102424D01*
X136292214Y-106895875D01*
X136288894Y-106886124D01*
X136203972Y-106690814D01*
X136199105Y-106681739D01*
X136083426Y-106502926D01*
X136077136Y-106494757D01*
X135933293Y-106336677D01*
X135902241Y-106272831D01*
X135910635Y-106202333D01*
X135955812Y-106147564D01*
X135982256Y-106133895D01*
X136089297Y-106093767D01*
X136097705Y-106090615D01*
X136214261Y-106003261D01*
X136301615Y-105886705D01*
X136352745Y-105750316D01*
X136359500Y-105688134D01*
X136359500Y-104279522D01*
X140449273Y-104279522D01*
X140496764Y-104456761D01*
X140500510Y-104467053D01*
X140592586Y-104664511D01*
X140598069Y-104674007D01*
X140723028Y-104852467D01*
X140730084Y-104860875D01*
X140884125Y-105014916D01*
X140892533Y-105021972D01*
X141070993Y-105146931D01*
X141080489Y-105152414D01*
X141277947Y-105244490D01*
X141288239Y-105248236D01*
X141460503Y-105294394D01*
X141474599Y-105294058D01*
X141478000Y-105286116D01*
X141478000Y-105280967D01*
X141986000Y-105280967D01*
X141989973Y-105294498D01*
X141998522Y-105295727D01*
X142175761Y-105248236D01*
X142186053Y-105244490D01*
X142383511Y-105152414D01*
X142393007Y-105146931D01*
X142571467Y-105021972D01*
X142579875Y-105014916D01*
X142733916Y-104860875D01*
X142740972Y-104852467D01*
X142865931Y-104674007D01*
X142871414Y-104664511D01*
X142963490Y-104467053D01*
X142967236Y-104456761D01*
X143013394Y-104284497D01*
X143013058Y-104270401D01*
X143005116Y-104267000D01*
X142004115Y-104267000D01*
X141988876Y-104271475D01*
X141987671Y-104272865D01*
X141986000Y-104280548D01*
X141986000Y-105280967D01*
X141478000Y-105280967D01*
X141478000Y-104285115D01*
X141473525Y-104269876D01*
X141472135Y-104268671D01*
X141464452Y-104267000D01*
X140464033Y-104267000D01*
X140450502Y-104270973D01*
X140449273Y-104279522D01*
X136359500Y-104279522D01*
X136359500Y-103891866D01*
X136352745Y-103829684D01*
X136301615Y-103693295D01*
X136214261Y-103576739D01*
X136097705Y-103489385D01*
X135961316Y-103438255D01*
X135899134Y-103431500D01*
X134492000Y-103431500D01*
X134423879Y-103411498D01*
X134377386Y-103357842D01*
X134366000Y-103305500D01*
X134366000Y-102613762D01*
X134386002Y-102545641D01*
X134439658Y-102499148D01*
X134509932Y-102489044D01*
X134536949Y-102496052D01*
X134590503Y-102516502D01*
X134620692Y-102528030D01*
X134625760Y-102529061D01*
X134625763Y-102529062D01*
X134707252Y-102545641D01*
X134839597Y-102572567D01*
X134844772Y-102572757D01*
X134844774Y-102572757D01*
X135057673Y-102580564D01*
X135057677Y-102580564D01*
X135062837Y-102580753D01*
X135067957Y-102580097D01*
X135067959Y-102580097D01*
X135279288Y-102553025D01*
X135279289Y-102553025D01*
X135284416Y-102552368D01*
X135306838Y-102545641D01*
X135493429Y-102489661D01*
X135493434Y-102489659D01*
X135498384Y-102488174D01*
X135698994Y-102389896D01*
X135880860Y-102260173D01*
X136039096Y-102102489D01*
X136098594Y-102019689D01*
X136166435Y-101925277D01*
X136169453Y-101921077D01*
X136268430Y-101720811D01*
X136333370Y-101507069D01*
X136362529Y-101285590D01*
X136364156Y-101219000D01*
X136361418Y-101185695D01*
X137194251Y-101185695D01*
X137194548Y-101190848D01*
X137194548Y-101190851D01*
X137200011Y-101285590D01*
X137207110Y-101408715D01*
X137208247Y-101413761D01*
X137208248Y-101413767D01*
X137221597Y-101473000D01*
X137256222Y-101626639D01*
X137340266Y-101833616D01*
X137456987Y-102024088D01*
X137603250Y-102192938D01*
X137775126Y-102335632D01*
X137968000Y-102448338D01*
X138176692Y-102528030D01*
X138181760Y-102529061D01*
X138181763Y-102529062D01*
X138263252Y-102545641D01*
X138395597Y-102572567D01*
X138400772Y-102572757D01*
X138400774Y-102572757D01*
X138613673Y-102580564D01*
X138613677Y-102580564D01*
X138618837Y-102580753D01*
X138623957Y-102580097D01*
X138623959Y-102580097D01*
X138835288Y-102553025D01*
X138835289Y-102553025D01*
X138840416Y-102552368D01*
X138862838Y-102545641D01*
X139049429Y-102489661D01*
X139049434Y-102489659D01*
X139054384Y-102488174D01*
X139254994Y-102389896D01*
X139436860Y-102260173D01*
X139595096Y-102102489D01*
X139654594Y-102019689D01*
X139722435Y-101925277D01*
X139725453Y-101921077D01*
X139824430Y-101720811D01*
X139889370Y-101507069D01*
X139918529Y-101285590D01*
X139920156Y-101219000D01*
X139901852Y-100996361D01*
X139847431Y-100779702D01*
X139758354Y-100574840D01*
X139688461Y-100466802D01*
X139639822Y-100391617D01*
X139639820Y-100391614D01*
X139637014Y-100387277D01*
X139486670Y-100222051D01*
X139482619Y-100218852D01*
X139482615Y-100218848D01*
X139315414Y-100086800D01*
X139315410Y-100086798D01*
X139311359Y-100083598D01*
X139269569Y-100060529D01*
X139219598Y-100010097D01*
X139204826Y-99940654D01*
X139229942Y-99874248D01*
X139257294Y-99847641D01*
X139432328Y-99722792D01*
X139440200Y-99716139D01*
X139591052Y-99565812D01*
X139597730Y-99557965D01*
X139722003Y-99385020D01*
X139727313Y-99376183D01*
X139821670Y-99185267D01*
X139825469Y-99175672D01*
X139887377Y-98971910D01*
X139889555Y-98961837D01*
X139890986Y-98950962D01*
X139888775Y-98936778D01*
X139875617Y-98933000D01*
X137240225Y-98933000D01*
X137226694Y-98936973D01*
X137225257Y-98946966D01*
X137255565Y-99081446D01*
X137258645Y-99091275D01*
X137338770Y-99288603D01*
X137343413Y-99297794D01*
X137454694Y-99479388D01*
X137460777Y-99487699D01*
X137600213Y-99648667D01*
X137607580Y-99655883D01*
X137771434Y-99791916D01*
X137779881Y-99797831D01*
X137848969Y-99838203D01*
X137897693Y-99889842D01*
X137910764Y-99959625D01*
X137884033Y-100025396D01*
X137843584Y-100058752D01*
X137830607Y-100065507D01*
X137826474Y-100068610D01*
X137826471Y-100068612D01*
X137656100Y-100196530D01*
X137651965Y-100199635D01*
X137497629Y-100361138D01*
X137494715Y-100365410D01*
X137494714Y-100365411D01*
X137427705Y-100463643D01*
X137371743Y-100545680D01*
X137333207Y-100628700D01*
X137292650Y-100716073D01*
X137277688Y-100748305D01*
X137217989Y-100963570D01*
X137194251Y-101185695D01*
X136361418Y-101185695D01*
X136345852Y-100996361D01*
X136291431Y-100779702D01*
X136202354Y-100574840D01*
X136132461Y-100466802D01*
X136083822Y-100391617D01*
X136083820Y-100391614D01*
X136081014Y-100387277D01*
X135930670Y-100222051D01*
X135926619Y-100218852D01*
X135926615Y-100218848D01*
X135759414Y-100086800D01*
X135759410Y-100086798D01*
X135755359Y-100083598D01*
X135713569Y-100060529D01*
X135663598Y-100010097D01*
X135648826Y-99940654D01*
X135673942Y-99874248D01*
X135701294Y-99847641D01*
X135876328Y-99722792D01*
X135884200Y-99716139D01*
X136035052Y-99565812D01*
X136041730Y-99557965D01*
X136166003Y-99385020D01*
X136171313Y-99376183D01*
X136265670Y-99185267D01*
X136269469Y-99175672D01*
X136331377Y-98971910D01*
X136333555Y-98961837D01*
X136334986Y-98950962D01*
X136332775Y-98936778D01*
X136319617Y-98933000D01*
X134873000Y-98933000D01*
X134804879Y-98912998D01*
X134758386Y-98859342D01*
X134747000Y-98807000D01*
X134747000Y-98551000D01*
X134767002Y-98482879D01*
X134820658Y-98436386D01*
X134873000Y-98425000D01*
X136319344Y-98425000D01*
X136332875Y-98421027D01*
X136334180Y-98411947D01*
X136292214Y-98244875D01*
X136288894Y-98235124D01*
X136203972Y-98039814D01*
X136199105Y-98030739D01*
X136083426Y-97851926D01*
X136077136Y-97843757D01*
X135933293Y-97685677D01*
X135902241Y-97621831D01*
X135910635Y-97551333D01*
X135955812Y-97496564D01*
X135982256Y-97482895D01*
X136089297Y-97442767D01*
X136097705Y-97439615D01*
X136214261Y-97352261D01*
X136301615Y-97235705D01*
X136352745Y-97099316D01*
X136359500Y-97037134D01*
X137198500Y-97037134D01*
X137205255Y-97099316D01*
X137256385Y-97235705D01*
X137343739Y-97352261D01*
X137460295Y-97439615D01*
X137468704Y-97442767D01*
X137468705Y-97442768D01*
X137577960Y-97483726D01*
X137634725Y-97526367D01*
X137659425Y-97592929D01*
X137644218Y-97662278D01*
X137624825Y-97688759D01*
X137501590Y-97817717D01*
X137495104Y-97825727D01*
X137375098Y-98001649D01*
X137370000Y-98010623D01*
X137280338Y-98203783D01*
X137276775Y-98213470D01*
X137221389Y-98413183D01*
X137222912Y-98421607D01*
X137235292Y-98425000D01*
X139875344Y-98425000D01*
X139888875Y-98421027D01*
X139890180Y-98411947D01*
X139848214Y-98244875D01*
X139844894Y-98235124D01*
X139759972Y-98039814D01*
X139755105Y-98030739D01*
X139639426Y-97851926D01*
X139633136Y-97843757D01*
X139489293Y-97685677D01*
X139458241Y-97621831D01*
X139466635Y-97551333D01*
X139511812Y-97496564D01*
X139538256Y-97482895D01*
X139645297Y-97442767D01*
X139653705Y-97439615D01*
X139770261Y-97352261D01*
X139857615Y-97235705D01*
X139908745Y-97099316D01*
X139915500Y-97037134D01*
X139915500Y-95240866D01*
X139908745Y-95178684D01*
X139857615Y-95042295D01*
X139770261Y-94925739D01*
X139653705Y-94838385D01*
X139517316Y-94787255D01*
X139455134Y-94780500D01*
X137658866Y-94780500D01*
X137596684Y-94787255D01*
X137460295Y-94838385D01*
X137343739Y-94925739D01*
X137256385Y-95042295D01*
X137205255Y-95178684D01*
X137198500Y-95240866D01*
X137198500Y-97037134D01*
X136359500Y-97037134D01*
X136359500Y-95240866D01*
X136352745Y-95178684D01*
X136301615Y-95042295D01*
X136214261Y-94925739D01*
X136097705Y-94838385D01*
X135961316Y-94787255D01*
X135899134Y-94780500D01*
X134842112Y-94780500D01*
X134773991Y-94760498D01*
X134727498Y-94706842D01*
X134717394Y-94636568D01*
X134746888Y-94571988D01*
X134753017Y-94565405D01*
X134793517Y-94524905D01*
X134855829Y-94490879D01*
X134882612Y-94488000D01*
X151042500Y-94488000D01*
X151110621Y-94508002D01*
G37*
G04 #@! TD.AperFunction*
G04 #@! TD*
M02*
