G04 #@! TF.GenerationSoftware,KiCad,Pcbnew,(6.0.0-0)*
G04 #@! TF.CreationDate,2022-06-16T08:42:26-04:00*
G04 #@! TF.ProjectId,attiny-ezfan2,61747469-6e79-42d6-957a-66616e322e6b,rev?*
G04 #@! TF.SameCoordinates,Original*
G04 #@! TF.FileFunction,Legend,Top*
G04 #@! TF.FilePolarity,Positive*
%FSLAX46Y46*%
G04 Gerber Fmt 4.6, Leading zero omitted, Abs format (unit mm)*
G04 Created by KiCad (PCBNEW (6.0.0-0)) date 2022-06-16 08:42:26*
%MOMM*%
%LPD*%
G01*
G04 APERTURE LIST*
%ADD10C,0.150000*%
%ADD11C,0.120000*%
G04 APERTURE END LIST*
D10*
X146053333Y-97441142D02*
X146053333Y-97917333D01*
X145767619Y-97345904D02*
X146767619Y-97679238D01*
X145767619Y-98012571D01*
X146767619Y-98203047D02*
X146767619Y-98774476D01*
X145767619Y-98488761D02*
X146767619Y-98488761D01*
X146767619Y-98964952D02*
X146767619Y-99536380D01*
X145767619Y-99250666D02*
X146767619Y-99250666D01*
X145767619Y-99869714D02*
X146767619Y-99869714D01*
X145767619Y-100345904D02*
X146767619Y-100345904D01*
X145767619Y-100917333D01*
X146767619Y-100917333D01*
X146243809Y-101584000D02*
X145767619Y-101584000D01*
X146767619Y-101250666D02*
X146243809Y-101584000D01*
X146767619Y-101917333D01*
X146339047Y-102393523D02*
X146386666Y-102298285D01*
X146434285Y-102250666D01*
X146529523Y-102203047D01*
X146577142Y-102203047D01*
X146672380Y-102250666D01*
X146720000Y-102298285D01*
X146767619Y-102393523D01*
X146767619Y-102584000D01*
X146720000Y-102679238D01*
X146672380Y-102726857D01*
X146577142Y-102774476D01*
X146529523Y-102774476D01*
X146434285Y-102726857D01*
X146386666Y-102679238D01*
X146339047Y-102584000D01*
X146339047Y-102393523D01*
X146291428Y-102298285D01*
X146243809Y-102250666D01*
X146148571Y-102203047D01*
X145958095Y-102203047D01*
X145862857Y-102250666D01*
X145815238Y-102298285D01*
X145767619Y-102393523D01*
X145767619Y-102584000D01*
X145815238Y-102679238D01*
X145862857Y-102726857D01*
X145958095Y-102774476D01*
X146148571Y-102774476D01*
X146243809Y-102726857D01*
X146291428Y-102679238D01*
X146339047Y-102584000D01*
X146767619Y-103679238D02*
X146767619Y-103203047D01*
X146291428Y-103155428D01*
X146339047Y-103203047D01*
X146386666Y-103298285D01*
X146386666Y-103536380D01*
X146339047Y-103631619D01*
X146291428Y-103679238D01*
X146196190Y-103726857D01*
X145958095Y-103726857D01*
X145862857Y-103679238D01*
X145815238Y-103631619D01*
X145767619Y-103536380D01*
X145767619Y-103298285D01*
X145815238Y-103203047D01*
X145862857Y-103155428D01*
X145110000Y-97084000D02*
X145157619Y-96988761D01*
X145157619Y-96845904D01*
X145110000Y-96703047D01*
X145014761Y-96607809D01*
X144919523Y-96560190D01*
X144729047Y-96512571D01*
X144586190Y-96512571D01*
X144395714Y-96560190D01*
X144300476Y-96607809D01*
X144205238Y-96703047D01*
X144157619Y-96845904D01*
X144157619Y-96941142D01*
X144205238Y-97084000D01*
X144252857Y-97131619D01*
X144586190Y-97131619D01*
X144586190Y-96941142D01*
X145157619Y-97750666D02*
X145157619Y-97941142D01*
X145110000Y-98036380D01*
X145014761Y-98131619D01*
X144824285Y-98179238D01*
X144490952Y-98179238D01*
X144300476Y-98131619D01*
X144205238Y-98036380D01*
X144157619Y-97941142D01*
X144157619Y-97750666D01*
X144205238Y-97655428D01*
X144300476Y-97560190D01*
X144490952Y-97512571D01*
X144824285Y-97512571D01*
X145014761Y-97560190D01*
X145110000Y-97655428D01*
X145157619Y-97750666D01*
X144681428Y-98607809D02*
X144681428Y-98941142D01*
X144157619Y-99084000D02*
X144157619Y-98607809D01*
X145157619Y-98607809D01*
X145157619Y-99084000D01*
X144205238Y-99464952D02*
X144157619Y-99607809D01*
X144157619Y-99845904D01*
X144205238Y-99941142D01*
X144252857Y-99988761D01*
X144348095Y-100036380D01*
X144443333Y-100036380D01*
X144538571Y-99988761D01*
X144586190Y-99941142D01*
X144633809Y-99845904D01*
X144681428Y-99655428D01*
X144729047Y-99560190D01*
X144776666Y-99512571D01*
X144871904Y-99464952D01*
X144967142Y-99464952D01*
X145062380Y-99512571D01*
X145110000Y-99560190D01*
X145157619Y-99655428D01*
X145157619Y-99893523D01*
X145110000Y-100036380D01*
X144157619Y-101226857D02*
X145157619Y-101226857D01*
X144681428Y-101226857D02*
X144681428Y-101798285D01*
X144157619Y-101798285D02*
X145157619Y-101798285D01*
X144681428Y-102274476D02*
X144681428Y-102607809D01*
X144157619Y-102750666D02*
X144157619Y-102274476D01*
X145157619Y-102274476D01*
X145157619Y-102750666D01*
X144157619Y-103750666D02*
X144633809Y-103417333D01*
X144157619Y-103179238D02*
X145157619Y-103179238D01*
X145157619Y-103560190D01*
X145110000Y-103655428D01*
X145062380Y-103703047D01*
X144967142Y-103750666D01*
X144824285Y-103750666D01*
X144729047Y-103703047D01*
X144681428Y-103655428D01*
X144633809Y-103560190D01*
X144633809Y-103179238D01*
X144681428Y-104179238D02*
X144681428Y-104512571D01*
X144157619Y-104655428D02*
X144157619Y-104179238D01*
X145157619Y-104179238D01*
X145157619Y-104655428D01*
G04 #@! TO.C,REF\u002A\u002A*
X124269666Y-105354380D02*
X123936333Y-104878190D01*
X123698238Y-105354380D02*
X123698238Y-104354380D01*
X124079190Y-104354380D01*
X124174428Y-104402000D01*
X124222047Y-104449619D01*
X124269666Y-104544857D01*
X124269666Y-104687714D01*
X124222047Y-104782952D01*
X124174428Y-104830571D01*
X124079190Y-104878190D01*
X123698238Y-104878190D01*
X124698238Y-104830571D02*
X125031571Y-104830571D01*
X125174428Y-105354380D02*
X124698238Y-105354380D01*
X124698238Y-104354380D01*
X125174428Y-104354380D01*
X125936333Y-104830571D02*
X125603000Y-104830571D01*
X125603000Y-105354380D02*
X125603000Y-104354380D01*
X126079190Y-104354380D01*
X126603000Y-104354380D02*
X126603000Y-104592476D01*
X126364904Y-104497238D02*
X126603000Y-104592476D01*
X126841095Y-104497238D01*
X126460142Y-104782952D02*
X126603000Y-104592476D01*
X126745857Y-104782952D01*
X127364904Y-104354380D02*
X127364904Y-104592476D01*
X127126809Y-104497238D02*
X127364904Y-104592476D01*
X127603000Y-104497238D01*
X127222047Y-104782952D02*
X127364904Y-104592476D01*
X127507761Y-104782952D01*
G04 #@! TO.C,J1*
X147407380Y-119967333D02*
X148121666Y-119967333D01*
X148264523Y-120014952D01*
X148359761Y-120110190D01*
X148407380Y-120253047D01*
X148407380Y-120348285D01*
X148407380Y-118967333D02*
X148407380Y-119538761D01*
X148407380Y-119253047D02*
X147407380Y-119253047D01*
X147550238Y-119348285D01*
X147645476Y-119443523D01*
X147693095Y-119538761D01*
G04 #@! TO.C,J2*
X151685666Y-86701380D02*
X151685666Y-87415666D01*
X151638047Y-87558523D01*
X151542809Y-87653761D01*
X151399952Y-87701380D01*
X151304714Y-87701380D01*
X152114238Y-86796619D02*
X152161857Y-86749000D01*
X152257095Y-86701380D01*
X152495190Y-86701380D01*
X152590428Y-86749000D01*
X152638047Y-86796619D01*
X152685666Y-86891857D01*
X152685666Y-86987095D01*
X152638047Y-87129952D01*
X152066619Y-87701380D01*
X152685666Y-87701380D01*
G04 #@! TO.C,U1*
X145151095Y-88596380D02*
X145151095Y-89405904D01*
X145198714Y-89501142D01*
X145246333Y-89548761D01*
X145341571Y-89596380D01*
X145532047Y-89596380D01*
X145627285Y-89548761D01*
X145674904Y-89501142D01*
X145722523Y-89405904D01*
X145722523Y-88596380D01*
X146722523Y-89596380D02*
X146151095Y-89596380D01*
X146436809Y-89596380D02*
X146436809Y-88596380D01*
X146341571Y-88739238D01*
X146246333Y-88834476D01*
X146151095Y-88882095D01*
G04 #@! TO.C,J3*
X138731666Y-87971380D02*
X138731666Y-88685666D01*
X138684047Y-88828523D01*
X138588809Y-88923761D01*
X138445952Y-88971380D01*
X138350714Y-88971380D01*
X139112619Y-87971380D02*
X139731666Y-87971380D01*
X139398333Y-88352333D01*
X139541190Y-88352333D01*
X139636428Y-88399952D01*
X139684047Y-88447571D01*
X139731666Y-88542809D01*
X139731666Y-88780904D01*
X139684047Y-88876142D01*
X139636428Y-88923761D01*
X139541190Y-88971380D01*
X139255476Y-88971380D01*
X139160238Y-88923761D01*
X139112619Y-88876142D01*
G04 #@! TO.C,J5*
X127047666Y-109815380D02*
X127047666Y-110529666D01*
X127000047Y-110672523D01*
X126904809Y-110767761D01*
X126761952Y-110815380D01*
X126666714Y-110815380D01*
X128000047Y-109815380D02*
X127523857Y-109815380D01*
X127476238Y-110291571D01*
X127523857Y-110243952D01*
X127619095Y-110196333D01*
X127857190Y-110196333D01*
X127952428Y-110243952D01*
X128000047Y-110291571D01*
X128047666Y-110386809D01*
X128047666Y-110624904D01*
X128000047Y-110720142D01*
X127952428Y-110767761D01*
X127857190Y-110815380D01*
X127619095Y-110815380D01*
X127523857Y-110767761D01*
X127476238Y-110720142D01*
G04 #@! TO.C,J4*
X127174666Y-90511380D02*
X127174666Y-91225666D01*
X127127047Y-91368523D01*
X127031809Y-91463761D01*
X126888952Y-91511380D01*
X126793714Y-91511380D01*
X128079428Y-90844714D02*
X128079428Y-91511380D01*
X127841333Y-90463761D02*
X127603238Y-91178047D01*
X128222285Y-91178047D01*
D11*
G04 #@! TO.C,J1*
X150316000Y-111673000D02*
X150316000Y-106473000D01*
X142576000Y-106473000D02*
X143906000Y-106473000D01*
X145176000Y-109073000D02*
X145176000Y-106473000D01*
X142576000Y-107803000D02*
X142576000Y-106473000D01*
X142576000Y-111673000D02*
X150316000Y-111673000D01*
X145176000Y-106473000D02*
X150316000Y-106473000D01*
X142576000Y-109073000D02*
X145176000Y-109073000D01*
X142576000Y-111673000D02*
X142576000Y-109073000D01*
G04 #@! TO.C,J2*
X152527000Y-94174000D02*
X153857000Y-94174000D01*
X153857000Y-94174000D02*
X153857000Y-95504000D01*
X153857000Y-96774000D02*
X153857000Y-112074000D01*
X151197000Y-112074000D02*
X153857000Y-112074000D01*
X151197000Y-96774000D02*
X151197000Y-112074000D01*
X151197000Y-96774000D02*
X153857000Y-96774000D01*
G04 #@! TO.C,U1*
X144542000Y-95063000D02*
G75*
G03*
X146542000Y-95063000I1000000J0D01*
G01*
X142892000Y-105343000D02*
X148192000Y-105343000D01*
X144542000Y-95063000D02*
X142892000Y-95063000D01*
X148192000Y-105343000D02*
X148192000Y-95063000D01*
X148192000Y-95063000D02*
X146542000Y-95063000D01*
X142892000Y-95063000D02*
X142892000Y-105343000D01*
G04 #@! TO.C,J3*
X137227000Y-96139000D02*
X137227000Y-94809000D01*
X137227000Y-97409000D02*
X139887000Y-97409000D01*
X137227000Y-94809000D02*
X138557000Y-94809000D01*
X139887000Y-97409000D02*
X139887000Y-102549000D01*
X137227000Y-97409000D02*
X137227000Y-102549000D01*
X137227000Y-102549000D02*
X139887000Y-102549000D01*
G04 #@! TO.C,J5*
X133671000Y-106060000D02*
X136331000Y-106060000D01*
X133671000Y-106060000D02*
X133671000Y-111200000D01*
X133671000Y-111200000D02*
X136331000Y-111200000D01*
X136331000Y-106060000D02*
X136331000Y-111200000D01*
X133671000Y-104790000D02*
X133671000Y-103460000D01*
X133671000Y-103460000D02*
X135001000Y-103460000D01*
G04 #@! TO.C,J4*
X133671000Y-102549000D02*
X136331000Y-102549000D01*
X133671000Y-97409000D02*
X136331000Y-97409000D01*
X133671000Y-94809000D02*
X135001000Y-94809000D01*
X136331000Y-97409000D02*
X136331000Y-102549000D01*
X133671000Y-97409000D02*
X133671000Y-102549000D01*
X133671000Y-96139000D02*
X133671000Y-94809000D01*
G04 #@! TD*
M02*
