%TF.GenerationSoftware,KiCad,Pcbnew,8.0.4*%
%TF.CreationDate,2024-08-13T21:11:54-04:00*%
%TF.ProjectId,1-inch-midi,312d696e-6368-42d6-9d69-64692e6b6963,rev?*%
%TF.SameCoordinates,Original*%
%TF.FileFunction,Paste,Top*%
%TF.FilePolarity,Positive*%
%FSLAX46Y46*%
G04 Gerber Fmt 4.6, Leading zero omitted, Abs format (unit mm)*
G04 Created by KiCad (PCBNEW 8.0.4) date 2024-08-13 21:11:54*
%MOMM*%
%LPD*%
G01*
G04 APERTURE LIST*
G04 Aperture macros list*
%AMRoundRect*
0 Rectangle with rounded corners*
0 $1 Rounding radius*
0 $2 $3 $4 $5 $6 $7 $8 $9 X,Y pos of 4 corners*
0 Add a 4 corners polygon primitive as box body*
4,1,4,$2,$3,$4,$5,$6,$7,$8,$9,$2,$3,0*
0 Add four circle primitives for the rounded corners*
1,1,$1+$1,$2,$3*
1,1,$1+$1,$4,$5*
1,1,$1+$1,$6,$7*
1,1,$1+$1,$8,$9*
0 Add four rect primitives between the rounded corners*
20,1,$1+$1,$2,$3,$4,$5,0*
20,1,$1+$1,$4,$5,$6,$7,0*
20,1,$1+$1,$6,$7,$8,$9,0*
20,1,$1+$1,$8,$9,$2,$3,0*%
G04 Aperture macros list end*
%ADD10R,1.000000X2.750000*%
%ADD11RoundRect,0.250000X0.350000X0.450000X-0.350000X0.450000X-0.350000X-0.450000X0.350000X-0.450000X0*%
%ADD12R,1.700000X0.650000*%
%ADD13RoundRect,0.250000X-0.350000X-0.450000X0.350000X-0.450000X0.350000X0.450000X-0.350000X0.450000X0*%
%ADD14RoundRect,0.250000X-0.450000X0.325000X-0.450000X-0.325000X0.450000X-0.325000X0.450000X0.325000X0*%
G04 APERTURE END LIST*
D10*
%TO.C,SW2*%
X183700000Y-97952000D03*
X183700000Y-104048000D03*
X179700000Y-97952000D03*
X179700000Y-104048000D03*
%TD*%
D11*
%TO.C,R5*%
X195500000Y-97700000D03*
X193500000Y-97700000D03*
%TD*%
D12*
%TO.C,U1*%
X129050000Y-98595000D03*
X129050000Y-99865000D03*
X129050000Y-101135000D03*
X129050000Y-102405000D03*
X136350000Y-102405000D03*
X136350000Y-101135000D03*
X136350000Y-99865000D03*
X136350000Y-98595000D03*
%TD*%
D11*
%TO.C,R6*%
X196600000Y-99800000D03*
X194600000Y-99800000D03*
%TD*%
%TO.C,R10*%
X126500000Y-99300000D03*
X124500000Y-99300000D03*
%TD*%
D13*
%TO.C,R7*%
X174300000Y-93000000D03*
X176300000Y-93000000D03*
%TD*%
D11*
%TO.C,R4*%
X195500000Y-95700000D03*
X193500000Y-95700000D03*
%TD*%
D10*
%TO.C,SW4*%
X187300000Y-104168000D03*
X187300000Y-98072000D03*
X191300000Y-104168000D03*
X191300000Y-98072000D03*
%TD*%
D13*
%TO.C,R3*%
X175500000Y-97500000D03*
X177500000Y-97500000D03*
%TD*%
D11*
%TO.C,R1*%
X141843000Y-98425000D03*
X139843000Y-98425000D03*
%TD*%
D13*
%TO.C,R8*%
X123206000Y-92710000D03*
X125206000Y-92710000D03*
%TD*%
D14*
%TO.C,D1*%
X143900000Y-96075001D03*
X143900000Y-98124999D03*
%TD*%
D13*
%TO.C,R2*%
X175500000Y-95500000D03*
X177500000Y-95500000D03*
%TD*%
D10*
%TO.C,SW3*%
X187300000Y-94168000D03*
X187300000Y-88072000D03*
X191300000Y-94168000D03*
X191300000Y-88072000D03*
%TD*%
D11*
%TO.C,R9*%
X141843000Y-100457000D03*
X139843000Y-100457000D03*
%TD*%
D10*
%TO.C,SW1*%
X183700000Y-88072000D03*
X183700000Y-94168000D03*
X179700000Y-88072000D03*
X179700000Y-94168000D03*
%TD*%
M02*
