%TF.GenerationSoftware,KiCad,Pcbnew,8.0.4*%
%TF.CreationDate,2024-08-13T21:11:54-04:00*%
%TF.ProjectId,1-inch-midi,312d696e-6368-42d6-9d69-64692e6b6963,rev?*%
%TF.SameCoordinates,Original*%
%TF.FileFunction,Legend,Top*%
%TF.FilePolarity,Positive*%
%FSLAX46Y46*%
G04 Gerber Fmt 4.6, Leading zero omitted, Abs format (unit mm)*
G04 Created by KiCad (PCBNEW 8.0.4) date 2024-08-13 21:11:54*
%MOMM*%
%LPD*%
G01*
G04 APERTURE LIST*
%ADD10C,0.100000*%
%ADD11C,0.300000*%
%ADD12C,0.150000*%
%ADD13C,0.120000*%
G04 APERTURE END LIST*
D10*
X194645646Y-90566419D02*
X195264693Y-90566419D01*
X195264693Y-90566419D02*
X194931360Y-90947371D01*
X194931360Y-90947371D02*
X195074217Y-90947371D01*
X195074217Y-90947371D02*
X195169455Y-90994990D01*
X195169455Y-90994990D02*
X195217074Y-91042609D01*
X195217074Y-91042609D02*
X195264693Y-91137847D01*
X195264693Y-91137847D02*
X195264693Y-91375942D01*
X195264693Y-91375942D02*
X195217074Y-91471180D01*
X195217074Y-91471180D02*
X195169455Y-91518800D01*
X195169455Y-91518800D02*
X195074217Y-91566419D01*
X195074217Y-91566419D02*
X194788503Y-91566419D01*
X194788503Y-91566419D02*
X194693265Y-91518800D01*
X194693265Y-91518800D02*
X194645646Y-91471180D01*
X195550408Y-90566419D02*
X195883741Y-91566419D01*
X195883741Y-91566419D02*
X196217074Y-90566419D01*
X196740884Y-90566419D02*
X196836122Y-90566419D01*
X196836122Y-90566419D02*
X196931360Y-90614038D01*
X196931360Y-90614038D02*
X196978979Y-90661657D01*
X196978979Y-90661657D02*
X197026598Y-90756895D01*
X197026598Y-90756895D02*
X197074217Y-90947371D01*
X197074217Y-90947371D02*
X197074217Y-91185466D01*
X197074217Y-91185466D02*
X197026598Y-91375942D01*
X197026598Y-91375942D02*
X196978979Y-91471180D01*
X196978979Y-91471180D02*
X196931360Y-91518800D01*
X196931360Y-91518800D02*
X196836122Y-91566419D01*
X196836122Y-91566419D02*
X196740884Y-91566419D01*
X196740884Y-91566419D02*
X196645646Y-91518800D01*
X196645646Y-91518800D02*
X196598027Y-91471180D01*
X196598027Y-91471180D02*
X196550408Y-91375942D01*
X196550408Y-91375942D02*
X196502789Y-91185466D01*
X196502789Y-91185466D02*
X196502789Y-90947371D01*
X196502789Y-90947371D02*
X196550408Y-90756895D01*
X196550408Y-90756895D02*
X196598027Y-90661657D01*
X196598027Y-90661657D02*
X196645646Y-90614038D01*
X196645646Y-90614038D02*
X196740884Y-90566419D01*
D11*
G36*
X190317495Y-107033584D02*
G01*
X188184161Y-107033584D01*
X188184161Y-106074060D01*
X188350828Y-106074060D01*
X188350828Y-106216917D01*
X188352286Y-106231728D01*
X188352006Y-106235678D01*
X188353187Y-106240872D01*
X188353710Y-106246181D01*
X188355227Y-106249843D01*
X188358526Y-106264351D01*
X188429954Y-106478637D01*
X188441943Y-106505488D01*
X188445473Y-106509558D01*
X188447536Y-106514538D01*
X188466191Y-106537269D01*
X188609048Y-106680126D01*
X188620550Y-106689566D01*
X188623146Y-106692559D01*
X188627655Y-106695397D01*
X188631778Y-106698781D01*
X188635440Y-106700297D01*
X188648032Y-106708224D01*
X188790888Y-106779653D01*
X188793030Y-106780472D01*
X188793900Y-106781117D01*
X188806171Y-106785501D01*
X188818352Y-106790162D01*
X188819432Y-106790238D01*
X188821591Y-106791010D01*
X189107305Y-106862438D01*
X189112376Y-106863187D01*
X189114421Y-106864035D01*
X189125443Y-106865120D01*
X189136394Y-106866740D01*
X189138581Y-106866414D01*
X189143685Y-106866917D01*
X189357971Y-106866917D01*
X189363074Y-106866414D01*
X189365262Y-106866740D01*
X189376212Y-106865120D01*
X189387235Y-106864035D01*
X189389279Y-106863187D01*
X189394351Y-106862438D01*
X189680065Y-106791010D01*
X189682223Y-106790238D01*
X189683304Y-106790162D01*
X189695478Y-106785503D01*
X189707756Y-106781117D01*
X189708626Y-106780472D01*
X189710767Y-106779653D01*
X189853624Y-106708224D01*
X189866217Y-106700296D01*
X189869877Y-106698781D01*
X189873996Y-106695399D01*
X189878510Y-106692559D01*
X189881106Y-106689565D01*
X189892608Y-106680126D01*
X190035466Y-106537269D01*
X190054121Y-106514539D01*
X190056183Y-106509559D01*
X190059715Y-106505488D01*
X190071703Y-106478637D01*
X190143131Y-106264351D01*
X190146430Y-106249838D01*
X190147946Y-106246181D01*
X190148468Y-106240878D01*
X190149651Y-106235677D01*
X190149369Y-106231722D01*
X190150828Y-106216917D01*
X190150828Y-106074060D01*
X190149369Y-106059254D01*
X190149651Y-106055300D01*
X190148468Y-106050098D01*
X190147946Y-106044796D01*
X190146430Y-106041138D01*
X190143131Y-106026626D01*
X190071703Y-105812340D01*
X190059715Y-105785489D01*
X190056181Y-105781414D01*
X190054120Y-105776438D01*
X190035465Y-105753707D01*
X189964036Y-105682279D01*
X189941305Y-105663625D01*
X189887233Y-105641228D01*
X189828707Y-105641228D01*
X189774635Y-105663626D01*
X189733250Y-105705012D01*
X189710853Y-105759084D01*
X189710853Y-105817610D01*
X189733251Y-105871682D01*
X189751906Y-105894413D01*
X189798294Y-105940800D01*
X189850828Y-106098402D01*
X189850828Y-106192574D01*
X189798294Y-106350176D01*
X189697688Y-106450781D01*
X189591328Y-106503962D01*
X189339507Y-106566917D01*
X189162149Y-106566917D01*
X188910327Y-106503961D01*
X188803968Y-106450782D01*
X188703361Y-106350175D01*
X188650828Y-106192576D01*
X188650828Y-106098400D01*
X188703361Y-105940801D01*
X188749751Y-105894412D01*
X188768406Y-105871682D01*
X188790802Y-105817609D01*
X188790802Y-105759083D01*
X188768406Y-105705011D01*
X188727020Y-105663625D01*
X188672948Y-105641229D01*
X188614422Y-105641229D01*
X188560349Y-105663625D01*
X188537619Y-105682280D01*
X188466191Y-105753708D01*
X188447536Y-105776439D01*
X188445473Y-105781418D01*
X188441943Y-105785489D01*
X188429954Y-105812340D01*
X188358526Y-106026626D01*
X188355227Y-106041133D01*
X188353710Y-106044796D01*
X188353187Y-106050104D01*
X188352006Y-106055299D01*
X188352286Y-106059248D01*
X188350828Y-106074060D01*
X188184161Y-106074060D01*
X188184161Y-105474561D01*
X190317495Y-105474561D01*
X190317495Y-107033584D01*
G37*
D10*
X121874646Y-90439419D02*
X122493693Y-90439419D01*
X122493693Y-90439419D02*
X122160360Y-90820371D01*
X122160360Y-90820371D02*
X122303217Y-90820371D01*
X122303217Y-90820371D02*
X122398455Y-90867990D01*
X122398455Y-90867990D02*
X122446074Y-90915609D01*
X122446074Y-90915609D02*
X122493693Y-91010847D01*
X122493693Y-91010847D02*
X122493693Y-91248942D01*
X122493693Y-91248942D02*
X122446074Y-91344180D01*
X122446074Y-91344180D02*
X122398455Y-91391800D01*
X122398455Y-91391800D02*
X122303217Y-91439419D01*
X122303217Y-91439419D02*
X122017503Y-91439419D01*
X122017503Y-91439419D02*
X121922265Y-91391800D01*
X121922265Y-91391800D02*
X121874646Y-91344180D01*
X122779408Y-90439419D02*
X123112741Y-91439419D01*
X123112741Y-91439419D02*
X123446074Y-90439419D01*
X123969884Y-90439419D02*
X124065122Y-90439419D01*
X124065122Y-90439419D02*
X124160360Y-90487038D01*
X124160360Y-90487038D02*
X124207979Y-90534657D01*
X124207979Y-90534657D02*
X124255598Y-90629895D01*
X124255598Y-90629895D02*
X124303217Y-90820371D01*
X124303217Y-90820371D02*
X124303217Y-91058466D01*
X124303217Y-91058466D02*
X124255598Y-91248942D01*
X124255598Y-91248942D02*
X124207979Y-91344180D01*
X124207979Y-91344180D02*
X124160360Y-91391800D01*
X124160360Y-91391800D02*
X124065122Y-91439419D01*
X124065122Y-91439419D02*
X123969884Y-91439419D01*
X123969884Y-91439419D02*
X123874646Y-91391800D01*
X123874646Y-91391800D02*
X123827027Y-91344180D01*
X123827027Y-91344180D02*
X123779408Y-91248942D01*
X123779408Y-91248942D02*
X123731789Y-91058466D01*
X123731789Y-91058466D02*
X123731789Y-90820371D01*
X123731789Y-90820371D02*
X123779408Y-90629895D01*
X123779408Y-90629895D02*
X123827027Y-90534657D01*
X123827027Y-90534657D02*
X123874646Y-90487038D01*
X123874646Y-90487038D02*
X123969884Y-90439419D01*
D11*
G36*
X181483403Y-85654481D02*
G01*
X181520406Y-85691485D01*
X181565114Y-85780899D01*
X181565114Y-86095489D01*
X181150828Y-86095489D01*
X181150828Y-85780899D01*
X181195535Y-85691484D01*
X181232539Y-85654480D01*
X181321952Y-85609774D01*
X181393990Y-85609774D01*
X181483403Y-85654481D01*
G37*
G36*
X182269116Y-85583051D02*
G01*
X182306121Y-85620056D01*
X182350828Y-85709469D01*
X182350828Y-86095489D01*
X181865114Y-86095489D01*
X181865114Y-85769831D01*
X181917647Y-85612229D01*
X181946824Y-85583052D01*
X182036238Y-85538346D01*
X182179704Y-85538346D01*
X182269116Y-85583051D01*
G37*
G36*
X182817495Y-86562156D02*
G01*
X180684161Y-86562156D01*
X180684161Y-85745489D01*
X180850828Y-85745489D01*
X180850828Y-86245489D01*
X180853710Y-86274753D01*
X180876108Y-86328825D01*
X180917492Y-86370209D01*
X180971564Y-86392607D01*
X181000828Y-86395489D01*
X182500828Y-86395489D01*
X182530092Y-86392607D01*
X182584164Y-86370209D01*
X182625548Y-86328825D01*
X182647946Y-86274753D01*
X182650828Y-86245489D01*
X182650828Y-85674060D01*
X182647946Y-85644796D01*
X182645883Y-85639817D01*
X182645502Y-85634442D01*
X182634992Y-85606979D01*
X182563564Y-85464121D01*
X182555637Y-85451529D01*
X182554121Y-85447868D01*
X182550737Y-85443745D01*
X182547899Y-85439236D01*
X182544907Y-85436641D01*
X182535466Y-85425137D01*
X182464037Y-85353708D01*
X182452535Y-85344268D01*
X182449939Y-85341275D01*
X182445425Y-85338434D01*
X182441306Y-85335053D01*
X182437646Y-85333537D01*
X182425053Y-85325610D01*
X182282196Y-85254182D01*
X182254732Y-85243672D01*
X182249356Y-85243290D01*
X182244378Y-85241228D01*
X182215114Y-85238346D01*
X182000828Y-85238346D01*
X181971564Y-85241228D01*
X181966585Y-85243290D01*
X181961210Y-85243672D01*
X181933747Y-85254182D01*
X181790889Y-85325610D01*
X181778297Y-85333536D01*
X181774636Y-85335053D01*
X181770513Y-85338436D01*
X181766004Y-85341275D01*
X181763409Y-85344266D01*
X181751905Y-85353708D01*
X181680476Y-85425137D01*
X181679505Y-85426319D01*
X181678324Y-85425138D01*
X181666821Y-85415698D01*
X181664225Y-85412704D01*
X181659710Y-85409862D01*
X181655593Y-85406483D01*
X181651934Y-85404967D01*
X181639339Y-85397039D01*
X181496482Y-85325610D01*
X181469019Y-85315101D01*
X181463644Y-85314719D01*
X181458664Y-85312656D01*
X181429400Y-85309774D01*
X181286542Y-85309774D01*
X181257278Y-85312656D01*
X181252297Y-85314719D01*
X181246923Y-85315101D01*
X181219459Y-85325610D01*
X181076603Y-85397039D01*
X181064006Y-85404967D01*
X181060349Y-85406483D01*
X181056231Y-85409862D01*
X181051717Y-85412704D01*
X181049119Y-85415698D01*
X181037618Y-85425138D01*
X180966190Y-85496567D01*
X180956752Y-85508066D01*
X180953758Y-85510664D01*
X180950915Y-85515180D01*
X180947536Y-85519298D01*
X180946021Y-85522954D01*
X180938093Y-85535550D01*
X180866664Y-85678407D01*
X180856155Y-85705870D01*
X180855773Y-85711244D01*
X180853710Y-85716225D01*
X180850828Y-85745489D01*
X180684161Y-85745489D01*
X180684161Y-85071679D01*
X182817495Y-85071679D01*
X182817495Y-86562156D01*
G37*
D10*
X142623265Y-108155800D02*
X142766122Y-108203419D01*
X142766122Y-108203419D02*
X143004217Y-108203419D01*
X143004217Y-108203419D02*
X143099455Y-108155800D01*
X143099455Y-108155800D02*
X143147074Y-108108180D01*
X143147074Y-108108180D02*
X143194693Y-108012942D01*
X143194693Y-108012942D02*
X143194693Y-107917704D01*
X143194693Y-107917704D02*
X143147074Y-107822466D01*
X143147074Y-107822466D02*
X143099455Y-107774847D01*
X143099455Y-107774847D02*
X143004217Y-107727228D01*
X143004217Y-107727228D02*
X142813741Y-107679609D01*
X142813741Y-107679609D02*
X142718503Y-107631990D01*
X142718503Y-107631990D02*
X142670884Y-107584371D01*
X142670884Y-107584371D02*
X142623265Y-107489133D01*
X142623265Y-107489133D02*
X142623265Y-107393895D01*
X142623265Y-107393895D02*
X142670884Y-107298657D01*
X142670884Y-107298657D02*
X142718503Y-107251038D01*
X142718503Y-107251038D02*
X142813741Y-107203419D01*
X142813741Y-107203419D02*
X143051836Y-107203419D01*
X143051836Y-107203419D02*
X143194693Y-107251038D01*
X143623265Y-108203419D02*
X143623265Y-107203419D01*
X144623264Y-107251038D02*
X144528026Y-107203419D01*
X144528026Y-107203419D02*
X144385169Y-107203419D01*
X144385169Y-107203419D02*
X144242312Y-107251038D01*
X144242312Y-107251038D02*
X144147074Y-107346276D01*
X144147074Y-107346276D02*
X144099455Y-107441514D01*
X144099455Y-107441514D02*
X144051836Y-107631990D01*
X144051836Y-107631990D02*
X144051836Y-107774847D01*
X144051836Y-107774847D02*
X144099455Y-107965323D01*
X144099455Y-107965323D02*
X144147074Y-108060561D01*
X144147074Y-108060561D02*
X144242312Y-108155800D01*
X144242312Y-108155800D02*
X144385169Y-108203419D01*
X144385169Y-108203419D02*
X144480407Y-108203419D01*
X144480407Y-108203419D02*
X144623264Y-108155800D01*
X144623264Y-108155800D02*
X144670883Y-108108180D01*
X144670883Y-108108180D02*
X144670883Y-107774847D01*
X144670883Y-107774847D02*
X144480407Y-107774847D01*
X145051836Y-107298657D02*
X145099455Y-107251038D01*
X145099455Y-107251038D02*
X145194693Y-107203419D01*
X145194693Y-107203419D02*
X145432788Y-107203419D01*
X145432788Y-107203419D02*
X145528026Y-107251038D01*
X145528026Y-107251038D02*
X145575645Y-107298657D01*
X145575645Y-107298657D02*
X145623264Y-107393895D01*
X145623264Y-107393895D02*
X145623264Y-107489133D01*
X145623264Y-107489133D02*
X145575645Y-107631990D01*
X145575645Y-107631990D02*
X145004217Y-108203419D01*
X145004217Y-108203419D02*
X145623264Y-108203419D01*
X174119265Y-108282800D02*
X174262122Y-108330419D01*
X174262122Y-108330419D02*
X174500217Y-108330419D01*
X174500217Y-108330419D02*
X174595455Y-108282800D01*
X174595455Y-108282800D02*
X174643074Y-108235180D01*
X174643074Y-108235180D02*
X174690693Y-108139942D01*
X174690693Y-108139942D02*
X174690693Y-108044704D01*
X174690693Y-108044704D02*
X174643074Y-107949466D01*
X174643074Y-107949466D02*
X174595455Y-107901847D01*
X174595455Y-107901847D02*
X174500217Y-107854228D01*
X174500217Y-107854228D02*
X174309741Y-107806609D01*
X174309741Y-107806609D02*
X174214503Y-107758990D01*
X174214503Y-107758990D02*
X174166884Y-107711371D01*
X174166884Y-107711371D02*
X174119265Y-107616133D01*
X174119265Y-107616133D02*
X174119265Y-107520895D01*
X174119265Y-107520895D02*
X174166884Y-107425657D01*
X174166884Y-107425657D02*
X174214503Y-107378038D01*
X174214503Y-107378038D02*
X174309741Y-107330419D01*
X174309741Y-107330419D02*
X174547836Y-107330419D01*
X174547836Y-107330419D02*
X174690693Y-107378038D01*
X175119265Y-108330419D02*
X175119265Y-107330419D01*
X176119264Y-107378038D02*
X176024026Y-107330419D01*
X176024026Y-107330419D02*
X175881169Y-107330419D01*
X175881169Y-107330419D02*
X175738312Y-107378038D01*
X175738312Y-107378038D02*
X175643074Y-107473276D01*
X175643074Y-107473276D02*
X175595455Y-107568514D01*
X175595455Y-107568514D02*
X175547836Y-107758990D01*
X175547836Y-107758990D02*
X175547836Y-107901847D01*
X175547836Y-107901847D02*
X175595455Y-108092323D01*
X175595455Y-108092323D02*
X175643074Y-108187561D01*
X175643074Y-108187561D02*
X175738312Y-108282800D01*
X175738312Y-108282800D02*
X175881169Y-108330419D01*
X175881169Y-108330419D02*
X175976407Y-108330419D01*
X175976407Y-108330419D02*
X176119264Y-108282800D01*
X176119264Y-108282800D02*
X176166883Y-108235180D01*
X176166883Y-108235180D02*
X176166883Y-107901847D01*
X176166883Y-107901847D02*
X175976407Y-107901847D01*
X176547836Y-107425657D02*
X176595455Y-107378038D01*
X176595455Y-107378038D02*
X176690693Y-107330419D01*
X176690693Y-107330419D02*
X176928788Y-107330419D01*
X176928788Y-107330419D02*
X177024026Y-107378038D01*
X177024026Y-107378038D02*
X177071645Y-107425657D01*
X177071645Y-107425657D02*
X177119264Y-107520895D01*
X177119264Y-107520895D02*
X177119264Y-107616133D01*
X177119264Y-107616133D02*
X177071645Y-107758990D01*
X177071645Y-107758990D02*
X176500217Y-108330419D01*
X176500217Y-108330419D02*
X177119264Y-108330419D01*
X121261027Y-100172419D02*
X121832455Y-100172419D01*
X121546741Y-101172419D02*
X121546741Y-100172419D01*
X122356265Y-100172419D02*
X122546741Y-100172419D01*
X122546741Y-100172419D02*
X122641979Y-100220038D01*
X122641979Y-100220038D02*
X122737217Y-100315276D01*
X122737217Y-100315276D02*
X122784836Y-100505752D01*
X122784836Y-100505752D02*
X122784836Y-100839085D01*
X122784836Y-100839085D02*
X122737217Y-101029561D01*
X122737217Y-101029561D02*
X122641979Y-101124800D01*
X122641979Y-101124800D02*
X122546741Y-101172419D01*
X122546741Y-101172419D02*
X122356265Y-101172419D01*
X122356265Y-101172419D02*
X122261027Y-101124800D01*
X122261027Y-101124800D02*
X122165789Y-101029561D01*
X122165789Y-101029561D02*
X122118170Y-100839085D01*
X122118170Y-100839085D02*
X122118170Y-100505752D01*
X122118170Y-100505752D02*
X122165789Y-100315276D01*
X122165789Y-100315276D02*
X122261027Y-100220038D01*
X122261027Y-100220038D02*
X122356265Y-100172419D01*
X123213408Y-101172419D02*
X123213408Y-100172419D01*
X123213408Y-100172419D02*
X123594360Y-100172419D01*
X123594360Y-100172419D02*
X123689598Y-100220038D01*
X123689598Y-100220038D02*
X123737217Y-100267657D01*
X123737217Y-100267657D02*
X123784836Y-100362895D01*
X123784836Y-100362895D02*
X123784836Y-100505752D01*
X123784836Y-100505752D02*
X123737217Y-100600990D01*
X123737217Y-100600990D02*
X123689598Y-100648609D01*
X123689598Y-100648609D02*
X123594360Y-100696228D01*
X123594360Y-100696228D02*
X123213408Y-100696228D01*
X174119265Y-91645800D02*
X174262122Y-91693419D01*
X174262122Y-91693419D02*
X174500217Y-91693419D01*
X174500217Y-91693419D02*
X174595455Y-91645800D01*
X174595455Y-91645800D02*
X174643074Y-91598180D01*
X174643074Y-91598180D02*
X174690693Y-91502942D01*
X174690693Y-91502942D02*
X174690693Y-91407704D01*
X174690693Y-91407704D02*
X174643074Y-91312466D01*
X174643074Y-91312466D02*
X174595455Y-91264847D01*
X174595455Y-91264847D02*
X174500217Y-91217228D01*
X174500217Y-91217228D02*
X174309741Y-91169609D01*
X174309741Y-91169609D02*
X174214503Y-91121990D01*
X174214503Y-91121990D02*
X174166884Y-91074371D01*
X174166884Y-91074371D02*
X174119265Y-90979133D01*
X174119265Y-90979133D02*
X174119265Y-90883895D01*
X174119265Y-90883895D02*
X174166884Y-90788657D01*
X174166884Y-90788657D02*
X174214503Y-90741038D01*
X174214503Y-90741038D02*
X174309741Y-90693419D01*
X174309741Y-90693419D02*
X174547836Y-90693419D01*
X174547836Y-90693419D02*
X174690693Y-90741038D01*
X175119265Y-91693419D02*
X175119265Y-90693419D01*
X176119264Y-90741038D02*
X176024026Y-90693419D01*
X176024026Y-90693419D02*
X175881169Y-90693419D01*
X175881169Y-90693419D02*
X175738312Y-90741038D01*
X175738312Y-90741038D02*
X175643074Y-90836276D01*
X175643074Y-90836276D02*
X175595455Y-90931514D01*
X175595455Y-90931514D02*
X175547836Y-91121990D01*
X175547836Y-91121990D02*
X175547836Y-91264847D01*
X175547836Y-91264847D02*
X175595455Y-91455323D01*
X175595455Y-91455323D02*
X175643074Y-91550561D01*
X175643074Y-91550561D02*
X175738312Y-91645800D01*
X175738312Y-91645800D02*
X175881169Y-91693419D01*
X175881169Y-91693419D02*
X175976407Y-91693419D01*
X175976407Y-91693419D02*
X176119264Y-91645800D01*
X176119264Y-91645800D02*
X176166883Y-91598180D01*
X176166883Y-91598180D02*
X176166883Y-91264847D01*
X176166883Y-91264847D02*
X175976407Y-91264847D01*
X177119264Y-91693419D02*
X176547836Y-91693419D01*
X176833550Y-91693419D02*
X176833550Y-90693419D01*
X176833550Y-90693419D02*
X176738312Y-90836276D01*
X176738312Y-90836276D02*
X176643074Y-90931514D01*
X176643074Y-90931514D02*
X176547836Y-90979133D01*
X122127693Y-107420038D02*
X122032455Y-107372419D01*
X122032455Y-107372419D02*
X121889598Y-107372419D01*
X121889598Y-107372419D02*
X121746741Y-107420038D01*
X121746741Y-107420038D02*
X121651503Y-107515276D01*
X121651503Y-107515276D02*
X121603884Y-107610514D01*
X121603884Y-107610514D02*
X121556265Y-107800990D01*
X121556265Y-107800990D02*
X121556265Y-107943847D01*
X121556265Y-107943847D02*
X121603884Y-108134323D01*
X121603884Y-108134323D02*
X121651503Y-108229561D01*
X121651503Y-108229561D02*
X121746741Y-108324800D01*
X121746741Y-108324800D02*
X121889598Y-108372419D01*
X121889598Y-108372419D02*
X121984836Y-108372419D01*
X121984836Y-108372419D02*
X122127693Y-108324800D01*
X122127693Y-108324800D02*
X122175312Y-108277180D01*
X122175312Y-108277180D02*
X122175312Y-107943847D01*
X122175312Y-107943847D02*
X121984836Y-107943847D01*
X122603884Y-108372419D02*
X122603884Y-107372419D01*
X122603884Y-107372419D02*
X123175312Y-108372419D01*
X123175312Y-108372419D02*
X123175312Y-107372419D01*
X123651503Y-108372419D02*
X123651503Y-107372419D01*
X123651503Y-107372419D02*
X123889598Y-107372419D01*
X123889598Y-107372419D02*
X124032455Y-107420038D01*
X124032455Y-107420038D02*
X124127693Y-107515276D01*
X124127693Y-107515276D02*
X124175312Y-107610514D01*
X124175312Y-107610514D02*
X124222931Y-107800990D01*
X124222931Y-107800990D02*
X124222931Y-107943847D01*
X124222931Y-107943847D02*
X124175312Y-108134323D01*
X124175312Y-108134323D02*
X124127693Y-108229561D01*
X124127693Y-108229561D02*
X124032455Y-108324800D01*
X124032455Y-108324800D02*
X123889598Y-108372419D01*
X123889598Y-108372419D02*
X123651503Y-108372419D01*
X134238466Y-92025115D02*
X134238466Y-91263211D01*
X134619419Y-91644163D02*
X133857514Y-91644163D01*
X133619419Y-90882258D02*
X133619419Y-90263211D01*
X133619419Y-90263211D02*
X134000371Y-90596544D01*
X134000371Y-90596544D02*
X134000371Y-90453687D01*
X134000371Y-90453687D02*
X134047990Y-90358449D01*
X134047990Y-90358449D02*
X134095609Y-90310830D01*
X134095609Y-90310830D02*
X134190847Y-90263211D01*
X134190847Y-90263211D02*
X134428942Y-90263211D01*
X134428942Y-90263211D02*
X134524180Y-90310830D01*
X134524180Y-90310830D02*
X134571800Y-90358449D01*
X134571800Y-90358449D02*
X134619419Y-90453687D01*
X134619419Y-90453687D02*
X134619419Y-90739401D01*
X134619419Y-90739401D02*
X134571800Y-90834639D01*
X134571800Y-90834639D02*
X134524180Y-90882258D01*
X133619419Y-89977496D02*
X134619419Y-89644163D01*
X134619419Y-89644163D02*
X133619419Y-89310830D01*
X150957142Y-92042587D02*
X150385714Y-92042587D01*
X150671428Y-92042587D02*
X150671428Y-91042587D01*
X150671428Y-91042587D02*
X150576190Y-91185444D01*
X150576190Y-91185444D02*
X150480952Y-91280682D01*
X150480952Y-91280682D02*
X150385714Y-91328301D01*
X152147619Y-92042587D02*
X152147619Y-91042587D01*
X152623809Y-92042587D02*
X152623809Y-91042587D01*
X152623809Y-91042587D02*
X153195237Y-92042587D01*
X153195237Y-92042587D02*
X153195237Y-91042587D01*
X153528571Y-91137825D02*
X153719047Y-90994968D01*
X153719047Y-90994968D02*
X153909523Y-91137825D01*
X154147619Y-91042587D02*
X154766666Y-91042587D01*
X154766666Y-91042587D02*
X154433333Y-91423539D01*
X154433333Y-91423539D02*
X154576190Y-91423539D01*
X154576190Y-91423539D02*
X154671428Y-91471158D01*
X154671428Y-91471158D02*
X154719047Y-91518777D01*
X154719047Y-91518777D02*
X154766666Y-91614015D01*
X154766666Y-91614015D02*
X154766666Y-91852110D01*
X154766666Y-91852110D02*
X154719047Y-91947348D01*
X154719047Y-91947348D02*
X154671428Y-91994968D01*
X154671428Y-91994968D02*
X154576190Y-92042587D01*
X154576190Y-92042587D02*
X154290476Y-92042587D01*
X154290476Y-92042587D02*
X154195238Y-91994968D01*
X154195238Y-91994968D02*
X154147619Y-91947348D01*
X155957143Y-92042587D02*
X155957143Y-91042587D01*
X155957143Y-91042587D02*
X156290476Y-91756872D01*
X156290476Y-91756872D02*
X156623809Y-91042587D01*
X156623809Y-91042587D02*
X156623809Y-92042587D01*
X157100000Y-92042587D02*
X157100000Y-91042587D01*
X157576190Y-92042587D02*
X157576190Y-91042587D01*
X157576190Y-91042587D02*
X157814285Y-91042587D01*
X157814285Y-91042587D02*
X157957142Y-91090206D01*
X157957142Y-91090206D02*
X158052380Y-91185444D01*
X158052380Y-91185444D02*
X158099999Y-91280682D01*
X158099999Y-91280682D02*
X158147618Y-91471158D01*
X158147618Y-91471158D02*
X158147618Y-91614015D01*
X158147618Y-91614015D02*
X158099999Y-91804491D01*
X158099999Y-91804491D02*
X158052380Y-91899729D01*
X158052380Y-91899729D02*
X157957142Y-91994968D01*
X157957142Y-91994968D02*
X157814285Y-92042587D01*
X157814285Y-92042587D02*
X157576190Y-92042587D01*
X158576190Y-92042587D02*
X158576190Y-91042587D01*
X160385713Y-91947348D02*
X160338094Y-91994968D01*
X160338094Y-91994968D02*
X160195237Y-92042587D01*
X160195237Y-92042587D02*
X160099999Y-92042587D01*
X160099999Y-92042587D02*
X159957142Y-91994968D01*
X159957142Y-91994968D02*
X159861904Y-91899729D01*
X159861904Y-91899729D02*
X159814285Y-91804491D01*
X159814285Y-91804491D02*
X159766666Y-91614015D01*
X159766666Y-91614015D02*
X159766666Y-91471158D01*
X159766666Y-91471158D02*
X159814285Y-91280682D01*
X159814285Y-91280682D02*
X159861904Y-91185444D01*
X159861904Y-91185444D02*
X159957142Y-91090206D01*
X159957142Y-91090206D02*
X160099999Y-91042587D01*
X160099999Y-91042587D02*
X160195237Y-91042587D01*
X160195237Y-91042587D02*
X160338094Y-91090206D01*
X160338094Y-91090206D02*
X160385713Y-91137825D01*
X161004761Y-91042587D02*
X161195237Y-91042587D01*
X161195237Y-91042587D02*
X161290475Y-91090206D01*
X161290475Y-91090206D02*
X161385713Y-91185444D01*
X161385713Y-91185444D02*
X161433332Y-91375920D01*
X161433332Y-91375920D02*
X161433332Y-91709253D01*
X161433332Y-91709253D02*
X161385713Y-91899729D01*
X161385713Y-91899729D02*
X161290475Y-91994968D01*
X161290475Y-91994968D02*
X161195237Y-92042587D01*
X161195237Y-92042587D02*
X161004761Y-92042587D01*
X161004761Y-92042587D02*
X160909523Y-91994968D01*
X160909523Y-91994968D02*
X160814285Y-91899729D01*
X160814285Y-91899729D02*
X160766666Y-91709253D01*
X160766666Y-91709253D02*
X160766666Y-91375920D01*
X160766666Y-91375920D02*
X160814285Y-91185444D01*
X160814285Y-91185444D02*
X160909523Y-91090206D01*
X160909523Y-91090206D02*
X161004761Y-91042587D01*
X161861904Y-92042587D02*
X161861904Y-91042587D01*
X161861904Y-91042587D02*
X162433332Y-92042587D01*
X162433332Y-92042587D02*
X162433332Y-91042587D01*
X162766666Y-91042587D02*
X163338094Y-91042587D01*
X163052380Y-92042587D02*
X163052380Y-91042587D01*
X164242856Y-92042587D02*
X163909523Y-91566396D01*
X163671428Y-92042587D02*
X163671428Y-91042587D01*
X163671428Y-91042587D02*
X164052380Y-91042587D01*
X164052380Y-91042587D02*
X164147618Y-91090206D01*
X164147618Y-91090206D02*
X164195237Y-91137825D01*
X164195237Y-91137825D02*
X164242856Y-91233063D01*
X164242856Y-91233063D02*
X164242856Y-91375920D01*
X164242856Y-91375920D02*
X164195237Y-91471158D01*
X164195237Y-91471158D02*
X164147618Y-91518777D01*
X164147618Y-91518777D02*
X164052380Y-91566396D01*
X164052380Y-91566396D02*
X163671428Y-91566396D01*
X164861904Y-91042587D02*
X165052380Y-91042587D01*
X165052380Y-91042587D02*
X165147618Y-91090206D01*
X165147618Y-91090206D02*
X165242856Y-91185444D01*
X165242856Y-91185444D02*
X165290475Y-91375920D01*
X165290475Y-91375920D02*
X165290475Y-91709253D01*
X165290475Y-91709253D02*
X165242856Y-91899729D01*
X165242856Y-91899729D02*
X165147618Y-91994968D01*
X165147618Y-91994968D02*
X165052380Y-92042587D01*
X165052380Y-92042587D02*
X164861904Y-92042587D01*
X164861904Y-92042587D02*
X164766666Y-91994968D01*
X164766666Y-91994968D02*
X164671428Y-91899729D01*
X164671428Y-91899729D02*
X164623809Y-91709253D01*
X164623809Y-91709253D02*
X164623809Y-91375920D01*
X164623809Y-91375920D02*
X164671428Y-91185444D01*
X164671428Y-91185444D02*
X164766666Y-91090206D01*
X164766666Y-91090206D02*
X164861904Y-91042587D01*
X166195237Y-92042587D02*
X165719047Y-92042587D01*
X165719047Y-92042587D02*
X165719047Y-91042587D01*
X167004761Y-92042587D02*
X166528571Y-92042587D01*
X166528571Y-92042587D02*
X166528571Y-91042587D01*
X167338095Y-91518777D02*
X167671428Y-91518777D01*
X167814285Y-92042587D02*
X167338095Y-92042587D01*
X167338095Y-92042587D02*
X167338095Y-91042587D01*
X167338095Y-91042587D02*
X167814285Y-91042587D01*
X168814285Y-92042587D02*
X168480952Y-91566396D01*
X168242857Y-92042587D02*
X168242857Y-91042587D01*
X168242857Y-91042587D02*
X168623809Y-91042587D01*
X168623809Y-91042587D02*
X168719047Y-91090206D01*
X168719047Y-91090206D02*
X168766666Y-91137825D01*
X168766666Y-91137825D02*
X168814285Y-91233063D01*
X168814285Y-91233063D02*
X168814285Y-91375920D01*
X168814285Y-91375920D02*
X168766666Y-91471158D01*
X168766666Y-91471158D02*
X168719047Y-91518777D01*
X168719047Y-91518777D02*
X168623809Y-91566396D01*
X168623809Y-91566396D02*
X168242857Y-91566396D01*
X153647618Y-93128721D02*
X153790475Y-93176340D01*
X153790475Y-93176340D02*
X153838094Y-93223959D01*
X153838094Y-93223959D02*
X153885713Y-93319197D01*
X153885713Y-93319197D02*
X153885713Y-93462054D01*
X153885713Y-93462054D02*
X153838094Y-93557292D01*
X153838094Y-93557292D02*
X153790475Y-93604912D01*
X153790475Y-93604912D02*
X153695237Y-93652531D01*
X153695237Y-93652531D02*
X153314285Y-93652531D01*
X153314285Y-93652531D02*
X153314285Y-92652531D01*
X153314285Y-92652531D02*
X153647618Y-92652531D01*
X153647618Y-92652531D02*
X153742856Y-92700150D01*
X153742856Y-92700150D02*
X153790475Y-92747769D01*
X153790475Y-92747769D02*
X153838094Y-92843007D01*
X153838094Y-92843007D02*
X153838094Y-92938245D01*
X153838094Y-92938245D02*
X153790475Y-93033483D01*
X153790475Y-93033483D02*
X153742856Y-93081102D01*
X153742856Y-93081102D02*
X153647618Y-93128721D01*
X153647618Y-93128721D02*
X153314285Y-93128721D01*
X154504761Y-93176340D02*
X154504761Y-93652531D01*
X154171428Y-92652531D02*
X154504761Y-93176340D01*
X154504761Y-93176340D02*
X154838094Y-92652531D01*
X156219047Y-92652531D02*
X156219047Y-93366816D01*
X156219047Y-93366816D02*
X156171428Y-93509673D01*
X156171428Y-93509673D02*
X156076190Y-93604912D01*
X156076190Y-93604912D02*
X155933333Y-93652531D01*
X155933333Y-93652531D02*
X155838095Y-93652531D01*
X156695238Y-93128721D02*
X157028571Y-93128721D01*
X157171428Y-93652531D02*
X156695238Y-93652531D01*
X156695238Y-93652531D02*
X156695238Y-92652531D01*
X156695238Y-92652531D02*
X157171428Y-92652531D01*
X158171428Y-93652531D02*
X157838095Y-93176340D01*
X157600000Y-93652531D02*
X157600000Y-92652531D01*
X157600000Y-92652531D02*
X157980952Y-92652531D01*
X157980952Y-92652531D02*
X158076190Y-92700150D01*
X158076190Y-92700150D02*
X158123809Y-92747769D01*
X158123809Y-92747769D02*
X158171428Y-92843007D01*
X158171428Y-92843007D02*
X158171428Y-92985864D01*
X158171428Y-92985864D02*
X158123809Y-93081102D01*
X158123809Y-93081102D02*
X158076190Y-93128721D01*
X158076190Y-93128721D02*
X157980952Y-93176340D01*
X157980952Y-93176340D02*
X157600000Y-93176340D01*
X158600000Y-93128721D02*
X158933333Y-93128721D01*
X159076190Y-93652531D02*
X158600000Y-93652531D01*
X158600000Y-93652531D02*
X158600000Y-92652531D01*
X158600000Y-92652531D02*
X159076190Y-92652531D01*
X159504762Y-93652531D02*
X159504762Y-92652531D01*
X159504762Y-92652531D02*
X159838095Y-93366816D01*
X159838095Y-93366816D02*
X160171428Y-92652531D01*
X160171428Y-92652531D02*
X160171428Y-93652531D01*
X160838095Y-93176340D02*
X160838095Y-93652531D01*
X160504762Y-92652531D02*
X160838095Y-93176340D01*
X160838095Y-93176340D02*
X161171428Y-92652531D01*
X162838095Y-93557292D02*
X162790476Y-93604912D01*
X162790476Y-93604912D02*
X162647619Y-93652531D01*
X162647619Y-93652531D02*
X162552381Y-93652531D01*
X162552381Y-93652531D02*
X162409524Y-93604912D01*
X162409524Y-93604912D02*
X162314286Y-93509673D01*
X162314286Y-93509673D02*
X162266667Y-93414435D01*
X162266667Y-93414435D02*
X162219048Y-93223959D01*
X162219048Y-93223959D02*
X162219048Y-93081102D01*
X162219048Y-93081102D02*
X162266667Y-92890626D01*
X162266667Y-92890626D02*
X162314286Y-92795388D01*
X162314286Y-92795388D02*
X162409524Y-92700150D01*
X162409524Y-92700150D02*
X162552381Y-92652531D01*
X162552381Y-92652531D02*
X162647619Y-92652531D01*
X162647619Y-92652531D02*
X162790476Y-92700150D01*
X162790476Y-92700150D02*
X162838095Y-92747769D01*
X163457143Y-92652531D02*
X163647619Y-92652531D01*
X163647619Y-92652531D02*
X163742857Y-92700150D01*
X163742857Y-92700150D02*
X163838095Y-92795388D01*
X163838095Y-92795388D02*
X163885714Y-92985864D01*
X163885714Y-92985864D02*
X163885714Y-93319197D01*
X163885714Y-93319197D02*
X163838095Y-93509673D01*
X163838095Y-93509673D02*
X163742857Y-93604912D01*
X163742857Y-93604912D02*
X163647619Y-93652531D01*
X163647619Y-93652531D02*
X163457143Y-93652531D01*
X163457143Y-93652531D02*
X163361905Y-93604912D01*
X163361905Y-93604912D02*
X163266667Y-93509673D01*
X163266667Y-93509673D02*
X163219048Y-93319197D01*
X163219048Y-93319197D02*
X163219048Y-92985864D01*
X163219048Y-92985864D02*
X163266667Y-92795388D01*
X163266667Y-92795388D02*
X163361905Y-92700150D01*
X163361905Y-92700150D02*
X163457143Y-92652531D01*
X164504762Y-92652531D02*
X164695238Y-92652531D01*
X164695238Y-92652531D02*
X164790476Y-92700150D01*
X164790476Y-92700150D02*
X164885714Y-92795388D01*
X164885714Y-92795388D02*
X164933333Y-92985864D01*
X164933333Y-92985864D02*
X164933333Y-93319197D01*
X164933333Y-93319197D02*
X164885714Y-93509673D01*
X164885714Y-93509673D02*
X164790476Y-93604912D01*
X164790476Y-93604912D02*
X164695238Y-93652531D01*
X164695238Y-93652531D02*
X164504762Y-93652531D01*
X164504762Y-93652531D02*
X164409524Y-93604912D01*
X164409524Y-93604912D02*
X164314286Y-93509673D01*
X164314286Y-93509673D02*
X164266667Y-93319197D01*
X164266667Y-93319197D02*
X164266667Y-92985864D01*
X164266667Y-92985864D02*
X164314286Y-92795388D01*
X164314286Y-92795388D02*
X164409524Y-92700150D01*
X164409524Y-92700150D02*
X164504762Y-92652531D01*
X165361905Y-93652531D02*
X165361905Y-92652531D01*
X165933333Y-93652531D02*
X165504762Y-93081102D01*
X165933333Y-92652531D02*
X165361905Y-93223959D01*
X154861904Y-94738665D02*
X154528571Y-94738665D01*
X154528571Y-95262475D02*
X154528571Y-94262475D01*
X154528571Y-94262475D02*
X155004761Y-94262475D01*
X155576190Y-94262475D02*
X155766666Y-94262475D01*
X155766666Y-94262475D02*
X155861904Y-94310094D01*
X155861904Y-94310094D02*
X155957142Y-94405332D01*
X155957142Y-94405332D02*
X156004761Y-94595808D01*
X156004761Y-94595808D02*
X156004761Y-94929141D01*
X156004761Y-94929141D02*
X155957142Y-95119617D01*
X155957142Y-95119617D02*
X155861904Y-95214856D01*
X155861904Y-95214856D02*
X155766666Y-95262475D01*
X155766666Y-95262475D02*
X155576190Y-95262475D01*
X155576190Y-95262475D02*
X155480952Y-95214856D01*
X155480952Y-95214856D02*
X155385714Y-95119617D01*
X155385714Y-95119617D02*
X155338095Y-94929141D01*
X155338095Y-94929141D02*
X155338095Y-94595808D01*
X155338095Y-94595808D02*
X155385714Y-94405332D01*
X155385714Y-94405332D02*
X155480952Y-94310094D01*
X155480952Y-94310094D02*
X155576190Y-94262475D01*
X157004761Y-95262475D02*
X156671428Y-94786284D01*
X156433333Y-95262475D02*
X156433333Y-94262475D01*
X156433333Y-94262475D02*
X156814285Y-94262475D01*
X156814285Y-94262475D02*
X156909523Y-94310094D01*
X156909523Y-94310094D02*
X156957142Y-94357713D01*
X156957142Y-94357713D02*
X157004761Y-94452951D01*
X157004761Y-94452951D02*
X157004761Y-94595808D01*
X157004761Y-94595808D02*
X156957142Y-94691046D01*
X156957142Y-94691046D02*
X156909523Y-94738665D01*
X156909523Y-94738665D02*
X156814285Y-94786284D01*
X156814285Y-94786284D02*
X156433333Y-94786284D01*
X158480952Y-94262475D02*
X158480952Y-94976760D01*
X158480952Y-94976760D02*
X158433333Y-95119617D01*
X158433333Y-95119617D02*
X158338095Y-95214856D01*
X158338095Y-95214856D02*
X158195238Y-95262475D01*
X158195238Y-95262475D02*
X158100000Y-95262475D01*
X159528571Y-95167236D02*
X159480952Y-95214856D01*
X159480952Y-95214856D02*
X159338095Y-95262475D01*
X159338095Y-95262475D02*
X159242857Y-95262475D01*
X159242857Y-95262475D02*
X159100000Y-95214856D01*
X159100000Y-95214856D02*
X159004762Y-95119617D01*
X159004762Y-95119617D02*
X158957143Y-95024379D01*
X158957143Y-95024379D02*
X158909524Y-94833903D01*
X158909524Y-94833903D02*
X158909524Y-94691046D01*
X158909524Y-94691046D02*
X158957143Y-94500570D01*
X158957143Y-94500570D02*
X159004762Y-94405332D01*
X159004762Y-94405332D02*
X159100000Y-94310094D01*
X159100000Y-94310094D02*
X159242857Y-94262475D01*
X159242857Y-94262475D02*
X159338095Y-94262475D01*
X159338095Y-94262475D02*
X159480952Y-94310094D01*
X159480952Y-94310094D02*
X159528571Y-94357713D01*
X160671429Y-94976760D02*
X161147619Y-94976760D01*
X160576191Y-95262475D02*
X160909524Y-94262475D01*
X160909524Y-94262475D02*
X161242857Y-95262475D01*
X161576191Y-94262475D02*
X161576191Y-95071998D01*
X161576191Y-95071998D02*
X161623810Y-95167236D01*
X161623810Y-95167236D02*
X161671429Y-95214856D01*
X161671429Y-95214856D02*
X161766667Y-95262475D01*
X161766667Y-95262475D02*
X161957143Y-95262475D01*
X161957143Y-95262475D02*
X162052381Y-95214856D01*
X162052381Y-95214856D02*
X162100000Y-95167236D01*
X162100000Y-95167236D02*
X162147619Y-95071998D01*
X162147619Y-95071998D02*
X162147619Y-94262475D01*
X162623810Y-95262475D02*
X162623810Y-94262475D01*
X162623810Y-94262475D02*
X162861905Y-94262475D01*
X162861905Y-94262475D02*
X163004762Y-94310094D01*
X163004762Y-94310094D02*
X163100000Y-94405332D01*
X163100000Y-94405332D02*
X163147619Y-94500570D01*
X163147619Y-94500570D02*
X163195238Y-94691046D01*
X163195238Y-94691046D02*
X163195238Y-94833903D01*
X163195238Y-94833903D02*
X163147619Y-95024379D01*
X163147619Y-95024379D02*
X163100000Y-95119617D01*
X163100000Y-95119617D02*
X163004762Y-95214856D01*
X163004762Y-95214856D02*
X162861905Y-95262475D01*
X162861905Y-95262475D02*
X162623810Y-95262475D01*
X163623810Y-95262475D02*
X163623810Y-94262475D01*
X164290476Y-94262475D02*
X164480952Y-94262475D01*
X164480952Y-94262475D02*
X164576190Y-94310094D01*
X164576190Y-94310094D02*
X164671428Y-94405332D01*
X164671428Y-94405332D02*
X164719047Y-94595808D01*
X164719047Y-94595808D02*
X164719047Y-94929141D01*
X164719047Y-94929141D02*
X164671428Y-95119617D01*
X164671428Y-95119617D02*
X164576190Y-95214856D01*
X164576190Y-95214856D02*
X164480952Y-95262475D01*
X164480952Y-95262475D02*
X164290476Y-95262475D01*
X164290476Y-95262475D02*
X164195238Y-95214856D01*
X164195238Y-95214856D02*
X164100000Y-95119617D01*
X164100000Y-95119617D02*
X164052381Y-94929141D01*
X164052381Y-94929141D02*
X164052381Y-94595808D01*
X164052381Y-94595808D02*
X164100000Y-94405332D01*
X164100000Y-94405332D02*
X164195238Y-94310094D01*
X164195238Y-94310094D02*
X164290476Y-94262475D01*
X155742857Y-95872419D02*
X155266667Y-95872419D01*
X155266667Y-95872419D02*
X155219048Y-96348609D01*
X155219048Y-96348609D02*
X155266667Y-96300990D01*
X155266667Y-96300990D02*
X155361905Y-96253371D01*
X155361905Y-96253371D02*
X155600000Y-96253371D01*
X155600000Y-96253371D02*
X155695238Y-96300990D01*
X155695238Y-96300990D02*
X155742857Y-96348609D01*
X155742857Y-96348609D02*
X155790476Y-96443847D01*
X155790476Y-96443847D02*
X155790476Y-96681942D01*
X155790476Y-96681942D02*
X155742857Y-96777180D01*
X155742857Y-96777180D02*
X155695238Y-96824800D01*
X155695238Y-96824800D02*
X155600000Y-96872419D01*
X155600000Y-96872419D02*
X155361905Y-96872419D01*
X155361905Y-96872419D02*
X155266667Y-96824800D01*
X155266667Y-96824800D02*
X155219048Y-96777180D01*
X156219048Y-96491466D02*
X156980953Y-96491466D01*
X157409524Y-95967657D02*
X157457143Y-95920038D01*
X157457143Y-95920038D02*
X157552381Y-95872419D01*
X157552381Y-95872419D02*
X157790476Y-95872419D01*
X157790476Y-95872419D02*
X157885714Y-95920038D01*
X157885714Y-95920038D02*
X157933333Y-95967657D01*
X157933333Y-95967657D02*
X157980952Y-96062895D01*
X157980952Y-96062895D02*
X157980952Y-96158133D01*
X157980952Y-96158133D02*
X157933333Y-96300990D01*
X157933333Y-96300990D02*
X157361905Y-96872419D01*
X157361905Y-96872419D02*
X157980952Y-96872419D01*
X158314286Y-95872419D02*
X158980952Y-95872419D01*
X158980952Y-95872419D02*
X158552381Y-96872419D01*
X159361905Y-96491466D02*
X160123810Y-96491466D01*
X160552381Y-95967657D02*
X160600000Y-95920038D01*
X160600000Y-95920038D02*
X160695238Y-95872419D01*
X160695238Y-95872419D02*
X160933333Y-95872419D01*
X160933333Y-95872419D02*
X161028571Y-95920038D01*
X161028571Y-95920038D02*
X161076190Y-95967657D01*
X161076190Y-95967657D02*
X161123809Y-96062895D01*
X161123809Y-96062895D02*
X161123809Y-96158133D01*
X161123809Y-96158133D02*
X161076190Y-96300990D01*
X161076190Y-96300990D02*
X160504762Y-96872419D01*
X160504762Y-96872419D02*
X161123809Y-96872419D01*
X161742857Y-95872419D02*
X161838095Y-95872419D01*
X161838095Y-95872419D02*
X161933333Y-95920038D01*
X161933333Y-95920038D02*
X161980952Y-95967657D01*
X161980952Y-95967657D02*
X162028571Y-96062895D01*
X162028571Y-96062895D02*
X162076190Y-96253371D01*
X162076190Y-96253371D02*
X162076190Y-96491466D01*
X162076190Y-96491466D02*
X162028571Y-96681942D01*
X162028571Y-96681942D02*
X161980952Y-96777180D01*
X161980952Y-96777180D02*
X161933333Y-96824800D01*
X161933333Y-96824800D02*
X161838095Y-96872419D01*
X161838095Y-96872419D02*
X161742857Y-96872419D01*
X161742857Y-96872419D02*
X161647619Y-96824800D01*
X161647619Y-96824800D02*
X161600000Y-96777180D01*
X161600000Y-96777180D02*
X161552381Y-96681942D01*
X161552381Y-96681942D02*
X161504762Y-96491466D01*
X161504762Y-96491466D02*
X161504762Y-96253371D01*
X161504762Y-96253371D02*
X161552381Y-96062895D01*
X161552381Y-96062895D02*
X161600000Y-95967657D01*
X161600000Y-95967657D02*
X161647619Y-95920038D01*
X161647619Y-95920038D02*
X161742857Y-95872419D01*
X162457143Y-95967657D02*
X162504762Y-95920038D01*
X162504762Y-95920038D02*
X162600000Y-95872419D01*
X162600000Y-95872419D02*
X162838095Y-95872419D01*
X162838095Y-95872419D02*
X162933333Y-95920038D01*
X162933333Y-95920038D02*
X162980952Y-95967657D01*
X162980952Y-95967657D02*
X163028571Y-96062895D01*
X163028571Y-96062895D02*
X163028571Y-96158133D01*
X163028571Y-96158133D02*
X162980952Y-96300990D01*
X162980952Y-96300990D02*
X162409524Y-96872419D01*
X162409524Y-96872419D02*
X163028571Y-96872419D01*
X163885714Y-96205752D02*
X163885714Y-96872419D01*
X163647619Y-95824800D02*
X163409524Y-96539085D01*
X163409524Y-96539085D02*
X164028571Y-96539085D01*
X131972419Y-91896115D02*
X130972419Y-91896115D01*
X130972419Y-91896115D02*
X130972419Y-91515163D01*
X130972419Y-91515163D02*
X131020038Y-91419925D01*
X131020038Y-91419925D02*
X131067657Y-91372306D01*
X131067657Y-91372306D02*
X131162895Y-91324687D01*
X131162895Y-91324687D02*
X131305752Y-91324687D01*
X131305752Y-91324687D02*
X131400990Y-91372306D01*
X131400990Y-91372306D02*
X131448609Y-91419925D01*
X131448609Y-91419925D02*
X131496228Y-91515163D01*
X131496228Y-91515163D02*
X131496228Y-91896115D01*
X131448609Y-90562782D02*
X131496228Y-90419925D01*
X131496228Y-90419925D02*
X131543847Y-90372306D01*
X131543847Y-90372306D02*
X131639085Y-90324687D01*
X131639085Y-90324687D02*
X131781942Y-90324687D01*
X131781942Y-90324687D02*
X131877180Y-90372306D01*
X131877180Y-90372306D02*
X131924800Y-90419925D01*
X131924800Y-90419925D02*
X131972419Y-90515163D01*
X131972419Y-90515163D02*
X131972419Y-90896115D01*
X131972419Y-90896115D02*
X130972419Y-90896115D01*
X130972419Y-90896115D02*
X130972419Y-90562782D01*
X130972419Y-90562782D02*
X131020038Y-90467544D01*
X131020038Y-90467544D02*
X131067657Y-90419925D01*
X131067657Y-90419925D02*
X131162895Y-90372306D01*
X131162895Y-90372306D02*
X131258133Y-90372306D01*
X131258133Y-90372306D02*
X131353371Y-90419925D01*
X131353371Y-90419925D02*
X131400990Y-90467544D01*
X131400990Y-90467544D02*
X131448609Y-90562782D01*
X131448609Y-90562782D02*
X131448609Y-90896115D01*
X131305752Y-89467544D02*
X131972419Y-89467544D01*
X130924800Y-89705639D02*
X131639085Y-89943734D01*
X131639085Y-89943734D02*
X131639085Y-89324687D01*
X136320038Y-91372306D02*
X136272419Y-91467544D01*
X136272419Y-91467544D02*
X136272419Y-91610401D01*
X136272419Y-91610401D02*
X136320038Y-91753258D01*
X136320038Y-91753258D02*
X136415276Y-91848496D01*
X136415276Y-91848496D02*
X136510514Y-91896115D01*
X136510514Y-91896115D02*
X136700990Y-91943734D01*
X136700990Y-91943734D02*
X136843847Y-91943734D01*
X136843847Y-91943734D02*
X137034323Y-91896115D01*
X137034323Y-91896115D02*
X137129561Y-91848496D01*
X137129561Y-91848496D02*
X137224800Y-91753258D01*
X137224800Y-91753258D02*
X137272419Y-91610401D01*
X137272419Y-91610401D02*
X137272419Y-91515163D01*
X137272419Y-91515163D02*
X137224800Y-91372306D01*
X137224800Y-91372306D02*
X137177180Y-91324687D01*
X137177180Y-91324687D02*
X136843847Y-91324687D01*
X136843847Y-91324687D02*
X136843847Y-91515163D01*
X137272419Y-90896115D02*
X136272419Y-90896115D01*
X136272419Y-90896115D02*
X137272419Y-90324687D01*
X137272419Y-90324687D02*
X136272419Y-90324687D01*
X137272419Y-89848496D02*
X136272419Y-89848496D01*
X136272419Y-89848496D02*
X136272419Y-89610401D01*
X136272419Y-89610401D02*
X136320038Y-89467544D01*
X136320038Y-89467544D02*
X136415276Y-89372306D01*
X136415276Y-89372306D02*
X136510514Y-89324687D01*
X136510514Y-89324687D02*
X136700990Y-89277068D01*
X136700990Y-89277068D02*
X136843847Y-89277068D01*
X136843847Y-89277068D02*
X137034323Y-89324687D01*
X137034323Y-89324687D02*
X137129561Y-89372306D01*
X137129561Y-89372306D02*
X137224800Y-89467544D01*
X137224800Y-89467544D02*
X137272419Y-89610401D01*
X137272419Y-89610401D02*
X137272419Y-89848496D01*
D11*
G36*
X181922257Y-106408803D02*
G01*
X181475168Y-106259774D01*
X181922257Y-106110744D01*
X181922257Y-106408803D01*
G37*
G36*
X182816318Y-107075264D02*
G01*
X180685339Y-107075264D01*
X180685339Y-106241013D01*
X180852006Y-106241013D01*
X180853339Y-106259774D01*
X180852006Y-106278535D01*
X180855395Y-106288702D01*
X180856155Y-106299394D01*
X180864566Y-106316217D01*
X180870514Y-106334059D01*
X180877536Y-106342155D01*
X180882329Y-106351741D01*
X180896537Y-106364064D01*
X180908861Y-106378273D01*
X180918446Y-106383065D01*
X180926543Y-106390088D01*
X180953394Y-106402076D01*
X182453394Y-106902077D01*
X182482068Y-106908597D01*
X182540448Y-106904447D01*
X182592795Y-106878273D01*
X182631142Y-106834059D01*
X182649651Y-106778535D01*
X182645501Y-106720155D01*
X182619328Y-106667807D01*
X182575113Y-106629460D01*
X182548262Y-106617472D01*
X182222257Y-106508803D01*
X182222257Y-106010744D01*
X182548262Y-105902076D01*
X182575113Y-105890088D01*
X182619328Y-105851741D01*
X182645501Y-105799393D01*
X182649651Y-105741013D01*
X182631142Y-105685489D01*
X182592795Y-105641275D01*
X182540448Y-105615101D01*
X182482068Y-105610951D01*
X182453394Y-105617471D01*
X180953394Y-106117472D01*
X180926543Y-106129460D01*
X180918446Y-106136482D01*
X180908861Y-106141275D01*
X180896537Y-106155483D01*
X180882329Y-106167807D01*
X180877536Y-106177392D01*
X180870514Y-106185489D01*
X180864566Y-106203330D01*
X180856155Y-106220154D01*
X180855395Y-106230845D01*
X180852006Y-106241013D01*
X180685339Y-106241013D01*
X180685339Y-105444284D01*
X182816318Y-105444284D01*
X182816318Y-107075264D01*
G37*
D10*
X147403884Y-101072419D02*
X147403884Y-100072419D01*
X147403884Y-100072419D02*
X147737217Y-100786704D01*
X147737217Y-100786704D02*
X148070550Y-100072419D01*
X148070550Y-100072419D02*
X148070550Y-101072419D01*
X148546741Y-101072419D02*
X148546741Y-100072419D01*
X149022931Y-101072419D02*
X149022931Y-100072419D01*
X149022931Y-100072419D02*
X149261026Y-100072419D01*
X149261026Y-100072419D02*
X149403883Y-100120038D01*
X149403883Y-100120038D02*
X149499121Y-100215276D01*
X149499121Y-100215276D02*
X149546740Y-100310514D01*
X149546740Y-100310514D02*
X149594359Y-100500990D01*
X149594359Y-100500990D02*
X149594359Y-100643847D01*
X149594359Y-100643847D02*
X149546740Y-100834323D01*
X149546740Y-100834323D02*
X149499121Y-100929561D01*
X149499121Y-100929561D02*
X149403883Y-101024800D01*
X149403883Y-101024800D02*
X149261026Y-101072419D01*
X149261026Y-101072419D02*
X149022931Y-101072419D01*
X153027693Y-104820038D02*
X152932455Y-104772419D01*
X152932455Y-104772419D02*
X152789598Y-104772419D01*
X152789598Y-104772419D02*
X152646741Y-104820038D01*
X152646741Y-104820038D02*
X152551503Y-104915276D01*
X152551503Y-104915276D02*
X152503884Y-105010514D01*
X152503884Y-105010514D02*
X152456265Y-105200990D01*
X152456265Y-105200990D02*
X152456265Y-105343847D01*
X152456265Y-105343847D02*
X152503884Y-105534323D01*
X152503884Y-105534323D02*
X152551503Y-105629561D01*
X152551503Y-105629561D02*
X152646741Y-105724800D01*
X152646741Y-105724800D02*
X152789598Y-105772419D01*
X152789598Y-105772419D02*
X152884836Y-105772419D01*
X152884836Y-105772419D02*
X153027693Y-105724800D01*
X153027693Y-105724800D02*
X153075312Y-105677180D01*
X153075312Y-105677180D02*
X153075312Y-105343847D01*
X153075312Y-105343847D02*
X152884836Y-105343847D01*
X153503884Y-105772419D02*
X153503884Y-104772419D01*
X153503884Y-104772419D02*
X154075312Y-105772419D01*
X154075312Y-105772419D02*
X154075312Y-104772419D01*
X154551503Y-105772419D02*
X154551503Y-104772419D01*
X154551503Y-104772419D02*
X154789598Y-104772419D01*
X154789598Y-104772419D02*
X154932455Y-104820038D01*
X154932455Y-104820038D02*
X155027693Y-104915276D01*
X155027693Y-104915276D02*
X155075312Y-105010514D01*
X155075312Y-105010514D02*
X155122931Y-105200990D01*
X155122931Y-105200990D02*
X155122931Y-105343847D01*
X155122931Y-105343847D02*
X155075312Y-105534323D01*
X155075312Y-105534323D02*
X155027693Y-105629561D01*
X155027693Y-105629561D02*
X154932455Y-105724800D01*
X154932455Y-105724800D02*
X154789598Y-105772419D01*
X154789598Y-105772419D02*
X154551503Y-105772419D01*
X195227693Y-107420038D02*
X195132455Y-107372419D01*
X195132455Y-107372419D02*
X194989598Y-107372419D01*
X194989598Y-107372419D02*
X194846741Y-107420038D01*
X194846741Y-107420038D02*
X194751503Y-107515276D01*
X194751503Y-107515276D02*
X194703884Y-107610514D01*
X194703884Y-107610514D02*
X194656265Y-107800990D01*
X194656265Y-107800990D02*
X194656265Y-107943847D01*
X194656265Y-107943847D02*
X194703884Y-108134323D01*
X194703884Y-108134323D02*
X194751503Y-108229561D01*
X194751503Y-108229561D02*
X194846741Y-108324800D01*
X194846741Y-108324800D02*
X194989598Y-108372419D01*
X194989598Y-108372419D02*
X195084836Y-108372419D01*
X195084836Y-108372419D02*
X195227693Y-108324800D01*
X195227693Y-108324800D02*
X195275312Y-108277180D01*
X195275312Y-108277180D02*
X195275312Y-107943847D01*
X195275312Y-107943847D02*
X195084836Y-107943847D01*
X195703884Y-108372419D02*
X195703884Y-107372419D01*
X195703884Y-107372419D02*
X196275312Y-108372419D01*
X196275312Y-108372419D02*
X196275312Y-107372419D01*
X196751503Y-108372419D02*
X196751503Y-107372419D01*
X196751503Y-107372419D02*
X196989598Y-107372419D01*
X196989598Y-107372419D02*
X197132455Y-107420038D01*
X197132455Y-107420038D02*
X197227693Y-107515276D01*
X197227693Y-107515276D02*
X197275312Y-107610514D01*
X197275312Y-107610514D02*
X197322931Y-107800990D01*
X197322931Y-107800990D02*
X197322931Y-107943847D01*
X197322931Y-107943847D02*
X197275312Y-108134323D01*
X197275312Y-108134323D02*
X197227693Y-108229561D01*
X197227693Y-108229561D02*
X197132455Y-108324800D01*
X197132455Y-108324800D02*
X196989598Y-108372419D01*
X196989598Y-108372419D02*
X196751503Y-108372419D01*
X173737217Y-100748609D02*
X173880074Y-100796228D01*
X173880074Y-100796228D02*
X173927693Y-100843847D01*
X173927693Y-100843847D02*
X173975312Y-100939085D01*
X173975312Y-100939085D02*
X173975312Y-101081942D01*
X173975312Y-101081942D02*
X173927693Y-101177180D01*
X173927693Y-101177180D02*
X173880074Y-101224800D01*
X173880074Y-101224800D02*
X173784836Y-101272419D01*
X173784836Y-101272419D02*
X173403884Y-101272419D01*
X173403884Y-101272419D02*
X173403884Y-100272419D01*
X173403884Y-100272419D02*
X173737217Y-100272419D01*
X173737217Y-100272419D02*
X173832455Y-100320038D01*
X173832455Y-100320038D02*
X173880074Y-100367657D01*
X173880074Y-100367657D02*
X173927693Y-100462895D01*
X173927693Y-100462895D02*
X173927693Y-100558133D01*
X173927693Y-100558133D02*
X173880074Y-100653371D01*
X173880074Y-100653371D02*
X173832455Y-100700990D01*
X173832455Y-100700990D02*
X173737217Y-100748609D01*
X173737217Y-100748609D02*
X173403884Y-100748609D01*
X174594360Y-100272419D02*
X174784836Y-100272419D01*
X174784836Y-100272419D02*
X174880074Y-100320038D01*
X174880074Y-100320038D02*
X174975312Y-100415276D01*
X174975312Y-100415276D02*
X175022931Y-100605752D01*
X175022931Y-100605752D02*
X175022931Y-100939085D01*
X175022931Y-100939085D02*
X174975312Y-101129561D01*
X174975312Y-101129561D02*
X174880074Y-101224800D01*
X174880074Y-101224800D02*
X174784836Y-101272419D01*
X174784836Y-101272419D02*
X174594360Y-101272419D01*
X174594360Y-101272419D02*
X174499122Y-101224800D01*
X174499122Y-101224800D02*
X174403884Y-101129561D01*
X174403884Y-101129561D02*
X174356265Y-100939085D01*
X174356265Y-100939085D02*
X174356265Y-100605752D01*
X174356265Y-100605752D02*
X174403884Y-100415276D01*
X174403884Y-100415276D02*
X174499122Y-100320038D01*
X174499122Y-100320038D02*
X174594360Y-100272419D01*
X175308646Y-100272419D02*
X175880074Y-100272419D01*
X175594360Y-101272419D02*
X175594360Y-100272419D01*
X142623265Y-91518800D02*
X142766122Y-91566419D01*
X142766122Y-91566419D02*
X143004217Y-91566419D01*
X143004217Y-91566419D02*
X143099455Y-91518800D01*
X143099455Y-91518800D02*
X143147074Y-91471180D01*
X143147074Y-91471180D02*
X143194693Y-91375942D01*
X143194693Y-91375942D02*
X143194693Y-91280704D01*
X143194693Y-91280704D02*
X143147074Y-91185466D01*
X143147074Y-91185466D02*
X143099455Y-91137847D01*
X143099455Y-91137847D02*
X143004217Y-91090228D01*
X143004217Y-91090228D02*
X142813741Y-91042609D01*
X142813741Y-91042609D02*
X142718503Y-90994990D01*
X142718503Y-90994990D02*
X142670884Y-90947371D01*
X142670884Y-90947371D02*
X142623265Y-90852133D01*
X142623265Y-90852133D02*
X142623265Y-90756895D01*
X142623265Y-90756895D02*
X142670884Y-90661657D01*
X142670884Y-90661657D02*
X142718503Y-90614038D01*
X142718503Y-90614038D02*
X142813741Y-90566419D01*
X142813741Y-90566419D02*
X143051836Y-90566419D01*
X143051836Y-90566419D02*
X143194693Y-90614038D01*
X143623265Y-91566419D02*
X143623265Y-90566419D01*
X144623264Y-90614038D02*
X144528026Y-90566419D01*
X144528026Y-90566419D02*
X144385169Y-90566419D01*
X144385169Y-90566419D02*
X144242312Y-90614038D01*
X144242312Y-90614038D02*
X144147074Y-90709276D01*
X144147074Y-90709276D02*
X144099455Y-90804514D01*
X144099455Y-90804514D02*
X144051836Y-90994990D01*
X144051836Y-90994990D02*
X144051836Y-91137847D01*
X144051836Y-91137847D02*
X144099455Y-91328323D01*
X144099455Y-91328323D02*
X144147074Y-91423561D01*
X144147074Y-91423561D02*
X144242312Y-91518800D01*
X144242312Y-91518800D02*
X144385169Y-91566419D01*
X144385169Y-91566419D02*
X144480407Y-91566419D01*
X144480407Y-91566419D02*
X144623264Y-91518800D01*
X144623264Y-91518800D02*
X144670883Y-91471180D01*
X144670883Y-91471180D02*
X144670883Y-91137847D01*
X144670883Y-91137847D02*
X144480407Y-91137847D01*
X145623264Y-91566419D02*
X145051836Y-91566419D01*
X145337550Y-91566419D02*
X145337550Y-90566419D01*
X145337550Y-90566419D02*
X145242312Y-90709276D01*
X145242312Y-90709276D02*
X145147074Y-90804514D01*
X145147074Y-90804514D02*
X145051836Y-90852133D01*
D11*
G36*
X189591328Y-85601300D02*
G01*
X189697688Y-85654481D01*
X189798294Y-85755086D01*
X189850828Y-85912688D01*
X189850828Y-86095489D01*
X188650828Y-86095489D01*
X188650828Y-85912686D01*
X188703361Y-85755087D01*
X188803968Y-85654480D01*
X188910327Y-85601301D01*
X189162149Y-85538346D01*
X189339507Y-85538346D01*
X189591328Y-85601300D01*
G37*
G36*
X190317495Y-86562156D02*
G01*
X188184161Y-86562156D01*
X188184161Y-85888346D01*
X188350828Y-85888346D01*
X188350828Y-86245489D01*
X188353710Y-86274753D01*
X188376108Y-86328825D01*
X188417492Y-86370209D01*
X188471564Y-86392607D01*
X188500828Y-86395489D01*
X190000828Y-86395489D01*
X190030092Y-86392607D01*
X190084164Y-86370209D01*
X190125548Y-86328825D01*
X190147946Y-86274753D01*
X190150828Y-86245489D01*
X190150828Y-85888346D01*
X190149369Y-85873540D01*
X190149651Y-85869586D01*
X190148468Y-85864384D01*
X190147946Y-85859082D01*
X190146430Y-85855424D01*
X190143131Y-85840912D01*
X190071703Y-85626626D01*
X190059715Y-85599775D01*
X190056183Y-85595703D01*
X190054121Y-85590724D01*
X190035466Y-85567994D01*
X189892608Y-85425137D01*
X189881106Y-85415697D01*
X189878510Y-85412704D01*
X189873996Y-85409863D01*
X189869877Y-85406482D01*
X189866217Y-85404966D01*
X189853624Y-85397039D01*
X189710767Y-85325610D01*
X189708626Y-85324790D01*
X189707756Y-85324146D01*
X189695478Y-85319759D01*
X189683304Y-85315101D01*
X189682223Y-85315024D01*
X189680065Y-85314253D01*
X189394351Y-85242825D01*
X189389279Y-85242075D01*
X189387235Y-85241228D01*
X189376212Y-85240142D01*
X189365262Y-85238523D01*
X189363074Y-85238848D01*
X189357971Y-85238346D01*
X189143685Y-85238346D01*
X189138581Y-85238848D01*
X189136394Y-85238523D01*
X189125443Y-85240142D01*
X189114421Y-85241228D01*
X189112376Y-85242075D01*
X189107305Y-85242825D01*
X188821591Y-85314253D01*
X188819432Y-85315024D01*
X188818352Y-85315101D01*
X188806171Y-85319761D01*
X188793900Y-85324146D01*
X188793030Y-85324790D01*
X188790888Y-85325610D01*
X188648032Y-85397039D01*
X188635440Y-85404965D01*
X188631778Y-85406482D01*
X188627655Y-85409865D01*
X188623146Y-85412704D01*
X188620550Y-85415696D01*
X188609048Y-85425137D01*
X188466191Y-85567994D01*
X188447536Y-85590725D01*
X188445473Y-85595704D01*
X188441943Y-85599775D01*
X188429954Y-85626626D01*
X188358526Y-85840912D01*
X188355227Y-85855419D01*
X188353710Y-85859082D01*
X188353187Y-85864390D01*
X188352006Y-85869585D01*
X188352286Y-85873534D01*
X188350828Y-85888346D01*
X188184161Y-85888346D01*
X188184161Y-85071679D01*
X190317495Y-85071679D01*
X190317495Y-86562156D01*
G37*
D12*
X182107200Y-102333332D02*
X182154819Y-102190475D01*
X182154819Y-102190475D02*
X182154819Y-101952380D01*
X182154819Y-101952380D02*
X182107200Y-101857142D01*
X182107200Y-101857142D02*
X182059580Y-101809523D01*
X182059580Y-101809523D02*
X181964342Y-101761904D01*
X181964342Y-101761904D02*
X181869104Y-101761904D01*
X181869104Y-101761904D02*
X181773866Y-101809523D01*
X181773866Y-101809523D02*
X181726247Y-101857142D01*
X181726247Y-101857142D02*
X181678628Y-101952380D01*
X181678628Y-101952380D02*
X181631009Y-102142856D01*
X181631009Y-102142856D02*
X181583390Y-102238094D01*
X181583390Y-102238094D02*
X181535771Y-102285713D01*
X181535771Y-102285713D02*
X181440533Y-102333332D01*
X181440533Y-102333332D02*
X181345295Y-102333332D01*
X181345295Y-102333332D02*
X181250057Y-102285713D01*
X181250057Y-102285713D02*
X181202438Y-102238094D01*
X181202438Y-102238094D02*
X181154819Y-102142856D01*
X181154819Y-102142856D02*
X181154819Y-101904761D01*
X181154819Y-101904761D02*
X181202438Y-101761904D01*
X181154819Y-101428570D02*
X182154819Y-101190475D01*
X182154819Y-101190475D02*
X181440533Y-100999999D01*
X181440533Y-100999999D02*
X182154819Y-100809523D01*
X182154819Y-100809523D02*
X181154819Y-100571428D01*
X181250057Y-100238094D02*
X181202438Y-100190475D01*
X181202438Y-100190475D02*
X181154819Y-100095237D01*
X181154819Y-100095237D02*
X181154819Y-99857142D01*
X181154819Y-99857142D02*
X181202438Y-99761904D01*
X181202438Y-99761904D02*
X181250057Y-99714285D01*
X181250057Y-99714285D02*
X181345295Y-99666666D01*
X181345295Y-99666666D02*
X181440533Y-99666666D01*
X181440533Y-99666666D02*
X181583390Y-99714285D01*
X181583390Y-99714285D02*
X182154819Y-100285713D01*
X182154819Y-100285713D02*
X182154819Y-99666666D01*
X169038095Y-84454819D02*
X169038095Y-83454819D01*
X169038095Y-83931009D02*
X169609523Y-83931009D01*
X169609523Y-84454819D02*
X169609523Y-83454819D01*
X170228571Y-83883390D02*
X170133333Y-83835771D01*
X170133333Y-83835771D02*
X170085714Y-83788152D01*
X170085714Y-83788152D02*
X170038095Y-83692914D01*
X170038095Y-83692914D02*
X170038095Y-83645295D01*
X170038095Y-83645295D02*
X170085714Y-83550057D01*
X170085714Y-83550057D02*
X170133333Y-83502438D01*
X170133333Y-83502438D02*
X170228571Y-83454819D01*
X170228571Y-83454819D02*
X170419047Y-83454819D01*
X170419047Y-83454819D02*
X170514285Y-83502438D01*
X170514285Y-83502438D02*
X170561904Y-83550057D01*
X170561904Y-83550057D02*
X170609523Y-83645295D01*
X170609523Y-83645295D02*
X170609523Y-83692914D01*
X170609523Y-83692914D02*
X170561904Y-83788152D01*
X170561904Y-83788152D02*
X170514285Y-83835771D01*
X170514285Y-83835771D02*
X170419047Y-83883390D01*
X170419047Y-83883390D02*
X170228571Y-83883390D01*
X170228571Y-83883390D02*
X170133333Y-83931009D01*
X170133333Y-83931009D02*
X170085714Y-83978628D01*
X170085714Y-83978628D02*
X170038095Y-84073866D01*
X170038095Y-84073866D02*
X170038095Y-84264342D01*
X170038095Y-84264342D02*
X170085714Y-84359580D01*
X170085714Y-84359580D02*
X170133333Y-84407200D01*
X170133333Y-84407200D02*
X170228571Y-84454819D01*
X170228571Y-84454819D02*
X170419047Y-84454819D01*
X170419047Y-84454819D02*
X170514285Y-84407200D01*
X170514285Y-84407200D02*
X170561904Y-84359580D01*
X170561904Y-84359580D02*
X170609523Y-84264342D01*
X170609523Y-84264342D02*
X170609523Y-84073866D01*
X170609523Y-84073866D02*
X170561904Y-83978628D01*
X170561904Y-83978628D02*
X170514285Y-83931009D01*
X170514285Y-83931009D02*
X170419047Y-83883390D01*
X169438095Y-111854819D02*
X169438095Y-110854819D01*
X169438095Y-111331009D02*
X170009523Y-111331009D01*
X170009523Y-111854819D02*
X170009523Y-110854819D01*
X170390476Y-110854819D02*
X171057142Y-110854819D01*
X171057142Y-110854819D02*
X170628571Y-111854819D01*
X197554819Y-97866666D02*
X197078628Y-98199999D01*
X197554819Y-98438094D02*
X196554819Y-98438094D01*
X196554819Y-98438094D02*
X196554819Y-98057142D01*
X196554819Y-98057142D02*
X196602438Y-97961904D01*
X196602438Y-97961904D02*
X196650057Y-97914285D01*
X196650057Y-97914285D02*
X196745295Y-97866666D01*
X196745295Y-97866666D02*
X196888152Y-97866666D01*
X196888152Y-97866666D02*
X196983390Y-97914285D01*
X196983390Y-97914285D02*
X197031009Y-97961904D01*
X197031009Y-97961904D02*
X197078628Y-98057142D01*
X197078628Y-98057142D02*
X197078628Y-98438094D01*
X196554819Y-96961904D02*
X196554819Y-97438094D01*
X196554819Y-97438094D02*
X197031009Y-97485713D01*
X197031009Y-97485713D02*
X196983390Y-97438094D01*
X196983390Y-97438094D02*
X196935771Y-97342856D01*
X196935771Y-97342856D02*
X196935771Y-97104761D01*
X196935771Y-97104761D02*
X196983390Y-97009523D01*
X196983390Y-97009523D02*
X197031009Y-96961904D01*
X197031009Y-96961904D02*
X197126247Y-96914285D01*
X197126247Y-96914285D02*
X197364342Y-96914285D01*
X197364342Y-96914285D02*
X197459580Y-96961904D01*
X197459580Y-96961904D02*
X197507200Y-97009523D01*
X197507200Y-97009523D02*
X197554819Y-97104761D01*
X197554819Y-97104761D02*
X197554819Y-97342856D01*
X197554819Y-97342856D02*
X197507200Y-97438094D01*
X197507200Y-97438094D02*
X197459580Y-97485713D01*
X130738095Y-96254819D02*
X130738095Y-97064342D01*
X130738095Y-97064342D02*
X130785714Y-97159580D01*
X130785714Y-97159580D02*
X130833333Y-97207200D01*
X130833333Y-97207200D02*
X130928571Y-97254819D01*
X130928571Y-97254819D02*
X131119047Y-97254819D01*
X131119047Y-97254819D02*
X131214285Y-97207200D01*
X131214285Y-97207200D02*
X131261904Y-97159580D01*
X131261904Y-97159580D02*
X131309523Y-97064342D01*
X131309523Y-97064342D02*
X131309523Y-96254819D01*
X132309523Y-97254819D02*
X131738095Y-97254819D01*
X132023809Y-97254819D02*
X132023809Y-96254819D01*
X132023809Y-96254819D02*
X131928571Y-96397676D01*
X131928571Y-96397676D02*
X131833333Y-96492914D01*
X131833333Y-96492914D02*
X131738095Y-96540533D01*
X148438095Y-84454819D02*
X148438095Y-83454819D01*
X148438095Y-83931009D02*
X149009523Y-83931009D01*
X149009523Y-84454819D02*
X149009523Y-83454819D01*
X149961904Y-83454819D02*
X149485714Y-83454819D01*
X149485714Y-83454819D02*
X149438095Y-83931009D01*
X149438095Y-83931009D02*
X149485714Y-83883390D01*
X149485714Y-83883390D02*
X149580952Y-83835771D01*
X149580952Y-83835771D02*
X149819047Y-83835771D01*
X149819047Y-83835771D02*
X149914285Y-83883390D01*
X149914285Y-83883390D02*
X149961904Y-83931009D01*
X149961904Y-83931009D02*
X150009523Y-84026247D01*
X150009523Y-84026247D02*
X150009523Y-84264342D01*
X150009523Y-84264342D02*
X149961904Y-84359580D01*
X149961904Y-84359580D02*
X149914285Y-84407200D01*
X149914285Y-84407200D02*
X149819047Y-84454819D01*
X149819047Y-84454819D02*
X149580952Y-84454819D01*
X149580952Y-84454819D02*
X149485714Y-84407200D01*
X149485714Y-84407200D02*
X149438095Y-84359580D01*
X193554819Y-100066666D02*
X193078628Y-100399999D01*
X193554819Y-100638094D02*
X192554819Y-100638094D01*
X192554819Y-100638094D02*
X192554819Y-100257142D01*
X192554819Y-100257142D02*
X192602438Y-100161904D01*
X192602438Y-100161904D02*
X192650057Y-100114285D01*
X192650057Y-100114285D02*
X192745295Y-100066666D01*
X192745295Y-100066666D02*
X192888152Y-100066666D01*
X192888152Y-100066666D02*
X192983390Y-100114285D01*
X192983390Y-100114285D02*
X193031009Y-100161904D01*
X193031009Y-100161904D02*
X193078628Y-100257142D01*
X193078628Y-100257142D02*
X193078628Y-100638094D01*
X192554819Y-99209523D02*
X192554819Y-99399999D01*
X192554819Y-99399999D02*
X192602438Y-99495237D01*
X192602438Y-99495237D02*
X192650057Y-99542856D01*
X192650057Y-99542856D02*
X192792914Y-99638094D01*
X192792914Y-99638094D02*
X192983390Y-99685713D01*
X192983390Y-99685713D02*
X193364342Y-99685713D01*
X193364342Y-99685713D02*
X193459580Y-99638094D01*
X193459580Y-99638094D02*
X193507200Y-99590475D01*
X193507200Y-99590475D02*
X193554819Y-99495237D01*
X193554819Y-99495237D02*
X193554819Y-99304761D01*
X193554819Y-99304761D02*
X193507200Y-99209523D01*
X193507200Y-99209523D02*
X193459580Y-99161904D01*
X193459580Y-99161904D02*
X193364342Y-99114285D01*
X193364342Y-99114285D02*
X193126247Y-99114285D01*
X193126247Y-99114285D02*
X193031009Y-99161904D01*
X193031009Y-99161904D02*
X192983390Y-99209523D01*
X192983390Y-99209523D02*
X192935771Y-99304761D01*
X192935771Y-99304761D02*
X192935771Y-99495237D01*
X192935771Y-99495237D02*
X192983390Y-99590475D01*
X192983390Y-99590475D02*
X193031009Y-99638094D01*
X193031009Y-99638094D02*
X193126247Y-99685713D01*
X124857142Y-98054819D02*
X124523809Y-97578628D01*
X124285714Y-98054819D02*
X124285714Y-97054819D01*
X124285714Y-97054819D02*
X124666666Y-97054819D01*
X124666666Y-97054819D02*
X124761904Y-97102438D01*
X124761904Y-97102438D02*
X124809523Y-97150057D01*
X124809523Y-97150057D02*
X124857142Y-97245295D01*
X124857142Y-97245295D02*
X124857142Y-97388152D01*
X124857142Y-97388152D02*
X124809523Y-97483390D01*
X124809523Y-97483390D02*
X124761904Y-97531009D01*
X124761904Y-97531009D02*
X124666666Y-97578628D01*
X124666666Y-97578628D02*
X124285714Y-97578628D01*
X125809523Y-98054819D02*
X125238095Y-98054819D01*
X125523809Y-98054819D02*
X125523809Y-97054819D01*
X125523809Y-97054819D02*
X125428571Y-97197676D01*
X125428571Y-97197676D02*
X125333333Y-97292914D01*
X125333333Y-97292914D02*
X125238095Y-97340533D01*
X126428571Y-97054819D02*
X126523809Y-97054819D01*
X126523809Y-97054819D02*
X126619047Y-97102438D01*
X126619047Y-97102438D02*
X126666666Y-97150057D01*
X126666666Y-97150057D02*
X126714285Y-97245295D01*
X126714285Y-97245295D02*
X126761904Y-97435771D01*
X126761904Y-97435771D02*
X126761904Y-97673866D01*
X126761904Y-97673866D02*
X126714285Y-97864342D01*
X126714285Y-97864342D02*
X126666666Y-97959580D01*
X126666666Y-97959580D02*
X126619047Y-98007200D01*
X126619047Y-98007200D02*
X126523809Y-98054819D01*
X126523809Y-98054819D02*
X126428571Y-98054819D01*
X126428571Y-98054819D02*
X126333333Y-98007200D01*
X126333333Y-98007200D02*
X126285714Y-97959580D01*
X126285714Y-97959580D02*
X126238095Y-97864342D01*
X126238095Y-97864342D02*
X126190476Y-97673866D01*
X126190476Y-97673866D02*
X126190476Y-97435771D01*
X126190476Y-97435771D02*
X126238095Y-97245295D01*
X126238095Y-97245295D02*
X126285714Y-97150057D01*
X126285714Y-97150057D02*
X126333333Y-97102438D01*
X126333333Y-97102438D02*
X126428571Y-97054819D01*
X178354819Y-93166666D02*
X177878628Y-93499999D01*
X178354819Y-93738094D02*
X177354819Y-93738094D01*
X177354819Y-93738094D02*
X177354819Y-93357142D01*
X177354819Y-93357142D02*
X177402438Y-93261904D01*
X177402438Y-93261904D02*
X177450057Y-93214285D01*
X177450057Y-93214285D02*
X177545295Y-93166666D01*
X177545295Y-93166666D02*
X177688152Y-93166666D01*
X177688152Y-93166666D02*
X177783390Y-93214285D01*
X177783390Y-93214285D02*
X177831009Y-93261904D01*
X177831009Y-93261904D02*
X177878628Y-93357142D01*
X177878628Y-93357142D02*
X177878628Y-93738094D01*
X177354819Y-92833332D02*
X177354819Y-92166666D01*
X177354819Y-92166666D02*
X178354819Y-92595237D01*
X197554819Y-95366666D02*
X197078628Y-95699999D01*
X197554819Y-95938094D02*
X196554819Y-95938094D01*
X196554819Y-95938094D02*
X196554819Y-95557142D01*
X196554819Y-95557142D02*
X196602438Y-95461904D01*
X196602438Y-95461904D02*
X196650057Y-95414285D01*
X196650057Y-95414285D02*
X196745295Y-95366666D01*
X196745295Y-95366666D02*
X196888152Y-95366666D01*
X196888152Y-95366666D02*
X196983390Y-95414285D01*
X196983390Y-95414285D02*
X197031009Y-95461904D01*
X197031009Y-95461904D02*
X197078628Y-95557142D01*
X197078628Y-95557142D02*
X197078628Y-95938094D01*
X196888152Y-94509523D02*
X197554819Y-94509523D01*
X196507200Y-94747618D02*
X197221485Y-94985713D01*
X197221485Y-94985713D02*
X197221485Y-94366666D01*
X189707200Y-102453332D02*
X189754819Y-102310475D01*
X189754819Y-102310475D02*
X189754819Y-102072380D01*
X189754819Y-102072380D02*
X189707200Y-101977142D01*
X189707200Y-101977142D02*
X189659580Y-101929523D01*
X189659580Y-101929523D02*
X189564342Y-101881904D01*
X189564342Y-101881904D02*
X189469104Y-101881904D01*
X189469104Y-101881904D02*
X189373866Y-101929523D01*
X189373866Y-101929523D02*
X189326247Y-101977142D01*
X189326247Y-101977142D02*
X189278628Y-102072380D01*
X189278628Y-102072380D02*
X189231009Y-102262856D01*
X189231009Y-102262856D02*
X189183390Y-102358094D01*
X189183390Y-102358094D02*
X189135771Y-102405713D01*
X189135771Y-102405713D02*
X189040533Y-102453332D01*
X189040533Y-102453332D02*
X188945295Y-102453332D01*
X188945295Y-102453332D02*
X188850057Y-102405713D01*
X188850057Y-102405713D02*
X188802438Y-102358094D01*
X188802438Y-102358094D02*
X188754819Y-102262856D01*
X188754819Y-102262856D02*
X188754819Y-102024761D01*
X188754819Y-102024761D02*
X188802438Y-101881904D01*
X188754819Y-101548570D02*
X189754819Y-101310475D01*
X189754819Y-101310475D02*
X189040533Y-101119999D01*
X189040533Y-101119999D02*
X189754819Y-100929523D01*
X189754819Y-100929523D02*
X188754819Y-100691428D01*
X189088152Y-99881904D02*
X189754819Y-99881904D01*
X188707200Y-100119999D02*
X189421485Y-100358094D01*
X189421485Y-100358094D02*
X189421485Y-99739047D01*
X173861905Y-111854819D02*
X173861905Y-110854819D01*
X173861905Y-111331009D02*
X174433333Y-111331009D01*
X174433333Y-111854819D02*
X174433333Y-110854819D01*
X175433333Y-111854819D02*
X174861905Y-111854819D01*
X175147619Y-111854819D02*
X175147619Y-110854819D01*
X175147619Y-110854819D02*
X175052381Y-110997676D01*
X175052381Y-110997676D02*
X174957143Y-111092914D01*
X174957143Y-111092914D02*
X174861905Y-111140533D01*
X176385714Y-111854819D02*
X175814286Y-111854819D01*
X176100000Y-111854819D02*
X176100000Y-110854819D01*
X176100000Y-110854819D02*
X176004762Y-110997676D01*
X176004762Y-110997676D02*
X175909524Y-111092914D01*
X175909524Y-111092914D02*
X175814286Y-111140533D01*
X174354819Y-98166666D02*
X173878628Y-98499999D01*
X174354819Y-98738094D02*
X173354819Y-98738094D01*
X173354819Y-98738094D02*
X173354819Y-98357142D01*
X173354819Y-98357142D02*
X173402438Y-98261904D01*
X173402438Y-98261904D02*
X173450057Y-98214285D01*
X173450057Y-98214285D02*
X173545295Y-98166666D01*
X173545295Y-98166666D02*
X173688152Y-98166666D01*
X173688152Y-98166666D02*
X173783390Y-98214285D01*
X173783390Y-98214285D02*
X173831009Y-98261904D01*
X173831009Y-98261904D02*
X173878628Y-98357142D01*
X173878628Y-98357142D02*
X173878628Y-98738094D01*
X173354819Y-97833332D02*
X173354819Y-97214285D01*
X173354819Y-97214285D02*
X173735771Y-97547618D01*
X173735771Y-97547618D02*
X173735771Y-97404761D01*
X173735771Y-97404761D02*
X173783390Y-97309523D01*
X173783390Y-97309523D02*
X173831009Y-97261904D01*
X173831009Y-97261904D02*
X173926247Y-97214285D01*
X173926247Y-97214285D02*
X174164342Y-97214285D01*
X174164342Y-97214285D02*
X174259580Y-97261904D01*
X174259580Y-97261904D02*
X174307200Y-97309523D01*
X174307200Y-97309523D02*
X174354819Y-97404761D01*
X174354819Y-97404761D02*
X174354819Y-97690475D01*
X174354819Y-97690475D02*
X174307200Y-97785713D01*
X174307200Y-97785713D02*
X174259580Y-97833332D01*
X122138095Y-111654819D02*
X122138095Y-110654819D01*
X122138095Y-111131009D02*
X122709523Y-111131009D01*
X122709523Y-111654819D02*
X122709523Y-110654819D01*
X123138095Y-110750057D02*
X123185714Y-110702438D01*
X123185714Y-110702438D02*
X123280952Y-110654819D01*
X123280952Y-110654819D02*
X123519047Y-110654819D01*
X123519047Y-110654819D02*
X123614285Y-110702438D01*
X123614285Y-110702438D02*
X123661904Y-110750057D01*
X123661904Y-110750057D02*
X123709523Y-110845295D01*
X123709523Y-110845295D02*
X123709523Y-110940533D01*
X123709523Y-110940533D02*
X123661904Y-111083390D01*
X123661904Y-111083390D02*
X123090476Y-111654819D01*
X123090476Y-111654819D02*
X123709523Y-111654819D01*
X138424819Y-87933333D02*
X139139104Y-87933333D01*
X139139104Y-87933333D02*
X139281961Y-87980952D01*
X139281961Y-87980952D02*
X139377200Y-88076190D01*
X139377200Y-88076190D02*
X139424819Y-88219047D01*
X139424819Y-88219047D02*
X139424819Y-88314285D01*
X138520057Y-87504761D02*
X138472438Y-87457142D01*
X138472438Y-87457142D02*
X138424819Y-87361904D01*
X138424819Y-87361904D02*
X138424819Y-87123809D01*
X138424819Y-87123809D02*
X138472438Y-87028571D01*
X138472438Y-87028571D02*
X138520057Y-86980952D01*
X138520057Y-86980952D02*
X138615295Y-86933333D01*
X138615295Y-86933333D02*
X138710533Y-86933333D01*
X138710533Y-86933333D02*
X138853390Y-86980952D01*
X138853390Y-86980952D02*
X139424819Y-87552380D01*
X139424819Y-87552380D02*
X139424819Y-86933333D01*
X195038095Y-84454819D02*
X195038095Y-83454819D01*
X195038095Y-83931009D02*
X195609523Y-83931009D01*
X195609523Y-84454819D02*
X195609523Y-83454819D01*
X196133333Y-84454819D02*
X196323809Y-84454819D01*
X196323809Y-84454819D02*
X196419047Y-84407200D01*
X196419047Y-84407200D02*
X196466666Y-84359580D01*
X196466666Y-84359580D02*
X196561904Y-84216723D01*
X196561904Y-84216723D02*
X196609523Y-84026247D01*
X196609523Y-84026247D02*
X196609523Y-83645295D01*
X196609523Y-83645295D02*
X196561904Y-83550057D01*
X196561904Y-83550057D02*
X196514285Y-83502438D01*
X196514285Y-83502438D02*
X196419047Y-83454819D01*
X196419047Y-83454819D02*
X196228571Y-83454819D01*
X196228571Y-83454819D02*
X196133333Y-83502438D01*
X196133333Y-83502438D02*
X196085714Y-83550057D01*
X196085714Y-83550057D02*
X196038095Y-83645295D01*
X196038095Y-83645295D02*
X196038095Y-83883390D01*
X196038095Y-83883390D02*
X196085714Y-83978628D01*
X196085714Y-83978628D02*
X196133333Y-84026247D01*
X196133333Y-84026247D02*
X196228571Y-84073866D01*
X196228571Y-84073866D02*
X196419047Y-84073866D01*
X196419047Y-84073866D02*
X196514285Y-84026247D01*
X196514285Y-84026247D02*
X196561904Y-83978628D01*
X196561904Y-83978628D02*
X196609523Y-83883390D01*
X194761905Y-111554819D02*
X194761905Y-110554819D01*
X194761905Y-111031009D02*
X195333333Y-111031009D01*
X195333333Y-111554819D02*
X195333333Y-110554819D01*
X196333333Y-111554819D02*
X195761905Y-111554819D01*
X196047619Y-111554819D02*
X196047619Y-110554819D01*
X196047619Y-110554819D02*
X195952381Y-110697676D01*
X195952381Y-110697676D02*
X195857143Y-110792914D01*
X195857143Y-110792914D02*
X195761905Y-110840533D01*
X196952381Y-110554819D02*
X197047619Y-110554819D01*
X197047619Y-110554819D02*
X197142857Y-110602438D01*
X197142857Y-110602438D02*
X197190476Y-110650057D01*
X197190476Y-110650057D02*
X197238095Y-110745295D01*
X197238095Y-110745295D02*
X197285714Y-110935771D01*
X197285714Y-110935771D02*
X197285714Y-111173866D01*
X197285714Y-111173866D02*
X197238095Y-111364342D01*
X197238095Y-111364342D02*
X197190476Y-111459580D01*
X197190476Y-111459580D02*
X197142857Y-111507200D01*
X197142857Y-111507200D02*
X197047619Y-111554819D01*
X197047619Y-111554819D02*
X196952381Y-111554819D01*
X196952381Y-111554819D02*
X196857143Y-111507200D01*
X196857143Y-111507200D02*
X196809524Y-111459580D01*
X196809524Y-111459580D02*
X196761905Y-111364342D01*
X196761905Y-111364342D02*
X196714286Y-111173866D01*
X196714286Y-111173866D02*
X196714286Y-110935771D01*
X196714286Y-110935771D02*
X196761905Y-110745295D01*
X196761905Y-110745295D02*
X196809524Y-110650057D01*
X196809524Y-110650057D02*
X196857143Y-110602438D01*
X196857143Y-110602438D02*
X196952381Y-110554819D01*
X138233333Y-98854819D02*
X137900000Y-98378628D01*
X137661905Y-98854819D02*
X137661905Y-97854819D01*
X137661905Y-97854819D02*
X138042857Y-97854819D01*
X138042857Y-97854819D02*
X138138095Y-97902438D01*
X138138095Y-97902438D02*
X138185714Y-97950057D01*
X138185714Y-97950057D02*
X138233333Y-98045295D01*
X138233333Y-98045295D02*
X138233333Y-98188152D01*
X138233333Y-98188152D02*
X138185714Y-98283390D01*
X138185714Y-98283390D02*
X138138095Y-98331009D01*
X138138095Y-98331009D02*
X138042857Y-98378628D01*
X138042857Y-98378628D02*
X137661905Y-98378628D01*
X139185714Y-98854819D02*
X138614286Y-98854819D01*
X138900000Y-98854819D02*
X138900000Y-97854819D01*
X138900000Y-97854819D02*
X138804762Y-97997676D01*
X138804762Y-97997676D02*
X138709524Y-98092914D01*
X138709524Y-98092914D02*
X138614286Y-98140533D01*
X123150333Y-94942819D02*
X122817000Y-94466628D01*
X122578905Y-94942819D02*
X122578905Y-93942819D01*
X122578905Y-93942819D02*
X122959857Y-93942819D01*
X122959857Y-93942819D02*
X123055095Y-93990438D01*
X123055095Y-93990438D02*
X123102714Y-94038057D01*
X123102714Y-94038057D02*
X123150333Y-94133295D01*
X123150333Y-94133295D02*
X123150333Y-94276152D01*
X123150333Y-94276152D02*
X123102714Y-94371390D01*
X123102714Y-94371390D02*
X123055095Y-94419009D01*
X123055095Y-94419009D02*
X122959857Y-94466628D01*
X122959857Y-94466628D02*
X122578905Y-94466628D01*
X123721762Y-94371390D02*
X123626524Y-94323771D01*
X123626524Y-94323771D02*
X123578905Y-94276152D01*
X123578905Y-94276152D02*
X123531286Y-94180914D01*
X123531286Y-94180914D02*
X123531286Y-94133295D01*
X123531286Y-94133295D02*
X123578905Y-94038057D01*
X123578905Y-94038057D02*
X123626524Y-93990438D01*
X123626524Y-93990438D02*
X123721762Y-93942819D01*
X123721762Y-93942819D02*
X123912238Y-93942819D01*
X123912238Y-93942819D02*
X124007476Y-93990438D01*
X124007476Y-93990438D02*
X124055095Y-94038057D01*
X124055095Y-94038057D02*
X124102714Y-94133295D01*
X124102714Y-94133295D02*
X124102714Y-94180914D01*
X124102714Y-94180914D02*
X124055095Y-94276152D01*
X124055095Y-94276152D02*
X124007476Y-94323771D01*
X124007476Y-94323771D02*
X123912238Y-94371390D01*
X123912238Y-94371390D02*
X123721762Y-94371390D01*
X123721762Y-94371390D02*
X123626524Y-94419009D01*
X123626524Y-94419009D02*
X123578905Y-94466628D01*
X123578905Y-94466628D02*
X123531286Y-94561866D01*
X123531286Y-94561866D02*
X123531286Y-94752342D01*
X123531286Y-94752342D02*
X123578905Y-94847580D01*
X123578905Y-94847580D02*
X123626524Y-94895200D01*
X123626524Y-94895200D02*
X123721762Y-94942819D01*
X123721762Y-94942819D02*
X123912238Y-94942819D01*
X123912238Y-94942819D02*
X124007476Y-94895200D01*
X124007476Y-94895200D02*
X124055095Y-94847580D01*
X124055095Y-94847580D02*
X124102714Y-94752342D01*
X124102714Y-94752342D02*
X124102714Y-94561866D01*
X124102714Y-94561866D02*
X124055095Y-94466628D01*
X124055095Y-94466628D02*
X124007476Y-94419009D01*
X124007476Y-94419009D02*
X123912238Y-94371390D01*
X143161905Y-94954819D02*
X143161905Y-93954819D01*
X143161905Y-93954819D02*
X143400000Y-93954819D01*
X143400000Y-93954819D02*
X143542857Y-94002438D01*
X143542857Y-94002438D02*
X143638095Y-94097676D01*
X143638095Y-94097676D02*
X143685714Y-94192914D01*
X143685714Y-94192914D02*
X143733333Y-94383390D01*
X143733333Y-94383390D02*
X143733333Y-94526247D01*
X143733333Y-94526247D02*
X143685714Y-94716723D01*
X143685714Y-94716723D02*
X143638095Y-94811961D01*
X143638095Y-94811961D02*
X143542857Y-94907200D01*
X143542857Y-94907200D02*
X143400000Y-94954819D01*
X143400000Y-94954819D02*
X143161905Y-94954819D01*
X144685714Y-94954819D02*
X144114286Y-94954819D01*
X144400000Y-94954819D02*
X144400000Y-93954819D01*
X144400000Y-93954819D02*
X144304762Y-94097676D01*
X144304762Y-94097676D02*
X144209524Y-94192914D01*
X144209524Y-94192914D02*
X144114286Y-94240533D01*
X143238095Y-111854819D02*
X143238095Y-110854819D01*
X143238095Y-111331009D02*
X143809523Y-111331009D01*
X143809523Y-111854819D02*
X143809523Y-110854819D01*
X144190476Y-110854819D02*
X144809523Y-110854819D01*
X144809523Y-110854819D02*
X144476190Y-111235771D01*
X144476190Y-111235771D02*
X144619047Y-111235771D01*
X144619047Y-111235771D02*
X144714285Y-111283390D01*
X144714285Y-111283390D02*
X144761904Y-111331009D01*
X144761904Y-111331009D02*
X144809523Y-111426247D01*
X144809523Y-111426247D02*
X144809523Y-111664342D01*
X144809523Y-111664342D02*
X144761904Y-111759580D01*
X144761904Y-111759580D02*
X144714285Y-111807200D01*
X144714285Y-111807200D02*
X144619047Y-111854819D01*
X144619047Y-111854819D02*
X144333333Y-111854819D01*
X144333333Y-111854819D02*
X144238095Y-111807200D01*
X144238095Y-111807200D02*
X144190476Y-111759580D01*
X122438095Y-84454819D02*
X122438095Y-83454819D01*
X122438095Y-83931009D02*
X123009523Y-83931009D01*
X123009523Y-84454819D02*
X123009523Y-83454819D01*
X124009523Y-84454819D02*
X123438095Y-84454819D01*
X123723809Y-84454819D02*
X123723809Y-83454819D01*
X123723809Y-83454819D02*
X123628571Y-83597676D01*
X123628571Y-83597676D02*
X123533333Y-83692914D01*
X123533333Y-83692914D02*
X123438095Y-83740533D01*
X174354819Y-95566666D02*
X173878628Y-95899999D01*
X174354819Y-96138094D02*
X173354819Y-96138094D01*
X173354819Y-96138094D02*
X173354819Y-95757142D01*
X173354819Y-95757142D02*
X173402438Y-95661904D01*
X173402438Y-95661904D02*
X173450057Y-95614285D01*
X173450057Y-95614285D02*
X173545295Y-95566666D01*
X173545295Y-95566666D02*
X173688152Y-95566666D01*
X173688152Y-95566666D02*
X173783390Y-95614285D01*
X173783390Y-95614285D02*
X173831009Y-95661904D01*
X173831009Y-95661904D02*
X173878628Y-95757142D01*
X173878628Y-95757142D02*
X173878628Y-96138094D01*
X173450057Y-95185713D02*
X173402438Y-95138094D01*
X173402438Y-95138094D02*
X173354819Y-95042856D01*
X173354819Y-95042856D02*
X173354819Y-94804761D01*
X173354819Y-94804761D02*
X173402438Y-94709523D01*
X173402438Y-94709523D02*
X173450057Y-94661904D01*
X173450057Y-94661904D02*
X173545295Y-94614285D01*
X173545295Y-94614285D02*
X173640533Y-94614285D01*
X173640533Y-94614285D02*
X173783390Y-94661904D01*
X173783390Y-94661904D02*
X174354819Y-95233332D01*
X174354819Y-95233332D02*
X174354819Y-94614285D01*
X143038095Y-84454819D02*
X143038095Y-83454819D01*
X143038095Y-83931009D02*
X143609523Y-83931009D01*
X143609523Y-84454819D02*
X143609523Y-83454819D01*
X144514285Y-83788152D02*
X144514285Y-84454819D01*
X144276190Y-83407200D02*
X144038095Y-84121485D01*
X144038095Y-84121485D02*
X144657142Y-84121485D01*
X189707200Y-92453332D02*
X189754819Y-92310475D01*
X189754819Y-92310475D02*
X189754819Y-92072380D01*
X189754819Y-92072380D02*
X189707200Y-91977142D01*
X189707200Y-91977142D02*
X189659580Y-91929523D01*
X189659580Y-91929523D02*
X189564342Y-91881904D01*
X189564342Y-91881904D02*
X189469104Y-91881904D01*
X189469104Y-91881904D02*
X189373866Y-91929523D01*
X189373866Y-91929523D02*
X189326247Y-91977142D01*
X189326247Y-91977142D02*
X189278628Y-92072380D01*
X189278628Y-92072380D02*
X189231009Y-92262856D01*
X189231009Y-92262856D02*
X189183390Y-92358094D01*
X189183390Y-92358094D02*
X189135771Y-92405713D01*
X189135771Y-92405713D02*
X189040533Y-92453332D01*
X189040533Y-92453332D02*
X188945295Y-92453332D01*
X188945295Y-92453332D02*
X188850057Y-92405713D01*
X188850057Y-92405713D02*
X188802438Y-92358094D01*
X188802438Y-92358094D02*
X188754819Y-92262856D01*
X188754819Y-92262856D02*
X188754819Y-92024761D01*
X188754819Y-92024761D02*
X188802438Y-91881904D01*
X188754819Y-91548570D02*
X189754819Y-91310475D01*
X189754819Y-91310475D02*
X189040533Y-91119999D01*
X189040533Y-91119999D02*
X189754819Y-90929523D01*
X189754819Y-90929523D02*
X188754819Y-90691428D01*
X188754819Y-90405713D02*
X188754819Y-89786666D01*
X188754819Y-89786666D02*
X189135771Y-90119999D01*
X189135771Y-90119999D02*
X189135771Y-89977142D01*
X189135771Y-89977142D02*
X189183390Y-89881904D01*
X189183390Y-89881904D02*
X189231009Y-89834285D01*
X189231009Y-89834285D02*
X189326247Y-89786666D01*
X189326247Y-89786666D02*
X189564342Y-89786666D01*
X189564342Y-89786666D02*
X189659580Y-89834285D01*
X189659580Y-89834285D02*
X189707200Y-89881904D01*
X189707200Y-89881904D02*
X189754819Y-89977142D01*
X189754819Y-89977142D02*
X189754819Y-90262856D01*
X189754819Y-90262856D02*
X189707200Y-90358094D01*
X189707200Y-90358094D02*
X189659580Y-90405713D01*
X138133333Y-101054819D02*
X137800000Y-100578628D01*
X137561905Y-101054819D02*
X137561905Y-100054819D01*
X137561905Y-100054819D02*
X137942857Y-100054819D01*
X137942857Y-100054819D02*
X138038095Y-100102438D01*
X138038095Y-100102438D02*
X138085714Y-100150057D01*
X138085714Y-100150057D02*
X138133333Y-100245295D01*
X138133333Y-100245295D02*
X138133333Y-100388152D01*
X138133333Y-100388152D02*
X138085714Y-100483390D01*
X138085714Y-100483390D02*
X138038095Y-100531009D01*
X138038095Y-100531009D02*
X137942857Y-100578628D01*
X137942857Y-100578628D02*
X137561905Y-100578628D01*
X138609524Y-101054819D02*
X138800000Y-101054819D01*
X138800000Y-101054819D02*
X138895238Y-101007200D01*
X138895238Y-101007200D02*
X138942857Y-100959580D01*
X138942857Y-100959580D02*
X139038095Y-100816723D01*
X139038095Y-100816723D02*
X139085714Y-100626247D01*
X139085714Y-100626247D02*
X139085714Y-100245295D01*
X139085714Y-100245295D02*
X139038095Y-100150057D01*
X139038095Y-100150057D02*
X138990476Y-100102438D01*
X138990476Y-100102438D02*
X138895238Y-100054819D01*
X138895238Y-100054819D02*
X138704762Y-100054819D01*
X138704762Y-100054819D02*
X138609524Y-100102438D01*
X138609524Y-100102438D02*
X138561905Y-100150057D01*
X138561905Y-100150057D02*
X138514286Y-100245295D01*
X138514286Y-100245295D02*
X138514286Y-100483390D01*
X138514286Y-100483390D02*
X138561905Y-100578628D01*
X138561905Y-100578628D02*
X138609524Y-100626247D01*
X138609524Y-100626247D02*
X138704762Y-100673866D01*
X138704762Y-100673866D02*
X138895238Y-100673866D01*
X138895238Y-100673866D02*
X138990476Y-100626247D01*
X138990476Y-100626247D02*
X139038095Y-100578628D01*
X139038095Y-100578628D02*
X139085714Y-100483390D01*
X148038095Y-111554819D02*
X148038095Y-110554819D01*
X148038095Y-111031009D02*
X148609523Y-111031009D01*
X148609523Y-111554819D02*
X148609523Y-110554819D01*
X149514285Y-110554819D02*
X149323809Y-110554819D01*
X149323809Y-110554819D02*
X149228571Y-110602438D01*
X149228571Y-110602438D02*
X149180952Y-110650057D01*
X149180952Y-110650057D02*
X149085714Y-110792914D01*
X149085714Y-110792914D02*
X149038095Y-110983390D01*
X149038095Y-110983390D02*
X149038095Y-111364342D01*
X149038095Y-111364342D02*
X149085714Y-111459580D01*
X149085714Y-111459580D02*
X149133333Y-111507200D01*
X149133333Y-111507200D02*
X149228571Y-111554819D01*
X149228571Y-111554819D02*
X149419047Y-111554819D01*
X149419047Y-111554819D02*
X149514285Y-111507200D01*
X149514285Y-111507200D02*
X149561904Y-111459580D01*
X149561904Y-111459580D02*
X149609523Y-111364342D01*
X149609523Y-111364342D02*
X149609523Y-111126247D01*
X149609523Y-111126247D02*
X149561904Y-111031009D01*
X149561904Y-111031009D02*
X149514285Y-110983390D01*
X149514285Y-110983390D02*
X149419047Y-110935771D01*
X149419047Y-110935771D02*
X149228571Y-110935771D01*
X149228571Y-110935771D02*
X149133333Y-110983390D01*
X149133333Y-110983390D02*
X149085714Y-111031009D01*
X149085714Y-111031009D02*
X149038095Y-111126247D01*
X182107200Y-92453332D02*
X182154819Y-92310475D01*
X182154819Y-92310475D02*
X182154819Y-92072380D01*
X182154819Y-92072380D02*
X182107200Y-91977142D01*
X182107200Y-91977142D02*
X182059580Y-91929523D01*
X182059580Y-91929523D02*
X181964342Y-91881904D01*
X181964342Y-91881904D02*
X181869104Y-91881904D01*
X181869104Y-91881904D02*
X181773866Y-91929523D01*
X181773866Y-91929523D02*
X181726247Y-91977142D01*
X181726247Y-91977142D02*
X181678628Y-92072380D01*
X181678628Y-92072380D02*
X181631009Y-92262856D01*
X181631009Y-92262856D02*
X181583390Y-92358094D01*
X181583390Y-92358094D02*
X181535771Y-92405713D01*
X181535771Y-92405713D02*
X181440533Y-92453332D01*
X181440533Y-92453332D02*
X181345295Y-92453332D01*
X181345295Y-92453332D02*
X181250057Y-92405713D01*
X181250057Y-92405713D02*
X181202438Y-92358094D01*
X181202438Y-92358094D02*
X181154819Y-92262856D01*
X181154819Y-92262856D02*
X181154819Y-92024761D01*
X181154819Y-92024761D02*
X181202438Y-91881904D01*
X181154819Y-91548570D02*
X182154819Y-91310475D01*
X182154819Y-91310475D02*
X181440533Y-91119999D01*
X181440533Y-91119999D02*
X182154819Y-90929523D01*
X182154819Y-90929523D02*
X181154819Y-90691428D01*
X182154819Y-89786666D02*
X182154819Y-90358094D01*
X182154819Y-90072380D02*
X181154819Y-90072380D01*
X181154819Y-90072380D02*
X181297676Y-90167618D01*
X181297676Y-90167618D02*
X181392914Y-90262856D01*
X181392914Y-90262856D02*
X181440533Y-90358094D01*
X173961905Y-84454819D02*
X173961905Y-83454819D01*
X173961905Y-83931009D02*
X174533333Y-83931009D01*
X174533333Y-84454819D02*
X174533333Y-83454819D01*
X175533333Y-84454819D02*
X174961905Y-84454819D01*
X175247619Y-84454819D02*
X175247619Y-83454819D01*
X175247619Y-83454819D02*
X175152381Y-83597676D01*
X175152381Y-83597676D02*
X175057143Y-83692914D01*
X175057143Y-83692914D02*
X174961905Y-83740533D01*
X175914286Y-83550057D02*
X175961905Y-83502438D01*
X175961905Y-83502438D02*
X176057143Y-83454819D01*
X176057143Y-83454819D02*
X176295238Y-83454819D01*
X176295238Y-83454819D02*
X176390476Y-83502438D01*
X176390476Y-83502438D02*
X176438095Y-83550057D01*
X176438095Y-83550057D02*
X176485714Y-83645295D01*
X176485714Y-83645295D02*
X176485714Y-83740533D01*
X176485714Y-83740533D02*
X176438095Y-83883390D01*
X176438095Y-83883390D02*
X175866667Y-84454819D01*
X175866667Y-84454819D02*
X176485714Y-84454819D01*
D13*
%TO.C,SW2*%
X178600000Y-97850001D02*
X178600000Y-104149999D01*
X178600000Y-104149999D02*
X179000000Y-104150000D01*
X179050000Y-97850001D02*
X178600000Y-97850001D01*
X180350000Y-97850000D02*
X183050000Y-97850000D01*
X183050000Y-104150000D02*
X180350000Y-104150000D01*
X184350000Y-97850001D02*
X184800000Y-97850001D01*
X184800000Y-97850001D02*
X184800000Y-104149999D01*
X184800000Y-104149999D02*
X184350000Y-104149999D01*
%TO.C,R5*%
X194727064Y-96965000D02*
X194272936Y-96965000D01*
X194727064Y-98435000D02*
X194272936Y-98435000D01*
D12*
%TO.C,U1*%
X129950000Y-97745000D02*
X129950000Y-97950000D01*
X129950000Y-97745000D02*
X135450000Y-97745000D01*
X129950000Y-103255000D02*
X129950000Y-103050000D01*
X129950000Y-103255000D02*
X135450000Y-103255000D01*
X135450000Y-97745000D02*
X135450000Y-97950000D01*
X135450000Y-103255000D02*
X135450000Y-103050000D01*
D13*
X129400000Y-98000000D02*
X129160000Y-97670000D01*
X129640000Y-97670000D01*
X129400000Y-98000000D01*
G36*
X129400000Y-98000000D02*
G01*
X129160000Y-97670000D01*
X129640000Y-97670000D01*
X129400000Y-98000000D01*
G37*
%TO.C,R6*%
X195827064Y-99065000D02*
X195372936Y-99065000D01*
X195827064Y-100535000D02*
X195372936Y-100535000D01*
%TO.C,R10*%
X125727064Y-98565000D02*
X125272936Y-98565000D01*
X125727064Y-100035000D02*
X125272936Y-100035000D01*
%TO.C,R7*%
X175072936Y-92265000D02*
X175527064Y-92265000D01*
X175072936Y-93735000D02*
X175527064Y-93735000D01*
%TO.C,R4*%
X194727064Y-94965000D02*
X194272936Y-94965000D01*
X194727064Y-96435000D02*
X194272936Y-96435000D01*
%TO.C,SW4*%
X186200000Y-97970001D02*
X186650000Y-97970001D01*
X186200000Y-104269999D02*
X186200000Y-97970001D01*
X186650000Y-104269999D02*
X186200000Y-104269999D01*
X187950000Y-97970000D02*
X190650000Y-97970000D01*
X190650000Y-104270000D02*
X187950000Y-104270000D01*
X191950000Y-104269999D02*
X192400000Y-104269999D01*
X192400000Y-97970001D02*
X192000000Y-97970000D01*
X192400000Y-104269999D02*
X192400000Y-97970001D01*
%TO.C,R3*%
X176272936Y-96765000D02*
X176727064Y-96765000D01*
X176272936Y-98235000D02*
X176727064Y-98235000D01*
%TO.C,J2*%
X130230001Y-86270000D02*
X130230001Y-88930000D01*
X135369999Y-86270000D02*
X130230001Y-86270000D01*
X135369999Y-86270000D02*
X135369999Y-88930000D01*
X135369999Y-88930000D02*
X130230001Y-88930000D01*
X136640000Y-86270000D02*
X137970000Y-86270000D01*
X137970000Y-86270000D02*
X137970000Y-87600000D01*
%TO.C,R1*%
X141070064Y-97690000D02*
X140615936Y-97690000D01*
X141070064Y-99160000D02*
X140615936Y-99160000D01*
%TO.C,R8*%
X123978936Y-91975000D02*
X124433064Y-91975000D01*
X123978936Y-93445000D02*
X124433064Y-93445000D01*
%TO.C,D1*%
X142940000Y-95240000D02*
X142940000Y-98100000D01*
X144860000Y-95240000D02*
X142940000Y-95240000D01*
X144860000Y-98100000D02*
X144860000Y-95240000D01*
%TO.C,R2*%
X176272936Y-94765000D02*
X176727064Y-94765000D01*
X176272936Y-96235000D02*
X176727064Y-96235000D01*
%TO.C,SW3*%
X186200000Y-87970001D02*
X186650000Y-87970001D01*
X186200000Y-94269999D02*
X186200000Y-87970001D01*
X186650000Y-94269999D02*
X186200000Y-94269999D01*
X187950000Y-87970000D02*
X190650000Y-87970000D01*
X190650000Y-94270000D02*
X187950000Y-94270000D01*
X191950000Y-94269999D02*
X192400000Y-94269999D01*
X192400000Y-87970001D02*
X192000000Y-87970000D01*
X192400000Y-94269999D02*
X192400000Y-87970001D01*
%TO.C,R9*%
X141070064Y-99722000D02*
X140615936Y-99722000D01*
X141070064Y-101192000D02*
X140615936Y-101192000D01*
%TO.C,SW1*%
X178600000Y-87970001D02*
X178600000Y-94269999D01*
X178600000Y-94269999D02*
X179000000Y-94270000D01*
X179050000Y-87970001D02*
X178600000Y-87970001D01*
X180350000Y-87970000D02*
X183050000Y-87970000D01*
X183050000Y-94270000D02*
X180350000Y-94270000D01*
X184350000Y-87970001D02*
X184800000Y-87970001D01*
X184800000Y-87970001D02*
X184800000Y-94269999D01*
X184800000Y-94269999D02*
X184350000Y-94269999D01*
%TD*%
M02*
