%TF.GenerationSoftware,KiCad,Pcbnew,8.0.4*%
%TF.CreationDate,2024-08-13T21:11:54-04:00*%
%TF.ProjectId,1-inch-midi,312d696e-6368-42d6-9d69-64692e6b6963,rev?*%
%TF.SameCoordinates,Original*%
%TF.FileFunction,Profile,NP*%
%FSLAX46Y46*%
G04 Gerber Fmt 4.6, Leading zero omitted, Abs format (unit mm)*
G04 Created by KiCad (PCBNEW 8.0.4) date 2024-08-13 21:11:54*
%MOMM*%
%LPD*%
G01*
G04 APERTURE LIST*
%TA.AperFunction,Profile*%
%ADD10C,0.100000*%
%TD*%
%TA.AperFunction,Profile*%
%ADD11C,0.050000*%
%TD*%
G04 APERTURE END LIST*
D10*
X198000000Y-85000000D02*
X173000000Y-85000000D01*
X173000000Y-85000000D02*
X146000000Y-85000000D01*
X150500000Y-104100000D02*
G75*
G02*
X147900000Y-104100000I-1300000J0D01*
G01*
X147900000Y-104100000D02*
G75*
G02*
X150500000Y-104100000I1300000J0D01*
G01*
X198000000Y-110000000D02*
X198000000Y-85000000D01*
X146000000Y-85000000D02*
X121000000Y-85000000D01*
D11*
X173000000Y-86000000D02*
G75*
G02*
X172000000Y-86000000I-500000J0D01*
G01*
X172000000Y-86000000D02*
G75*
G02*
X173000000Y-86000000I500000J0D01*
G01*
X155000000Y-109000000D02*
G75*
G02*
X154000000Y-109000000I-500000J0D01*
G01*
X154000000Y-109000000D02*
G75*
G02*
X155000000Y-109000000I500000J0D01*
G01*
X173000000Y-108000000D02*
X172000000Y-108000000D01*
D10*
X173000000Y-110000000D02*
X198000000Y-110000000D01*
X169600000Y-108000000D02*
X149400000Y-108000000D01*
X197100000Y-87500000D02*
G75*
G02*
X194500000Y-87500000I-1300000J0D01*
G01*
X194500000Y-87500000D02*
G75*
G02*
X197100000Y-87500000I1300000J0D01*
G01*
X146000000Y-110000000D02*
X173000000Y-110000000D01*
X149400000Y-106600000D02*
X169600000Y-106600000D01*
X149400000Y-108000000D02*
X149400000Y-106600000D01*
D11*
X147000000Y-109000000D02*
G75*
G02*
X146000000Y-109000000I-500000J0D01*
G01*
X146000000Y-109000000D02*
G75*
G02*
X147000000Y-109000000I500000J0D01*
G01*
D10*
X176500000Y-104100000D02*
G75*
G02*
X173900000Y-104100000I-1300000J0D01*
G01*
X173900000Y-104100000D02*
G75*
G02*
X176500000Y-104100000I1300000J0D01*
G01*
X146000000Y-108000000D02*
X146000000Y-87000000D01*
D11*
X147000000Y-86000000D02*
G75*
G02*
X146000000Y-86000000I-500000J0D01*
G01*
X146000000Y-86000000D02*
G75*
G02*
X147000000Y-86000000I500000J0D01*
G01*
D10*
X176500000Y-87500000D02*
G75*
G02*
X173900000Y-87500000I-1300000J0D01*
G01*
X173900000Y-87500000D02*
G75*
G02*
X176500000Y-87500000I1300000J0D01*
G01*
X173000000Y-87000000D02*
X173000000Y-108000000D01*
X171100000Y-104100000D02*
G75*
G02*
X168500000Y-104100000I-1300000J0D01*
G01*
X168500000Y-104100000D02*
G75*
G02*
X171100000Y-104100000I1300000J0D01*
G01*
X197100000Y-104100000D02*
G75*
G02*
X194500000Y-104100000I-1300000J0D01*
G01*
X194500000Y-104100000D02*
G75*
G02*
X197100000Y-104100000I1300000J0D01*
G01*
D11*
X147000000Y-108000000D02*
X146000000Y-108000000D01*
X173000000Y-87000000D02*
X172000000Y-87000000D01*
D10*
X121000000Y-85000000D02*
X121000000Y-110000000D01*
X147000000Y-87000000D02*
X147000000Y-108000000D01*
X150500000Y-87500000D02*
G75*
G02*
X147900000Y-87500000I-1300000J0D01*
G01*
X147900000Y-87500000D02*
G75*
G02*
X150500000Y-87500000I1300000J0D01*
G01*
X121000000Y-110000000D02*
X146000000Y-110000000D01*
D11*
X173000000Y-109000000D02*
G75*
G02*
X172000000Y-109000000I-500000J0D01*
G01*
X172000000Y-109000000D02*
G75*
G02*
X173000000Y-109000000I500000J0D01*
G01*
D10*
X124500000Y-104100000D02*
G75*
G02*
X121900000Y-104100000I-1300000J0D01*
G01*
X121900000Y-104100000D02*
G75*
G02*
X124500000Y-104100000I1300000J0D01*
G01*
X172000000Y-108000000D02*
X172000000Y-87000000D01*
X145100000Y-104100000D02*
G75*
G02*
X142500000Y-104100000I-1300000J0D01*
G01*
X142500000Y-104100000D02*
G75*
G02*
X145100000Y-104100000I1300000J0D01*
G01*
X145100000Y-87500000D02*
G75*
G02*
X142500000Y-87500000I-1300000J0D01*
G01*
X142500000Y-87500000D02*
G75*
G02*
X145100000Y-87500000I1300000J0D01*
G01*
X124500000Y-87500000D02*
G75*
G02*
X121900000Y-87500000I-1300000J0D01*
G01*
X121900000Y-87500000D02*
G75*
G02*
X124500000Y-87500000I1300000J0D01*
G01*
X171100000Y-87500000D02*
G75*
G02*
X168500000Y-87500000I-1300000J0D01*
G01*
X168500000Y-87500000D02*
G75*
G02*
X171100000Y-87500000I1300000J0D01*
G01*
D11*
X165000000Y-109000000D02*
G75*
G02*
X164000000Y-109000000I-500000J0D01*
G01*
X164000000Y-109000000D02*
G75*
G02*
X165000000Y-109000000I500000J0D01*
G01*
X147000000Y-87000000D02*
X146000000Y-87000000D01*
D10*
X169600000Y-106600000D02*
X169600000Y-108000000D01*
M02*
