M48
; DRILL file {KiCad 8.0.4} date 2024-08-13T21:12:05-0400
; FORMAT={-:-/ absolute / inch / decimal}
; #@! TF.CreationDate,2024-08-13T21:12:05-04:00
; #@! TF.GenerationSoftware,Kicad,Pcbnew,8.0.4
; #@! TF.FileFunction,Plated,1,2,PTH
FMAT,2
INCH
; #@! TA.AperFunction,Plated,PTH,ViaDrill
T1C0.0197
; #@! TA.AperFunction,Plated,PTH,ComponentDrill
T2C0.0394
; #@! TA.AperFunction,Plated,PTH,ComponentDrill
T3C0.0512
; #@! TA.AperFunction,Plated,PTH,ComponentDrill
T4C0.0630
; #@! TA.AperFunction,Plated,PTH,ComponentDrill
T5C0.0984
%
G90
G05
T1
X5.0236Y-3.9882
X5.0236Y-4.0354
X5.6339Y-3.9528
X5.6614Y-3.7362
X7.5709Y-4.1929
T2
X5.1795Y-3.4488
X5.2795Y-3.4488
X5.3795Y-3.4488
T3
X4.9606Y-3.7598
X5.2559Y-3.7598
X5.5512Y-3.7598
T4
X5.0591Y-3.6693
X5.0591Y-4.1535
X5.4528Y-3.6693
X5.4528Y-4.1535
T5
X4.8504Y-3.4449
X4.8504Y-4.0984
X5.6614Y-3.4449
X5.6614Y-4.0984
X5.874Y-3.4449
X5.874Y-4.0984
X6.685Y-3.4449
X6.685Y-4.0984
X6.8976Y-3.4449
X6.8976Y-4.0984
X7.7087Y-3.4449
X7.7087Y-4.0984
M30
