%TF.GenerationSoftware,KiCad,Pcbnew,8.0.4*%
%TF.CreationDate,2024-08-02T21:44:17-04:00*%
%TF.ProjectId,MIDI-compatible,4d494449-2d63-46f6-9d70-617469626c65,rev?*%
%TF.SameCoordinates,Original*%
%TF.FileFunction,Legend,Top*%
%TF.FilePolarity,Positive*%
%FSLAX46Y46*%
G04 Gerber Fmt 4.6, Leading zero omitted, Abs format (unit mm)*
G04 Created by KiCad (PCBNEW 8.0.4) date 2024-08-02 21:44:17*
%MOMM*%
%LPD*%
G01*
G04 APERTURE LIST*
%ADD10C,0.150000*%
%ADD11C,0.120000*%
%ADD12C,0.250000*%
G04 APERTURE END LIST*
D10*
X166260588Y-109117438D02*
X166165350Y-109069819D01*
X166165350Y-109069819D02*
X166022493Y-109069819D01*
X166022493Y-109069819D02*
X165879636Y-109117438D01*
X165879636Y-109117438D02*
X165784398Y-109212676D01*
X165784398Y-109212676D02*
X165736779Y-109307914D01*
X165736779Y-109307914D02*
X165689160Y-109498390D01*
X165689160Y-109498390D02*
X165689160Y-109641247D01*
X165689160Y-109641247D02*
X165736779Y-109831723D01*
X165736779Y-109831723D02*
X165784398Y-109926961D01*
X165784398Y-109926961D02*
X165879636Y-110022200D01*
X165879636Y-110022200D02*
X166022493Y-110069819D01*
X166022493Y-110069819D02*
X166117731Y-110069819D01*
X166117731Y-110069819D02*
X166260588Y-110022200D01*
X166260588Y-110022200D02*
X166308207Y-109974580D01*
X166308207Y-109974580D02*
X166308207Y-109641247D01*
X166308207Y-109641247D02*
X166117731Y-109641247D01*
X166736779Y-110069819D02*
X166736779Y-109069819D01*
X166736779Y-109069819D02*
X167308207Y-110069819D01*
X167308207Y-110069819D02*
X167308207Y-109069819D01*
X167784398Y-110069819D02*
X167784398Y-109069819D01*
X167784398Y-109069819D02*
X168022493Y-109069819D01*
X168022493Y-109069819D02*
X168165350Y-109117438D01*
X168165350Y-109117438D02*
X168260588Y-109212676D01*
X168260588Y-109212676D02*
X168308207Y-109307914D01*
X168308207Y-109307914D02*
X168355826Y-109498390D01*
X168355826Y-109498390D02*
X168355826Y-109641247D01*
X168355826Y-109641247D02*
X168308207Y-109831723D01*
X168308207Y-109831723D02*
X168260588Y-109926961D01*
X168260588Y-109926961D02*
X168165350Y-110022200D01*
X168165350Y-110022200D02*
X168022493Y-110069819D01*
X168022493Y-110069819D02*
X167784398Y-110069819D01*
X170117731Y-110069819D02*
X169784398Y-109593628D01*
X169546303Y-110069819D02*
X169546303Y-109069819D01*
X169546303Y-109069819D02*
X169927255Y-109069819D01*
X169927255Y-109069819D02*
X170022493Y-109117438D01*
X170022493Y-109117438D02*
X170070112Y-109165057D01*
X170070112Y-109165057D02*
X170117731Y-109260295D01*
X170117731Y-109260295D02*
X170117731Y-109403152D01*
X170117731Y-109403152D02*
X170070112Y-109498390D01*
X170070112Y-109498390D02*
X170022493Y-109546009D01*
X170022493Y-109546009D02*
X169927255Y-109593628D01*
X169927255Y-109593628D02*
X169546303Y-109593628D01*
X170451065Y-109069819D02*
X171117731Y-110069819D01*
X171117731Y-109069819D02*
X170451065Y-110069819D01*
X172117732Y-109069819D02*
X172451065Y-110069819D01*
X172451065Y-110069819D02*
X172784398Y-109069819D01*
X173689160Y-110069819D02*
X173355827Y-109593628D01*
X173117732Y-110069819D02*
X173117732Y-109069819D01*
X173117732Y-109069819D02*
X173498684Y-109069819D01*
X173498684Y-109069819D02*
X173593922Y-109117438D01*
X173593922Y-109117438D02*
X173641541Y-109165057D01*
X173641541Y-109165057D02*
X173689160Y-109260295D01*
X173689160Y-109260295D02*
X173689160Y-109403152D01*
X173689160Y-109403152D02*
X173641541Y-109498390D01*
X173641541Y-109498390D02*
X173593922Y-109546009D01*
X173593922Y-109546009D02*
X173498684Y-109593628D01*
X173498684Y-109593628D02*
X173117732Y-109593628D01*
X174022494Y-109069819D02*
X174689160Y-110069819D01*
X174689160Y-109069819D02*
X174022494Y-110069819D01*
X172247160Y-99930057D02*
X172294779Y-99882438D01*
X172294779Y-99882438D02*
X172390017Y-99834819D01*
X172390017Y-99834819D02*
X172628112Y-99834819D01*
X172628112Y-99834819D02*
X172723350Y-99882438D01*
X172723350Y-99882438D02*
X172770969Y-99930057D01*
X172770969Y-99930057D02*
X172818588Y-100025295D01*
X172818588Y-100025295D02*
X172818588Y-100120533D01*
X172818588Y-100120533D02*
X172770969Y-100263390D01*
X172770969Y-100263390D02*
X172199541Y-100834819D01*
X172199541Y-100834819D02*
X172818588Y-100834819D01*
X173199541Y-99930057D02*
X173247160Y-99882438D01*
X173247160Y-99882438D02*
X173342398Y-99834819D01*
X173342398Y-99834819D02*
X173580493Y-99834819D01*
X173580493Y-99834819D02*
X173675731Y-99882438D01*
X173675731Y-99882438D02*
X173723350Y-99930057D01*
X173723350Y-99930057D02*
X173770969Y-100025295D01*
X173770969Y-100025295D02*
X173770969Y-100120533D01*
X173770969Y-100120533D02*
X173723350Y-100263390D01*
X173723350Y-100263390D02*
X173151922Y-100834819D01*
X173151922Y-100834819D02*
X173770969Y-100834819D01*
X174390017Y-99834819D02*
X174485255Y-99834819D01*
X174485255Y-99834819D02*
X174580493Y-99882438D01*
X174580493Y-99882438D02*
X174628112Y-99930057D01*
X174628112Y-99930057D02*
X174675731Y-100025295D01*
X174675731Y-100025295D02*
X174723350Y-100215771D01*
X174723350Y-100215771D02*
X174723350Y-100453866D01*
X174723350Y-100453866D02*
X174675731Y-100644342D01*
X174675731Y-100644342D02*
X174628112Y-100739580D01*
X174628112Y-100739580D02*
X174580493Y-100787200D01*
X174580493Y-100787200D02*
X174485255Y-100834819D01*
X174485255Y-100834819D02*
X174390017Y-100834819D01*
X174390017Y-100834819D02*
X174294779Y-100787200D01*
X174294779Y-100787200D02*
X174247160Y-100739580D01*
X174247160Y-100739580D02*
X174199541Y-100644342D01*
X174199541Y-100644342D02*
X174151922Y-100453866D01*
X174151922Y-100453866D02*
X174151922Y-100215771D01*
X174151922Y-100215771D02*
X174199541Y-100025295D01*
X174199541Y-100025295D02*
X174247160Y-99930057D01*
X174247160Y-99930057D02*
X174294779Y-99882438D01*
X174294779Y-99882438D02*
X174390017Y-99834819D01*
X175723350Y-100834819D02*
X175390017Y-100358628D01*
X175151922Y-100834819D02*
X175151922Y-99834819D01*
X175151922Y-99834819D02*
X175532874Y-99834819D01*
X175532874Y-99834819D02*
X175628112Y-99882438D01*
X175628112Y-99882438D02*
X175675731Y-99930057D01*
X175675731Y-99930057D02*
X175723350Y-100025295D01*
X175723350Y-100025295D02*
X175723350Y-100168152D01*
X175723350Y-100168152D02*
X175675731Y-100263390D01*
X175675731Y-100263390D02*
X175628112Y-100311009D01*
X175628112Y-100311009D02*
X175532874Y-100358628D01*
X175532874Y-100358628D02*
X175151922Y-100358628D01*
X161801180Y-104743524D02*
X162801180Y-104743524D01*
X162801180Y-104743524D02*
X162801180Y-105124476D01*
X162801180Y-105124476D02*
X162753561Y-105219714D01*
X162753561Y-105219714D02*
X162705942Y-105267333D01*
X162705942Y-105267333D02*
X162610704Y-105314952D01*
X162610704Y-105314952D02*
X162467847Y-105314952D01*
X162467847Y-105314952D02*
X162372609Y-105267333D01*
X162372609Y-105267333D02*
X162324990Y-105219714D01*
X162324990Y-105219714D02*
X162277371Y-105124476D01*
X162277371Y-105124476D02*
X162277371Y-104743524D01*
X161896419Y-106314952D02*
X161848800Y-106267333D01*
X161848800Y-106267333D02*
X161801180Y-106124476D01*
X161801180Y-106124476D02*
X161801180Y-106029238D01*
X161801180Y-106029238D02*
X161848800Y-105886381D01*
X161848800Y-105886381D02*
X161944038Y-105791143D01*
X161944038Y-105791143D02*
X162039276Y-105743524D01*
X162039276Y-105743524D02*
X162229752Y-105695905D01*
X162229752Y-105695905D02*
X162372609Y-105695905D01*
X162372609Y-105695905D02*
X162563085Y-105743524D01*
X162563085Y-105743524D02*
X162658323Y-105791143D01*
X162658323Y-105791143D02*
X162753561Y-105886381D01*
X162753561Y-105886381D02*
X162801180Y-106029238D01*
X162801180Y-106029238D02*
X162801180Y-106124476D01*
X162801180Y-106124476D02*
X162753561Y-106267333D01*
X162753561Y-106267333D02*
X162705942Y-106314952D01*
X162372609Y-106886381D02*
X162420228Y-106791143D01*
X162420228Y-106791143D02*
X162467847Y-106743524D01*
X162467847Y-106743524D02*
X162563085Y-106695905D01*
X162563085Y-106695905D02*
X162610704Y-106695905D01*
X162610704Y-106695905D02*
X162705942Y-106743524D01*
X162705942Y-106743524D02*
X162753561Y-106791143D01*
X162753561Y-106791143D02*
X162801180Y-106886381D01*
X162801180Y-106886381D02*
X162801180Y-107076857D01*
X162801180Y-107076857D02*
X162753561Y-107172095D01*
X162753561Y-107172095D02*
X162705942Y-107219714D01*
X162705942Y-107219714D02*
X162610704Y-107267333D01*
X162610704Y-107267333D02*
X162563085Y-107267333D01*
X162563085Y-107267333D02*
X162467847Y-107219714D01*
X162467847Y-107219714D02*
X162420228Y-107172095D01*
X162420228Y-107172095D02*
X162372609Y-107076857D01*
X162372609Y-107076857D02*
X162372609Y-106886381D01*
X162372609Y-106886381D02*
X162324990Y-106791143D01*
X162324990Y-106791143D02*
X162277371Y-106743524D01*
X162277371Y-106743524D02*
X162182133Y-106695905D01*
X162182133Y-106695905D02*
X161991657Y-106695905D01*
X161991657Y-106695905D02*
X161896419Y-106743524D01*
X161896419Y-106743524D02*
X161848800Y-106791143D01*
X161848800Y-106791143D02*
X161801180Y-106886381D01*
X161801180Y-106886381D02*
X161801180Y-107076857D01*
X161801180Y-107076857D02*
X161848800Y-107172095D01*
X161848800Y-107172095D02*
X161896419Y-107219714D01*
X161896419Y-107219714D02*
X161991657Y-107267333D01*
X161991657Y-107267333D02*
X162182133Y-107267333D01*
X162182133Y-107267333D02*
X162277371Y-107219714D01*
X162277371Y-107219714D02*
X162324990Y-107172095D01*
X162324990Y-107172095D02*
X162372609Y-107076857D01*
X161801180Y-108219714D02*
X161801180Y-107648286D01*
X161801180Y-107934000D02*
X162801180Y-107934000D01*
X162801180Y-107934000D02*
X162658323Y-107838762D01*
X162658323Y-107838762D02*
X162563085Y-107743524D01*
X162563085Y-107743524D02*
X162515466Y-107648286D01*
X162801180Y-108553048D02*
X162801180Y-109219714D01*
X162801180Y-109219714D02*
X161801180Y-108791143D01*
X169243810Y-102892065D02*
X169577143Y-102892065D01*
X169720000Y-103415875D02*
X169243810Y-103415875D01*
X169243810Y-103415875D02*
X169243810Y-102415875D01*
X169243810Y-102415875D02*
X169720000Y-102415875D01*
X170053334Y-102415875D02*
X170720000Y-102415875D01*
X170720000Y-102415875D02*
X170053334Y-103415875D01*
X170053334Y-103415875D02*
X170720000Y-103415875D01*
X171862858Y-103415875D02*
X171862858Y-102415875D01*
X171862858Y-102415875D02*
X172196191Y-103130160D01*
X172196191Y-103130160D02*
X172529524Y-102415875D01*
X172529524Y-102415875D02*
X172529524Y-103415875D01*
X173005715Y-103415875D02*
X173005715Y-102415875D01*
X173481905Y-103415875D02*
X173481905Y-102415875D01*
X173481905Y-102415875D02*
X173720000Y-102415875D01*
X173720000Y-102415875D02*
X173862857Y-102463494D01*
X173862857Y-102463494D02*
X173958095Y-102558732D01*
X173958095Y-102558732D02*
X174005714Y-102653970D01*
X174005714Y-102653970D02*
X174053333Y-102844446D01*
X174053333Y-102844446D02*
X174053333Y-102987303D01*
X174053333Y-102987303D02*
X174005714Y-103177779D01*
X174005714Y-103177779D02*
X173958095Y-103273017D01*
X173958095Y-103273017D02*
X173862857Y-103368256D01*
X173862857Y-103368256D02*
X173720000Y-103415875D01*
X173720000Y-103415875D02*
X173481905Y-103415875D01*
X174481905Y-103415875D02*
X174481905Y-102415875D01*
X175672381Y-102511113D02*
X175720000Y-102463494D01*
X175720000Y-102463494D02*
X175815238Y-102415875D01*
X175815238Y-102415875D02*
X176053333Y-102415875D01*
X176053333Y-102415875D02*
X176148571Y-102463494D01*
X176148571Y-102463494D02*
X176196190Y-102511113D01*
X176196190Y-102511113D02*
X176243809Y-102606351D01*
X176243809Y-102606351D02*
X176243809Y-102701589D01*
X176243809Y-102701589D02*
X176196190Y-102844446D01*
X176196190Y-102844446D02*
X175624762Y-103415875D01*
X175624762Y-103415875D02*
X176243809Y-103415875D01*
X167767619Y-104025819D02*
X167767619Y-104740104D01*
X167767619Y-104740104D02*
X167720000Y-104882961D01*
X167720000Y-104882961D02*
X167624762Y-104978200D01*
X167624762Y-104978200D02*
X167481905Y-105025819D01*
X167481905Y-105025819D02*
X167386667Y-105025819D01*
X168815238Y-104930580D02*
X168767619Y-104978200D01*
X168767619Y-104978200D02*
X168624762Y-105025819D01*
X168624762Y-105025819D02*
X168529524Y-105025819D01*
X168529524Y-105025819D02*
X168386667Y-104978200D01*
X168386667Y-104978200D02*
X168291429Y-104882961D01*
X168291429Y-104882961D02*
X168243810Y-104787723D01*
X168243810Y-104787723D02*
X168196191Y-104597247D01*
X168196191Y-104597247D02*
X168196191Y-104454390D01*
X168196191Y-104454390D02*
X168243810Y-104263914D01*
X168243810Y-104263914D02*
X168291429Y-104168676D01*
X168291429Y-104168676D02*
X168386667Y-104073438D01*
X168386667Y-104073438D02*
X168529524Y-104025819D01*
X168529524Y-104025819D02*
X168624762Y-104025819D01*
X168624762Y-104025819D02*
X168767619Y-104073438D01*
X168767619Y-104073438D02*
X168815238Y-104121057D01*
X169243810Y-105025819D02*
X169243810Y-104025819D01*
X169243810Y-104025819D02*
X169481905Y-104025819D01*
X169481905Y-104025819D02*
X169624762Y-104073438D01*
X169624762Y-104073438D02*
X169720000Y-104168676D01*
X169720000Y-104168676D02*
X169767619Y-104263914D01*
X169767619Y-104263914D02*
X169815238Y-104454390D01*
X169815238Y-104454390D02*
X169815238Y-104597247D01*
X169815238Y-104597247D02*
X169767619Y-104787723D01*
X169767619Y-104787723D02*
X169720000Y-104882961D01*
X169720000Y-104882961D02*
X169624762Y-104978200D01*
X169624762Y-104978200D02*
X169481905Y-105025819D01*
X169481905Y-105025819D02*
X169243810Y-105025819D01*
X170624762Y-104978200D02*
X170529524Y-105025819D01*
X170529524Y-105025819D02*
X170339048Y-105025819D01*
X170339048Y-105025819D02*
X170243810Y-104978200D01*
X170243810Y-104978200D02*
X170196191Y-104882961D01*
X170196191Y-104882961D02*
X170196191Y-104502009D01*
X170196191Y-104502009D02*
X170243810Y-104406771D01*
X170243810Y-104406771D02*
X170339048Y-104359152D01*
X170339048Y-104359152D02*
X170529524Y-104359152D01*
X170529524Y-104359152D02*
X170624762Y-104406771D01*
X170624762Y-104406771D02*
X170672381Y-104502009D01*
X170672381Y-104502009D02*
X170672381Y-104597247D01*
X170672381Y-104597247D02*
X170196191Y-104692485D01*
X171005715Y-104359152D02*
X171243810Y-105025819D01*
X171243810Y-105025819D02*
X171481905Y-104359152D01*
X171862858Y-105025819D02*
X171862858Y-104359152D01*
X171862858Y-104025819D02*
X171815239Y-104073438D01*
X171815239Y-104073438D02*
X171862858Y-104121057D01*
X171862858Y-104121057D02*
X171910477Y-104073438D01*
X171910477Y-104073438D02*
X171862858Y-104025819D01*
X171862858Y-104025819D02*
X171862858Y-104121057D01*
X172767619Y-104978200D02*
X172672381Y-105025819D01*
X172672381Y-105025819D02*
X172481905Y-105025819D01*
X172481905Y-105025819D02*
X172386667Y-104978200D01*
X172386667Y-104978200D02*
X172339048Y-104930580D01*
X172339048Y-104930580D02*
X172291429Y-104835342D01*
X172291429Y-104835342D02*
X172291429Y-104549628D01*
X172291429Y-104549628D02*
X172339048Y-104454390D01*
X172339048Y-104454390D02*
X172386667Y-104406771D01*
X172386667Y-104406771D02*
X172481905Y-104359152D01*
X172481905Y-104359152D02*
X172672381Y-104359152D01*
X172672381Y-104359152D02*
X172767619Y-104406771D01*
X173577143Y-104978200D02*
X173481905Y-105025819D01*
X173481905Y-105025819D02*
X173291429Y-105025819D01*
X173291429Y-105025819D02*
X173196191Y-104978200D01*
X173196191Y-104978200D02*
X173148572Y-104882961D01*
X173148572Y-104882961D02*
X173148572Y-104502009D01*
X173148572Y-104502009D02*
X173196191Y-104406771D01*
X173196191Y-104406771D02*
X173291429Y-104359152D01*
X173291429Y-104359152D02*
X173481905Y-104359152D01*
X173481905Y-104359152D02*
X173577143Y-104406771D01*
X173577143Y-104406771D02*
X173624762Y-104502009D01*
X173624762Y-104502009D02*
X173624762Y-104597247D01*
X173624762Y-104597247D02*
X173148572Y-104692485D01*
X174005715Y-104978200D02*
X174100953Y-105025819D01*
X174100953Y-105025819D02*
X174291429Y-105025819D01*
X174291429Y-105025819D02*
X174386667Y-104978200D01*
X174386667Y-104978200D02*
X174434286Y-104882961D01*
X174434286Y-104882961D02*
X174434286Y-104835342D01*
X174434286Y-104835342D02*
X174386667Y-104740104D01*
X174386667Y-104740104D02*
X174291429Y-104692485D01*
X174291429Y-104692485D02*
X174148572Y-104692485D01*
X174148572Y-104692485D02*
X174053334Y-104644866D01*
X174053334Y-104644866D02*
X174005715Y-104549628D01*
X174005715Y-104549628D02*
X174005715Y-104502009D01*
X174005715Y-104502009D02*
X174053334Y-104406771D01*
X174053334Y-104406771D02*
X174148572Y-104359152D01*
X174148572Y-104359152D02*
X174291429Y-104359152D01*
X174291429Y-104359152D02*
X174386667Y-104406771D01*
X174862858Y-104930580D02*
X174910477Y-104978200D01*
X174910477Y-104978200D02*
X174862858Y-105025819D01*
X174862858Y-105025819D02*
X174815239Y-104978200D01*
X174815239Y-104978200D02*
X174862858Y-104930580D01*
X174862858Y-104930580D02*
X174862858Y-105025819D01*
X175767619Y-104978200D02*
X175672381Y-105025819D01*
X175672381Y-105025819D02*
X175481905Y-105025819D01*
X175481905Y-105025819D02*
X175386667Y-104978200D01*
X175386667Y-104978200D02*
X175339048Y-104930580D01*
X175339048Y-104930580D02*
X175291429Y-104835342D01*
X175291429Y-104835342D02*
X175291429Y-104549628D01*
X175291429Y-104549628D02*
X175339048Y-104454390D01*
X175339048Y-104454390D02*
X175386667Y-104406771D01*
X175386667Y-104406771D02*
X175481905Y-104359152D01*
X175481905Y-104359152D02*
X175672381Y-104359152D01*
X175672381Y-104359152D02*
X175767619Y-104406771D01*
X176339048Y-105025819D02*
X176243810Y-104978200D01*
X176243810Y-104978200D02*
X176196191Y-104930580D01*
X176196191Y-104930580D02*
X176148572Y-104835342D01*
X176148572Y-104835342D02*
X176148572Y-104549628D01*
X176148572Y-104549628D02*
X176196191Y-104454390D01*
X176196191Y-104454390D02*
X176243810Y-104406771D01*
X176243810Y-104406771D02*
X176339048Y-104359152D01*
X176339048Y-104359152D02*
X176481905Y-104359152D01*
X176481905Y-104359152D02*
X176577143Y-104406771D01*
X176577143Y-104406771D02*
X176624762Y-104454390D01*
X176624762Y-104454390D02*
X176672381Y-104549628D01*
X176672381Y-104549628D02*
X176672381Y-104835342D01*
X176672381Y-104835342D02*
X176624762Y-104930580D01*
X176624762Y-104930580D02*
X176577143Y-104978200D01*
X176577143Y-104978200D02*
X176481905Y-105025819D01*
X176481905Y-105025819D02*
X176339048Y-105025819D01*
X177100953Y-105025819D02*
X177100953Y-104359152D01*
X177100953Y-104454390D02*
X177148572Y-104406771D01*
X177148572Y-104406771D02*
X177243810Y-104359152D01*
X177243810Y-104359152D02*
X177386667Y-104359152D01*
X177386667Y-104359152D02*
X177481905Y-104406771D01*
X177481905Y-104406771D02*
X177529524Y-104502009D01*
X177529524Y-104502009D02*
X177529524Y-105025819D01*
X177529524Y-104502009D02*
X177577143Y-104406771D01*
X177577143Y-104406771D02*
X177672381Y-104359152D01*
X177672381Y-104359152D02*
X177815238Y-104359152D01*
X177815238Y-104359152D02*
X177910477Y-104406771D01*
X177910477Y-104406771D02*
X177958096Y-104502009D01*
X177958096Y-104502009D02*
X177958096Y-105025819D01*
X165100000Y-103914580D02*
X165147619Y-103962200D01*
X165147619Y-103962200D02*
X165100000Y-104009819D01*
X165100000Y-104009819D02*
X165052381Y-103962200D01*
X165052381Y-103962200D02*
X165100000Y-103914580D01*
X165100000Y-103914580D02*
X165100000Y-104009819D01*
X179009523Y-109354819D02*
X178676190Y-108878628D01*
X178438095Y-109354819D02*
X178438095Y-108354819D01*
X178438095Y-108354819D02*
X178819047Y-108354819D01*
X178819047Y-108354819D02*
X178914285Y-108402438D01*
X178914285Y-108402438D02*
X178961904Y-108450057D01*
X178961904Y-108450057D02*
X179009523Y-108545295D01*
X179009523Y-108545295D02*
X179009523Y-108688152D01*
X179009523Y-108688152D02*
X178961904Y-108783390D01*
X178961904Y-108783390D02*
X178914285Y-108831009D01*
X178914285Y-108831009D02*
X178819047Y-108878628D01*
X178819047Y-108878628D02*
X178438095Y-108878628D01*
X179438095Y-109354819D02*
X179438095Y-108354819D01*
X179438095Y-108354819D02*
X179676190Y-108354819D01*
X179676190Y-108354819D02*
X179819047Y-108402438D01*
X179819047Y-108402438D02*
X179914285Y-108497676D01*
X179914285Y-108497676D02*
X179961904Y-108592914D01*
X179961904Y-108592914D02*
X180009523Y-108783390D01*
X180009523Y-108783390D02*
X180009523Y-108926247D01*
X180009523Y-108926247D02*
X179961904Y-109116723D01*
X179961904Y-109116723D02*
X179914285Y-109211961D01*
X179914285Y-109211961D02*
X179819047Y-109307200D01*
X179819047Y-109307200D02*
X179676190Y-109354819D01*
X179676190Y-109354819D02*
X179438095Y-109354819D01*
X174714819Y-112093333D02*
X175429104Y-112093333D01*
X175429104Y-112093333D02*
X175571961Y-112140952D01*
X175571961Y-112140952D02*
X175667200Y-112236190D01*
X175667200Y-112236190D02*
X175714819Y-112379047D01*
X175714819Y-112379047D02*
X175714819Y-112474285D01*
X174810057Y-111664761D02*
X174762438Y-111617142D01*
X174762438Y-111617142D02*
X174714819Y-111521904D01*
X174714819Y-111521904D02*
X174714819Y-111283809D01*
X174714819Y-111283809D02*
X174762438Y-111188571D01*
X174762438Y-111188571D02*
X174810057Y-111140952D01*
X174810057Y-111140952D02*
X174905295Y-111093333D01*
X174905295Y-111093333D02*
X175000533Y-111093333D01*
X175000533Y-111093333D02*
X175143390Y-111140952D01*
X175143390Y-111140952D02*
X175714819Y-111712380D01*
X175714819Y-111712380D02*
X175714819Y-111093333D01*
X168576666Y-94904819D02*
X168576666Y-95619104D01*
X168576666Y-95619104D02*
X168529047Y-95761961D01*
X168529047Y-95761961D02*
X168433809Y-95857200D01*
X168433809Y-95857200D02*
X168290952Y-95904819D01*
X168290952Y-95904819D02*
X168195714Y-95904819D01*
X169576666Y-95904819D02*
X169005238Y-95904819D01*
X169290952Y-95904819D02*
X169290952Y-94904819D01*
X169290952Y-94904819D02*
X169195714Y-95047676D01*
X169195714Y-95047676D02*
X169100476Y-95142914D01*
X169100476Y-95142914D02*
X169005238Y-95190533D01*
X178909523Y-102354819D02*
X178576190Y-101878628D01*
X178338095Y-102354819D02*
X178338095Y-101354819D01*
X178338095Y-101354819D02*
X178719047Y-101354819D01*
X178719047Y-101354819D02*
X178814285Y-101402438D01*
X178814285Y-101402438D02*
X178861904Y-101450057D01*
X178861904Y-101450057D02*
X178909523Y-101545295D01*
X178909523Y-101545295D02*
X178909523Y-101688152D01*
X178909523Y-101688152D02*
X178861904Y-101783390D01*
X178861904Y-101783390D02*
X178814285Y-101831009D01*
X178814285Y-101831009D02*
X178719047Y-101878628D01*
X178719047Y-101878628D02*
X178338095Y-101878628D01*
X179671428Y-101831009D02*
X179814285Y-101878628D01*
X179814285Y-101878628D02*
X179861904Y-101926247D01*
X179861904Y-101926247D02*
X179909523Y-102021485D01*
X179909523Y-102021485D02*
X179909523Y-102164342D01*
X179909523Y-102164342D02*
X179861904Y-102259580D01*
X179861904Y-102259580D02*
X179814285Y-102307200D01*
X179814285Y-102307200D02*
X179719047Y-102354819D01*
X179719047Y-102354819D02*
X179338095Y-102354819D01*
X179338095Y-102354819D02*
X179338095Y-101354819D01*
X179338095Y-101354819D02*
X179671428Y-101354819D01*
X179671428Y-101354819D02*
X179766666Y-101402438D01*
X179766666Y-101402438D02*
X179814285Y-101450057D01*
X179814285Y-101450057D02*
X179861904Y-101545295D01*
X179861904Y-101545295D02*
X179861904Y-101640533D01*
X179861904Y-101640533D02*
X179814285Y-101735771D01*
X179814285Y-101735771D02*
X179766666Y-101783390D01*
X179766666Y-101783390D02*
X179671428Y-101831009D01*
X179671428Y-101831009D02*
X179338095Y-101831009D01*
X163091905Y-100784819D02*
X163091905Y-99784819D01*
X163091905Y-99784819D02*
X163330000Y-99784819D01*
X163330000Y-99784819D02*
X163472857Y-99832438D01*
X163472857Y-99832438D02*
X163568095Y-99927676D01*
X163568095Y-99927676D02*
X163615714Y-100022914D01*
X163615714Y-100022914D02*
X163663333Y-100213390D01*
X163663333Y-100213390D02*
X163663333Y-100356247D01*
X163663333Y-100356247D02*
X163615714Y-100546723D01*
X163615714Y-100546723D02*
X163568095Y-100641961D01*
X163568095Y-100641961D02*
X163472857Y-100737200D01*
X163472857Y-100737200D02*
X163330000Y-100784819D01*
X163330000Y-100784819D02*
X163091905Y-100784819D01*
X164615714Y-100784819D02*
X164044286Y-100784819D01*
X164330000Y-100784819D02*
X164330000Y-99784819D01*
X164330000Y-99784819D02*
X164234762Y-99927676D01*
X164234762Y-99927676D02*
X164139524Y-100022914D01*
X164139524Y-100022914D02*
X164044286Y-100070533D01*
X166997095Y-102689819D02*
X166997095Y-101689819D01*
X167568523Y-102689819D02*
X167139952Y-102118390D01*
X167568523Y-101689819D02*
X166997095Y-102261247D01*
D11*
%TO.C,U1*%
X159730000Y-104284000D02*
X159730000Y-109584000D01*
X159730000Y-109584000D02*
X164930000Y-109584000D01*
X164930000Y-104284000D02*
X159730000Y-104284000D01*
X164930000Y-105934000D02*
X164930000Y-104284000D01*
X164930000Y-109584000D02*
X164930000Y-107934001D01*
X164930000Y-107934001D02*
G75*
G02*
X164930000Y-105933999I0J1000001D01*
G01*
%TO.C,RD*%
X170720000Y-105945000D02*
X170720000Y-106275000D01*
X170720000Y-108685000D02*
X170720000Y-108355000D01*
X177260000Y-105945000D02*
X170720000Y-105945000D01*
X177260000Y-106275000D02*
X177260000Y-105945000D01*
X177260000Y-108355000D02*
X177260000Y-108685000D01*
X177260000Y-108685000D02*
X170720000Y-108685000D01*
%TO.C,J2*%
X166325000Y-113090000D02*
X166325000Y-111760000D01*
X167655000Y-113090000D02*
X166325000Y-113090000D01*
X168925001Y-110430000D02*
X174064999Y-110430000D01*
X168925001Y-113090000D02*
X168925001Y-110430000D01*
X168925001Y-113090000D02*
X174064999Y-113090000D01*
X174064999Y-113090000D02*
X174064999Y-110430000D01*
D12*
%TO.C,J1*%
X159070000Y-79180000D02*
X159070000Y-98080000D01*
X159070000Y-80880000D02*
X163330000Y-80880000D01*
X159079999Y-92410000D02*
X161260000Y-92410000D01*
X160070000Y-98079999D02*
X159070000Y-98080000D01*
X162880000Y-92410000D02*
X168760000Y-92410000D01*
X165810000Y-80880000D02*
X173330000Y-80880000D01*
X170380000Y-92410000D02*
X176260000Y-92410000D01*
X175810000Y-80880000D02*
X180070000Y-80880000D01*
X177880000Y-92410000D02*
X180070000Y-92410000D01*
X180070000Y-79180000D02*
X159070000Y-79180000D01*
X180070000Y-79180000D02*
X180070000Y-98080000D01*
X180070000Y-98080000D02*
X160070000Y-98079999D01*
D11*
%TO.C,RB*%
X170720000Y-98960000D02*
X170720000Y-99290000D01*
X170720000Y-101700000D02*
X170720000Y-101370000D01*
X177260000Y-98960000D02*
X170720000Y-98960000D01*
X177260000Y-99290000D02*
X177260000Y-98960000D01*
X177260000Y-101370000D02*
X177260000Y-101700000D01*
X177260000Y-101700000D02*
X170720000Y-101700000D01*
%TO.C,D1*%
X161110000Y-98860000D02*
X161110000Y-99190000D01*
X161110000Y-101800000D02*
X161110000Y-101470000D01*
X165530000Y-101800000D02*
X165530000Y-98860000D01*
X165650000Y-101799999D02*
X165650000Y-98860001D01*
X165770000Y-101800000D02*
X165770000Y-98860000D01*
X166550000Y-99190000D02*
X166550001Y-98860000D01*
X166550000Y-101470000D02*
X166550001Y-101800000D01*
X166550001Y-98860000D02*
X161110000Y-98860000D01*
X166550001Y-101800000D02*
X161110000Y-101800000D01*
%TD*%
M02*
