%TF.GenerationSoftware,KiCad,Pcbnew,8.0.4*%
%TF.CreationDate,2024-08-02T21:44:17-04:00*%
%TF.ProjectId,MIDI-compatible,4d494449-2d63-46f6-9d70-617469626c65,rev?*%
%TF.SameCoordinates,Original*%
%TF.FileFunction,Copper,L1,Top*%
%TF.FilePolarity,Positive*%
%FSLAX46Y46*%
G04 Gerber Fmt 4.6, Leading zero omitted, Abs format (unit mm)*
G04 Created by KiCad (PCBNEW 8.0.4) date 2024-08-02 21:44:17*
%MOMM*%
%LPD*%
G01*
G04 APERTURE LIST*
%TA.AperFunction,ComponentPad*%
%ADD10R,1.600000X1.600000*%
%TD*%
%TA.AperFunction,ComponentPad*%
%ADD11O,1.600000X1.600000*%
%TD*%
%TA.AperFunction,ComponentPad*%
%ADD12C,1.600000*%
%TD*%
%TA.AperFunction,ComponentPad*%
%ADD13R,1.700000X1.700000*%
%TD*%
%TA.AperFunction,ComponentPad*%
%ADD14O,1.700000X1.700000*%
%TD*%
%TA.AperFunction,ComponentPad*%
%ADD15C,2.000000*%
%TD*%
%TA.AperFunction,ComponentPad*%
%ADD16C,2.300000*%
%TD*%
%TA.AperFunction,ComponentPad*%
%ADD17R,1.800000X1.800000*%
%TD*%
%TA.AperFunction,ComponentPad*%
%ADD18O,1.800000X1.800000*%
%TD*%
%TA.AperFunction,Conductor*%
%ADD19C,0.500000*%
%TD*%
G04 APERTURE END LIST*
D10*
%TO.P,U1,1*%
%TO.N,Net-(D1-K)*%
X163600000Y-103124000D03*
D11*
%TO.P,U1,2*%
%TO.N,Net-(D1-A)*%
X161060000Y-103124000D03*
%TO.P,U1,3*%
%TO.N,GND*%
X161060000Y-110744000D03*
%TO.P,U1,4*%
%TO.N,Net-(J2-Pin_2)*%
X163600000Y-110744000D03*
%TD*%
D12*
%TO.P,RD,1*%
%TO.N,Net-(J2-Pin_3)*%
X177800000Y-107315000D03*
D11*
%TO.P,RD,2*%
%TO.N,Net-(J2-Pin_2)*%
X170180000Y-107315000D03*
%TD*%
D13*
%TO.P,J2,1,Pin_1*%
%TO.N,GND*%
X167655000Y-111760000D03*
D14*
%TO.P,J2,2,Pin_2*%
%TO.N,Net-(J2-Pin_2)*%
X170195000Y-111760000D03*
%TO.P,J2,3,Pin_3*%
%TO.N,Net-(J2-Pin_3)*%
X172734999Y-111760000D03*
%TD*%
D15*
%TO.P,J1,1*%
%TO.N,unconnected-(J1-Pad1)*%
X162070000Y-91480000D03*
%TO.P,J1,2*%
%TO.N,unconnected-(J1-Pad2)*%
X169570000Y-91480000D03*
%TO.P,J1,3*%
%TO.N,unconnected-(J1-Pad3)*%
X177070000Y-91480000D03*
D16*
%TO.P,J1,4*%
%TO.N,Net-(J1-Pad4)*%
X164570000Y-93780000D03*
%TO.P,J1,5*%
%TO.N,Net-(D1-A)*%
X174570000Y-93780000D03*
%TO.P,J1,6*%
%TO.N,N/C*%
X164570000Y-81480000D03*
%TO.P,J1,7*%
X174570000Y-81480000D03*
%TD*%
D12*
%TO.P,RB,1*%
%TO.N,Net-(J1-Pad4)*%
X177800000Y-100330000D03*
D11*
%TO.P,RB,2*%
%TO.N,Net-(D1-K)*%
X170180000Y-100330000D03*
%TD*%
D17*
%TO.P,D1,1,K*%
%TO.N,Net-(D1-K)*%
X167640000Y-100330000D03*
D18*
%TO.P,D1,2,A*%
%TO.N,Net-(D1-A)*%
X160020000Y-100330000D03*
%TD*%
D19*
%TO.N,Net-(D1-A)*%
X160020000Y-99060000D02*
X161290000Y-97790000D01*
X161290000Y-97790000D02*
X165100000Y-97790000D01*
X169110000Y-93780000D02*
X174570000Y-93780000D01*
X160020000Y-102084000D02*
X161060000Y-103124000D01*
X165100000Y-97790000D02*
X169110000Y-93780000D01*
X160020000Y-100330000D02*
X160020000Y-99060000D01*
X160020000Y-100330000D02*
X160020000Y-102084000D01*
%TO.N,Net-(D1-K)*%
X163600000Y-103124000D02*
X163676000Y-103200000D01*
X167640000Y-101600000D02*
X167640000Y-100330000D01*
X166040000Y-103200000D02*
X167640000Y-101600000D01*
X167640000Y-100330000D02*
X170180000Y-100330000D01*
X163676000Y-103200000D02*
X166040000Y-103200000D01*
%TO.N,Net-(J2-Pin_3)*%
X176530000Y-111760000D02*
X172734999Y-111760000D01*
X177800000Y-110490000D02*
X176530000Y-111760000D01*
X177800000Y-107315000D02*
X177800000Y-110490000D01*
%TO.N,Net-(J2-Pin_2)*%
X170180000Y-107315000D02*
X170180000Y-111745000D01*
X163600000Y-110744000D02*
X165735000Y-110744000D01*
X165735000Y-110744000D02*
X169164000Y-107315000D01*
X170180000Y-111745000D02*
X170195000Y-111760000D01*
X169164000Y-107315000D02*
X170180000Y-107315000D01*
%TO.N,GND*%
X161060000Y-110744000D02*
X161060000Y-111784000D01*
X165320000Y-112280000D02*
X165840000Y-111760000D01*
X161556000Y-112280000D02*
X165320000Y-112280000D01*
X161060000Y-111784000D02*
X161556000Y-112280000D01*
X165840000Y-111760000D02*
X167655000Y-111760000D01*
%TD*%
%TA.AperFunction,Conductor*%
%TO.N,GND*%
G36*
X159721668Y-110382685D02*
G01*
X159767423Y-110435489D01*
X159774615Y-110485512D01*
X159781128Y-110494000D01*
X160744314Y-110494000D01*
X160739920Y-110498394D01*
X160687259Y-110589606D01*
X160660000Y-110691339D01*
X160660000Y-110796661D01*
X160687259Y-110898394D01*
X160739920Y-110989606D01*
X160744314Y-110994000D01*
X159781128Y-110994000D01*
X159833730Y-111190317D01*
X159833734Y-111190326D01*
X159929865Y-111396482D01*
X160060342Y-111582820D01*
X160221179Y-111743657D01*
X160407517Y-111874134D01*
X160613673Y-111970265D01*
X160613682Y-111970269D01*
X160809999Y-112022872D01*
X160810000Y-112022871D01*
X160810000Y-111059686D01*
X160814394Y-111064080D01*
X160905606Y-111116741D01*
X161007339Y-111144000D01*
X161112661Y-111144000D01*
X161214394Y-111116741D01*
X161305606Y-111064080D01*
X161310000Y-111059686D01*
X161310000Y-112022872D01*
X161506317Y-111970269D01*
X161506326Y-111970265D01*
X161712482Y-111874134D01*
X161898820Y-111743657D01*
X162059657Y-111582820D01*
X162190132Y-111396484D01*
X162217341Y-111338134D01*
X162263513Y-111285695D01*
X162330707Y-111266542D01*
X162397588Y-111286757D01*
X162442105Y-111338132D01*
X162458720Y-111373763D01*
X162469431Y-111396732D01*
X162469432Y-111396734D01*
X162599954Y-111583141D01*
X162760858Y-111744045D01*
X162760861Y-111744047D01*
X162947266Y-111874568D01*
X163153504Y-111970739D01*
X163373308Y-112029635D01*
X163535230Y-112043801D01*
X163599998Y-112049468D01*
X163600000Y-112049468D01*
X163600002Y-112049468D01*
X163656673Y-112044509D01*
X163826692Y-112029635D01*
X164046496Y-111970739D01*
X164252734Y-111874568D01*
X164439139Y-111744047D01*
X164600047Y-111583139D01*
X164625088Y-111547377D01*
X164679665Y-111503752D01*
X164726663Y-111494500D01*
X165808920Y-111494500D01*
X165906462Y-111475096D01*
X165953913Y-111465658D01*
X166090495Y-111409084D01*
X166112107Y-111394642D01*
X166178782Y-111373763D01*
X166246163Y-111392245D01*
X166292855Y-111444223D01*
X166305000Y-111497743D01*
X166305000Y-111510000D01*
X167221988Y-111510000D01*
X167189075Y-111567007D01*
X167155000Y-111694174D01*
X167155000Y-111825826D01*
X167189075Y-111952993D01*
X167221988Y-112010000D01*
X166305000Y-112010000D01*
X166305000Y-112405500D01*
X166285315Y-112472539D01*
X166232511Y-112518294D01*
X166181000Y-112529500D01*
X160278675Y-112529500D01*
X160211636Y-112509815D01*
X160190994Y-112493181D01*
X159286819Y-111589005D01*
X159253334Y-111527682D01*
X159250500Y-111501324D01*
X159250500Y-110487000D01*
X159270185Y-110419961D01*
X159322989Y-110374206D01*
X159374500Y-110363000D01*
X159654629Y-110363000D01*
X159721668Y-110382685D01*
G37*
%TD.AperFunction*%
%TA.AperFunction,Conductor*%
G36*
X169330344Y-108312534D02*
G01*
X169358130Y-108327139D01*
X169376623Y-108340088D01*
X169420248Y-108394663D01*
X169429500Y-108441662D01*
X169429500Y-110582801D01*
X169409815Y-110649840D01*
X169376626Y-110684374D01*
X169323600Y-110721504D01*
X169201284Y-110843819D01*
X169139960Y-110877303D01*
X169070269Y-110872318D01*
X169014335Y-110830447D01*
X168997421Y-110799470D01*
X168948354Y-110667913D01*
X168948350Y-110667906D01*
X168862190Y-110552812D01*
X168862187Y-110552809D01*
X168747093Y-110466649D01*
X168747086Y-110466645D01*
X168612379Y-110416403D01*
X168612372Y-110416401D01*
X168552844Y-110410000D01*
X167905000Y-110410000D01*
X167905000Y-111326988D01*
X167847993Y-111294075D01*
X167720826Y-111260000D01*
X167589174Y-111260000D01*
X167462007Y-111294075D01*
X167405000Y-111326988D01*
X167405000Y-110410000D01*
X167394720Y-110399720D01*
X167362690Y-110390315D01*
X167316935Y-110337511D01*
X167306991Y-110268353D01*
X167336016Y-110204797D01*
X167342048Y-110198319D01*
X167730735Y-109809632D01*
X169199332Y-108341033D01*
X169260653Y-108307550D01*
X169330344Y-108312534D01*
G37*
%TD.AperFunction*%
%TD*%
M02*
