M48
; DRILL file {KiCad 8.0.4} date 2024-08-02T21:44:23-0400
; FORMAT={-:-/ absolute / inch / decimal}
; #@! TF.CreationDate,2024-08-02T21:44:23-04:00
; #@! TF.GenerationSoftware,Kicad,Pcbnew,8.0.4
; #@! TF.FileFunction,Plated,1,2,PTH
FMAT,2
INCH
; #@! TA.AperFunction,Plated,PTH,ComponentDrill
T1C0.0315
; #@! TA.AperFunction,Plated,PTH,ComponentDrill
T2C0.0354
; #@! TA.AperFunction,Plated,PTH,ComponentDrill
T3C0.0394
; #@! TA.AperFunction,Plated,PTH,ComponentDrill
T4C0.0512
; #@! TA.AperFunction,Plated,PTH,ComponentDrill
T5C0.0630
%
G90
G05
T1
X6.3409Y-4.06
X6.3409Y-4.36
X6.4409Y-4.06
X6.4409Y-4.36
X6.7Y-3.95
X6.7Y-4.225
X7.0Y-3.95
X7.0Y-4.225
T2
X6.3Y-3.95
X6.6Y-3.95
T3
X6.6006Y-4.4
X6.7006Y-4.4
X6.8006Y-4.4
T4
X6.3807Y-3.6016
X6.676Y-3.6016
X6.9713Y-3.6016
T5
X6.4791Y-3.2079
X6.4791Y-3.6921
X6.8728Y-3.2079
X6.8728Y-3.6921
M30
